<?xml version="1.0" encoding="UTF-8"?>
<svg width="111px" height="644px" viewBox="2432 965 111 644" xmlns="http://www.w3.org/2000/svg" xmlns:xlink="http://www.w3.org/1999/xlink" version="1.1">
 <!-- Generated by Pixelmator Pro 2.3.3 -->
 <g id="flauta-nota-A#">
  <path id="corpo-da-flauta" d="M2502.938 1022.678 C2481.364 1022.678 2463.875 1040.167 2463.875 1061.741 L2463.875 1569.553 C2463.875 1591.127 2481.364 1608.616 2502.938 1608.616 L2502.938 1608.616 C2524.511 1608.616 2542 1591.127 2542 1569.553 L2542 1061.741 C2542 1040.167 2524.511 1022.678 2502.938 1022.678 Z" fill="#fce5cd" fill-opacity="1" stroke="none"/>
  <defs>
   <path id="A#" d="M2501.863 996.152 C2501.071 996.152 2500.085 995.949 2498.909 995.541 2497.637 995.157 2496.773 994.7 2496.318 994.172 2496.125 993.956 2495.934 993.235 2495.741 992.011 2495.478 990.403 2495.179 989.071 2494.843 988.015 2493.931 988.135 2492.599 988.466 2490.847 989.005 2489.095 989.546 2487.955 989.995 2487.427 990.355 2487.067 991.387 2486.585 992.659 2485.986 994.172 2485.914 994.508 2485.835 994.827 2485.751 995.127 2485.667 995.427 2485.458 995.673 2485.122 995.865 2485.05 995.913 2484.942 995.935 2484.798 995.935 2484.222 995.935 2483.256 995.637 2481.9 995.037 2480.544 994.437 2479.842 994.039 2479.794 993.847 2479.698 993.511 2479.926 992.685 2480.478 991.365 2481.246 989.445 2481.69 988.268 2481.81 987.836 2481.306 987.332 2481.054 986.828 2481.054 986.324 2481.054 986.204 2481.067 986.071 2481.091 985.927 2481.139 985.639 2481.87 985.125 2483.286 984.38 L2487.931 968.504 C2488.003 968.216 2488.014 967.688 2487.966 966.92 2487.918 966.272 2487.991 965.865 2488.183 965.697 2488.303 965.577 2488.59 965.515 2489.046 965.515 2490.174 965.515 2491.782 965.805 2493.87 966.38 2495.958 966.956 2497.207 967.471 2497.615 967.927 2497.759 970.591 2498.298 974.588 2499.234 979.916 2500.434 986.492 2501.657 991.027 2502.906 993.523 2502.882 993.739 2502.835 994.256 2502.763 995.072 2502.739 995.504 2502.642 995.829 2502.474 996.045 2502.354 996.117 2502.15 996.152 2501.863 996.152 Z M2518.993 993.033 C2518.527 993.026 2517.826 992.776 2516.892 992.283 2515.824 991.719 2515.182 991.292 2514.966 991.004 2514.822 990.788 2514.749 990.549 2514.749 990.285 2514.749 990.021 2514.828 989.677 2514.984 989.257 2515.14 988.837 2515.218 988.569 2515.218 988.449 2515.242 988.113 2515.278 987.176 2515.325 985.64 L2513.275 985.64 C2513.251 987.296 2513.227 989 2513.202 990.752 2513.13 991.088 2512.927 991.388 2512.591 991.652 2512.255 991.916 2511.882 992.035 2511.474 992.011 2511.162 991.987 2510.442 991.562 2509.314 990.734 2508.186 989.906 2507.609 989.335 2507.585 989.023 2507.561 988.759 2507.658 988.461 2507.874 988.125 2508.09 987.789 2508.21 987.513 2508.234 987.297 L2508.234 985.64 C2507.634 985.64 2507.1 985.76 2506.632 986 2506.164 986.24 2505.847 986.348 2505.679 986.324 2505.367 986.3 2504.796 985.731 2503.968 984.615 2503.14 983.499 2502.715 982.76 2502.691 982.4 2502.667 981.992 2502.786 981.626 2503.05 981.302 2503.314 980.978 2503.615 980.781 2503.95 980.709 2505.198 980.709 2506.626 980.695 2508.234 980.672 L2508.234 978.584 C2507.178 978.584 2506.53 978.602 2506.29 978.638 2506.05 978.674 2505.763 978.777 2505.427 978.945 2505.091 979.113 2504.802 979.184 2504.562 979.16 2504.034 979.112 2503.416 978.619 2502.708 977.683 2502 976.747 2501.646 975.897 2501.646 975.129 2501.646 974.361 2502.065 973.892 2502.906 973.724 2503.169 973.676 2504.946 973.628 2508.234 973.58 L2508.234 972.537 C2508.234 972.393 2508.179 972.014 2508.072 971.402 2507.964 970.79 2507.909 970.305 2507.909 969.945 2507.909 969.009 2508.307 968.541 2509.099 968.541 2509.747 968.541 2510.513 968.684 2511.402 968.972 2512.385 969.284 2513.035 969.631 2513.347 970.015 2513.467 970.207 2513.527 971.371 2513.527 973.507 L2515.253 973.507 C2515.301 970.675 2515.417 969.134 2515.597 968.882 2515.777 968.63 2516.154 968.504 2516.73 968.504 2517.81 968.504 2519.093 968.877 2520.581 969.621 2520.821 969.741 2520.943 969.968 2520.943 970.304 2520.943 970.52 2520.864 970.862 2520.708 971.33 2520.552 971.798 2520.474 972.093 2520.474 972.213 L2520.474 973.472 C2521.29 973.448 2521.95 973.435 2522.454 973.435 2522.574 973.435 2522.875 973.351 2523.355 973.183 2523.835 973.015 2524.195 972.931 2524.435 972.931 2524.747 972.931 2524.961 973.053 2525.081 973.293 2525.825 974.757 2526.198 976.04 2526.198 977.144 2526.198 977.744 2526.055 978.153 2525.767 978.369 2525.575 978.513 2523.799 978.584 2520.439 978.584 2520.415 978.992 2520.402 979.579 2520.402 980.347 2523.065 980.347 2524.495 980.42 2524.687 980.564 2525.071 980.876 2525.418 981.523 2525.73 982.507 2526.018 983.395 2526.161 984.164 2526.161 984.812 2526.161 985.604 2525.695 986 2524.759 986 2524.423 986 2523.941 985.94 2523.318 985.82 2522.694 985.7 2522.309 985.64 2522.165 985.64 L2520.366 985.64 C2520.319 987.536 2520.246 989.589 2520.15 991.797 2520.006 992.54 2519.683 992.947 2519.179 993.019 2519.122 993.028 2519.06 993.034 2518.993 993.033 Z M2489.585 983.588 C2490.041 983.396 2491.351 983.06 2493.511 982.58 2493.199 981.068 2493.007 980.071 2492.935 979.591 2492.671 977.983 2492.49 976.315 2492.394 974.588 2491.914 975.763 2491.351 977.396 2490.702 979.484 2490.007 981.668 2489.633 983.036 2489.585 983.588 Z M2513.417 980.492 C2514.281 980.444 2514.906 980.42 2515.29 980.42 L2515.29 978.584 2513.49 978.584 C2513.49 978.992 2513.465 979.628 2513.417 980.492 Z"/>
  </defs>
  <use id="A#-1" xlink:href="#A#" fill="#c53923" fill-opacity="1" stroke="none"/>
  <use id="A#-2" xlink:href="#A#" fill="#be121e" fill-opacity="1" stroke="none"/>
  <g id="furos-baixo">
   <g id="furo-duplo">
    <defs>
     <path id="furo-grande" d="M2514.656 1520.725 C2514.656 1514.253 2509.41 1509.006 2502.938 1509.006 2496.465 1509.006 2491.219 1514.253 2491.219 1520.725 2491.219 1527.197 2496.465 1532.444 2502.938 1532.444 2509.41 1532.444 2514.656 1527.197 2514.656 1520.725 Z"/>
    </defs>
    <defs>
     <path id="stroke-path" d="M2506.609 1530.797 L2510.141 1528.641 2512.609 1525.344 2513.313 1523.391 2513.656 1520.734 2513.313 1518.063 2512.609 1516.125 2510.141 1512.828 2506.609 1510.672 2502.938 1510.031 2499.25 1510.672 2495.719 1512.828 2493.25 1516.125 2492.563 1518 2492.234 1520.734 2492.563 1523.469 2493.25 1525.344 2495.719 1528.641 2499.25 1530.797 2502.938 1531.438 Z"/>
    </defs>
    <use id="furo-grande-1" stroke="#000000" stroke-opacity="1" stroke-linecap="round" fill="none" stroke-width="2" xlink:href="#stroke-path"/>
    <defs>
     <path id="furo-menor" d="M2532.234 1520.725 C2532.234 1517.489 2529.611 1514.866 2526.375 1514.866 2523.139 1514.866 2520.516 1517.489 2520.516 1520.725 2520.516 1523.961 2523.139 1526.584 2526.375 1526.584 2529.611 1526.584 2532.234 1523.961 2532.234 1520.725 Z"/>
    </defs>
    <defs>
     <path id="stroke-path-1" d="M2528.484 1525.094 L2529.938 1524 2530.922 1522.375 2531.219 1520.734 2530.922 1519.094 2529.938 1517.469 2528.484 1516.375 2526.375 1515.891 2524.25 1516.375 2522.797 1517.469 2521.813 1519.078 2521.531 1520.734 2521.813 1522.391 2522.797 1524 2524.25 1525.094 2526.375 1525.578 Z"/>
    </defs>
    <use id="furo-menor-1" stroke="#000000" stroke-opacity="1" stroke-linecap="round" fill="none" stroke-width="2" xlink:href="#stroke-path-1"/>
   </g>
   <g id="furo-duplo-1">
    <defs>
     <path id="furo-grande-2" d="M2514.656 1462.131 C2514.656 1455.659 2509.41 1450.412 2502.938 1450.412 2496.465 1450.412 2491.219 1455.659 2491.219 1462.131 2491.219 1468.603 2496.465 1473.85 2502.938 1473.85 2509.41 1473.85 2514.656 1468.603 2514.656 1462.131 Z"/>
    </defs>
    <use id="furo-grande-3" xlink:href="#furo-grande-2" fill="#000000" fill-opacity="1" stroke="none"/>
    <defs>
     <path id="stroke-path-2" d="M2506.609 1472.203 L2510.141 1470.047 2512.609 1466.75 2513.313 1464.797 2513.656 1462.141 2513.313 1459.469 2512.609 1457.531 2510.141 1454.234 2506.609 1452.078 2502.938 1451.438 2499.25 1452.078 2495.719 1454.234 2493.25 1457.531 2492.563 1459.406 2492.234 1462.141 2492.563 1464.875 2493.25 1466.75 2495.719 1470.047 2499.25 1472.203 2502.938 1472.844 Z"/>
    </defs>
    <use id="furo-grande-4" stroke="#000000" stroke-opacity="1" stroke-linecap="round" fill="none" stroke-width="2" xlink:href="#stroke-path-2"/>
    <defs>
     <path id="furo-menor-2" d="M2532.234 1462.131 C2532.234 1458.895 2529.611 1456.272 2526.375 1456.272 2523.139 1456.272 2520.516 1458.895 2520.516 1462.131 2520.516 1465.367 2523.139 1467.991 2526.375 1467.991 2529.611 1467.991 2532.234 1465.367 2532.234 1462.131 Z"/>
    </defs>
    <use id="furo-menor-3" xlink:href="#furo-menor-2" fill="#000000" fill-opacity="1" stroke="none"/>
    <defs>
     <path id="stroke-path-3" d="M2528.484 1466.5 L2529.938 1465.406 2530.922 1463.781 2531.219 1462.141 2530.922 1460.5 2529.938 1458.875 2528.484 1457.781 2526.375 1457.297 2524.25 1457.781 2522.797 1458.875 2521.813 1460.484 2521.531 1462.141 2521.813 1463.797 2522.797 1465.406 2524.25 1466.5 2526.375 1466.984 Z"/>
    </defs>
    <use id="furo-menor-4" stroke="#000000" stroke-opacity="1" stroke-linecap="round" fill="none" stroke-width="2" xlink:href="#stroke-path-3"/>
   </g>
   <defs>
    <path id="furo" d="M2514.656 1403.537 C2514.656 1397.065 2509.41 1391.819 2502.938 1391.819 2496.465 1391.819 2491.219 1397.065 2491.219 1403.537 2491.219 1410.01 2496.465 1415.256 2502.938 1415.256 2509.41 1415.256 2514.656 1410.01 2514.656 1403.537 Z"/>
   </defs>
   <use id="furo-1" xlink:href="#furo" fill="#000000" fill-opacity="1" stroke="none"/>
   <defs>
    <path id="stroke-path-4" d="M2506.609 1413.609 L2510.141 1411.453 2512.609 1408.156 2513.313 1406.203 2513.656 1403.547 2513.313 1400.875 2512.609 1398.938 2510.141 1395.641 2506.609 1393.484 2502.938 1392.844 2499.25 1393.484 2495.719 1395.641 2493.25 1398.938 2492.563 1400.813 2492.234 1403.547 2492.563 1406.281 2493.25 1408.156 2495.719 1411.453 2499.25 1413.609 2502.938 1414.25 Z"/>
   </defs>
   <use id="furo-2" stroke="#000000" stroke-opacity="1" stroke-linecap="round" fill="none" stroke-width="2" xlink:href="#stroke-path-4"/>
   <defs>
    <path id="furo-3" d="M2514.656 1344.944 C2514.656 1338.472 2509.41 1333.225 2502.938 1333.225 2496.465 1333.225 2491.219 1338.472 2491.219 1344.944 2491.219 1351.416 2496.465 1356.662 2502.938 1356.662 2509.41 1356.662 2514.656 1351.416 2514.656 1344.944 Z"/>
   </defs>
   <use id="furo-4" xlink:href="#furo-3" fill="#000000" fill-opacity="1" stroke="none"/>
   <defs>
    <path id="stroke-path-5" d="M2506.609 1355.016 L2510.141 1352.859 2512.609 1349.563 2513.313 1347.609 2513.656 1344.953 2513.313 1342.281 2512.609 1340.344 2510.141 1337.047 2506.609 1334.891 2502.938 1334.25 2499.25 1334.891 2495.719 1337.047 2493.25 1340.344 2492.563 1342.219 2492.234 1344.953 2492.563 1347.688 2493.25 1349.563 2495.719 1352.859 2499.25 1355.016 2502.938 1355.656 Z"/>
   </defs>
   <use id="furo-5" stroke="#000000" stroke-opacity="1" stroke-linecap="round" fill="none" stroke-width="2" xlink:href="#stroke-path-5"/>
  </g>
  <g id="furos-cima">
   <defs>
    <path id="furo-3" d="M2514.656 1227.756 C2514.656 1221.284 2509.41 1216.037 2502.938 1216.037 2496.465 1216.037 2491.219 1221.284 2491.219 1227.756 2491.219 1234.228 2496.465 1239.475 2502.938 1239.475 2509.41 1239.475 2514.656 1234.228 2514.656 1227.756 Z"/>
   </defs>
   <defs>
    <path id="stroke-path-6" d="M2506.609 1237.828 L2510.141 1235.672 2512.609 1232.375 2513.313 1230.422 2513.656 1227.766 2513.313 1225.094 2512.609 1223.156 2510.141 1219.859 2506.609 1217.703 2502.938 1217.063 2499.25 1217.703 2495.719 1219.859 2493.25 1223.156 2492.563 1225.031 2492.234 1227.766 2492.563 1230.5 2493.25 1232.375 2495.719 1235.672 2499.25 1237.828 2502.938 1238.469 Z"/>
   </defs>
   <use id="furo-3-1" stroke="#000000" stroke-opacity="1" stroke-linecap="round" fill="none" stroke-width="2" xlink:href="#stroke-path-6"/>
   <defs>
    <path id="furo-2" d="M2514.656 1169.162 C2514.656 1162.69 2509.41 1157.444 2502.938 1157.444 2496.465 1157.444 2491.219 1162.69 2491.219 1169.162 2491.219 1175.635 2496.465 1180.881 2502.938 1180.881 2509.41 1180.881 2514.656 1175.635 2514.656 1169.162 Z"/>
   </defs>
   <use id="furo-2-1" xlink:href="#furo-2" fill="#000000" fill-opacity="1" stroke="none"/>
   <defs>
    <path id="stroke-path-7" d="M2506.609 1179.234 L2510.141 1177.078 2512.609 1173.781 2513.313 1171.828 2513.656 1169.172 2513.313 1166.5 2512.609 1164.563 2510.141 1161.266 2506.609 1159.109 2502.938 1158.469 2499.25 1159.109 2495.719 1161.266 2493.25 1164.563 2492.563 1166.438 2492.234 1169.172 2492.563 1171.906 2493.25 1173.781 2495.719 1177.078 2499.25 1179.234 2502.938 1179.875 Z"/>
   </defs>
   <use id="furo-2-2" stroke="#000000" stroke-opacity="1" stroke-linecap="round" fill="none" stroke-width="2" xlink:href="#stroke-path-7"/>
   <path id="furo-1" d="M2514.656 1110.569 C2514.656 1104.097 2509.41 1098.85 2502.938 1098.85 2496.465 1098.85 2491.219 1104.097 2491.219 1110.569 2491.219 1117.041 2496.465 1122.287 2502.938 1122.287 2509.41 1122.287 2514.656 1117.041 2514.656 1110.569 Z" fill="#000000" fill-opacity="1" stroke="none"/>
   <g id="furo-traseiro">
    <defs>
     <path id="furo-tras-base" d="M2456.063 1110.569 C2456.063 1104.097 2450.816 1098.85 2444.344 1098.85 2437.872 1098.85 2432.625 1104.097 2432.625 1110.569 2432.625 1117.041 2437.872 1122.287 2444.344 1122.287 2450.816 1122.287 2456.063 1117.041 2456.063 1110.569 Z"/>
    </defs>
    <defs>
     <path id="stroke-path-8" d="M2448.016 1120.641 L2451.547 1118.484 2454.016 1115.188 2454.719 1113.234 2455.063 1110.578 2454.719 1107.906 2454.016 1105.969 2451.547 1102.672 2448.016 1100.516 2444.344 1099.875 2440.656 1100.516 2437.125 1102.672 2434.656 1105.969 2433.969 1107.844 2433.641 1110.578 2433.969 1113.313 2434.656 1115.188 2437.125 1118.484 2440.656 1120.641 2444.344 1121.281 Z"/>
    </defs>
    <use id="furo-tras-base-1" stroke="#000000" stroke-opacity="1" stroke-linecap="round" fill="none" stroke-width="2" xlink:href="#stroke-path-8"/>
    <path id="Retângulo" d="M2444.344 1122.287 C2437.872 1122.287 2432.625 1117.041 2432.625 1110.569 L2456.063 1110.569 C2456.063 1117.041 2450.816 1122.287 2444.344 1122.287 Z" fill="#000000" fill-opacity="1" stroke="none"/>
    <path id="furo-tras-copiar" d="M2432.625 1110.569 C2432.625 1104.097 2437.872 1098.85 2444.344 1098.85 2450.816 1098.85 2456.063 1104.097 2456.063 1110.569 L2432.625 1110.569 Z" fill="none" stroke="none"/>
   </g>
  </g>
 </g>
</svg>
