<?xml version="1.0" encoding="UTF-8"?>
<svg width="111px" height="646px" viewBox="2665 963 111 646" xmlns="http://www.w3.org/2000/svg" xmlns:xlink="http://www.w3.org/1999/xlink" version="1.1">
 <!-- Generated by Pixelmator Pro 2.3.3 -->
 <g id="flauta-nota-B">
  <path id="corpo-da-flauta" d="M2735.938 1022.678 C2714.364 1022.678 2696.875 1040.167 2696.875 1061.741 L2696.875 1569.553 C2696.875 1591.127 2714.364 1608.616 2735.938 1608.616 L2735.938 1608.616 C2757.511 1608.616 2775 1591.127 2775 1569.553 L2775 1061.741 C2775 1040.167 2757.511 1022.678 2735.938 1022.678 Z" fill="#fce5cd" fill-opacity="1" stroke="none"/>
  <defs>
   <path id="B" d="M2745.572 982.04 C2745.62 982.4 2745.644 982.76 2745.644 983.12 2745.644 985.112 2744.792 987.26 2743.088 989.564 2741.72 991.412 2740.04 993.068 2738.048 994.532 2736.224 995.852 2734.988 996.464 2734.34 996.368 2733.62 996.272 2732.348 995.738 2730.524 994.766 2728.7 993.794 2727.716 993.128 2727.572 992.768 2727.524 992.672 2727.5 992.564 2727.5 992.444 2727.5 992.3 2727.542 992.114 2727.626 991.886 2727.71 991.658 2727.752 991.484 2727.752 991.364 L2727.752 968.036 C2727.752 967.652 2728.28 967.46 2729.336 967.46 2729.816 967.46 2730.236 967.508 2730.596 967.604 2731.724 966.884 2733.146 966.242 2734.862 965.678 2736.578 965.114 2738.048 964.832 2739.272 964.832 2739.992 964.832 2740.55 964.934 2740.946 965.138 2741.342 965.342 2741.708 965.696 2742.044 966.2 2742.476 966.896 2742.776 967.328 2742.944 967.496 2742.992 967.544 2743.388 967.868 2744.132 968.468 2744.564 968.828 2744.84 969.212 2744.96 969.62 2745.056 969.908 2745.104 970.22 2745.104 970.556 2745.104 972.452 2743.844 974.516 2741.324 976.748 2743.892 978.692 2745.308 980.456 2745.572 982.04 Z M2739.272 970.34 C2739.224 970.244 2739.092 970.196 2738.876 970.196 2738.324 970.196 2737.46 970.484 2736.284 971.06 2735.108 971.636 2734.316 972.188 2733.908 972.716 L2733.908 976.46 C2735.444 975.236 2736.77 973.988 2737.886 972.716 2739.002 971.444 2739.464 970.652 2739.272 970.34 Z M2740.568 980.996 C2739.944 981.02 2738.888 981.32 2737.4 981.896 2735.792 982.544 2734.628 983.18 2733.908 983.804 L2733.908 990.5 C2735.468 990.068 2737.004 988.748 2738.516 986.54 2740.028 984.332 2740.712 982.484 2740.568 980.996 Z"/>
  </defs>
  <use id="B-1" xlink:href="#B" fill="#c53923" fill-opacity="1" stroke="none"/>
  <use id="B-2" xlink:href="#B" fill="#be121e" fill-opacity="1" stroke="none"/>
  <g id="furos-baixo">
   <g id="furo-duplo">
    <defs>
     <path id="furo-grande" d="M2747.656 1520.725 C2747.656 1514.253 2742.41 1509.006 2735.938 1509.006 2729.465 1509.006 2724.219 1514.253 2724.219 1520.725 2724.219 1527.197 2729.465 1532.444 2735.938 1532.444 2742.41 1532.444 2747.656 1527.197 2747.656 1520.725 Z"/>
    </defs>
    <defs>
     <path id="stroke-path" d="M2739.609 1530.797 L2743.141 1528.641 2745.609 1525.344 2746.313 1523.391 2746.656 1520.734 2746.313 1518.063 2745.609 1516.125 2743.141 1512.828 2739.609 1510.672 2735.938 1510.031 2732.25 1510.672 2728.719 1512.828 2726.25 1516.125 2725.563 1518 2725.234 1520.734 2725.563 1523.469 2726.25 1525.344 2728.719 1528.641 2732.25 1530.797 2735.938 1531.438 Z"/>
    </defs>
    <use id="furo-grande-1" stroke="#000000" stroke-opacity="1" stroke-linecap="round" fill="none" stroke-width="2" xlink:href="#stroke-path"/>
    <defs>
     <path id="furo-menor" d="M2765.234 1520.725 C2765.234 1517.489 2762.611 1514.866 2759.375 1514.866 2756.139 1514.866 2753.516 1517.489 2753.516 1520.725 2753.516 1523.961 2756.139 1526.584 2759.375 1526.584 2762.611 1526.584 2765.234 1523.961 2765.234 1520.725 Z"/>
    </defs>
    <defs>
     <path id="stroke-path-1" d="M2761.484 1525.094 L2762.938 1524 2763.922 1522.375 2764.219 1520.734 2763.922 1519.094 2762.938 1517.469 2761.484 1516.375 2759.375 1515.891 2757.25 1516.375 2755.797 1517.469 2754.813 1519.078 2754.531 1520.734 2754.813 1522.391 2755.797 1524 2757.25 1525.094 2759.375 1525.578 Z"/>
    </defs>
    <use id="furo-menor-1" stroke="#000000" stroke-opacity="1" stroke-linecap="round" fill="none" stroke-width="2" xlink:href="#stroke-path-1"/>
   </g>
   <g id="furo-duplo-1">
    <defs>
     <path id="furo-grande-2" d="M2747.656 1462.131 C2747.656 1455.659 2742.41 1450.412 2735.938 1450.412 2729.465 1450.412 2724.219 1455.659 2724.219 1462.131 2724.219 1468.603 2729.465 1473.85 2735.938 1473.85 2742.41 1473.85 2747.656 1468.603 2747.656 1462.131 Z"/>
    </defs>
    <defs>
     <path id="stroke-path-2" d="M2739.609 1472.203 L2743.141 1470.047 2745.609 1466.75 2746.313 1464.797 2746.656 1462.141 2746.313 1459.469 2745.609 1457.531 2743.141 1454.234 2739.609 1452.078 2735.938 1451.438 2732.25 1452.078 2728.719 1454.234 2726.25 1457.531 2725.563 1459.406 2725.234 1462.141 2725.563 1464.875 2726.25 1466.75 2728.719 1470.047 2732.25 1472.203 2735.938 1472.844 Z"/>
    </defs>
    <use id="furo-grande-3" stroke="#000000" stroke-opacity="1" stroke-linecap="round" fill="none" stroke-width="2" xlink:href="#stroke-path-2"/>
    <defs>
     <path id="furo-menor-2" d="M2765.234 1462.131 C2765.234 1458.895 2762.611 1456.272 2759.375 1456.272 2756.139 1456.272 2753.516 1458.895 2753.516 1462.131 2753.516 1465.367 2756.139 1467.991 2759.375 1467.991 2762.611 1467.991 2765.234 1465.367 2765.234 1462.131 Z"/>
    </defs>
    <defs>
     <path id="stroke-path-3" d="M2761.484 1466.5 L2762.938 1465.406 2763.922 1463.781 2764.219 1462.141 2763.922 1460.5 2762.938 1458.875 2761.484 1457.781 2759.375 1457.297 2757.25 1457.781 2755.797 1458.875 2754.813 1460.484 2754.531 1462.141 2754.813 1463.797 2755.797 1465.406 2757.25 1466.5 2759.375 1466.984 Z"/>
    </defs>
    <use id="furo-menor-3" stroke="#000000" stroke-opacity="1" stroke-linecap="round" fill="none" stroke-width="2" xlink:href="#stroke-path-3"/>
   </g>
   <defs>
    <path id="furo" d="M2747.656 1403.537 C2747.656 1397.065 2742.41 1391.819 2735.938 1391.819 2729.465 1391.819 2724.219 1397.065 2724.219 1403.537 2724.219 1410.01 2729.465 1415.256 2735.938 1415.256 2742.41 1415.256 2747.656 1410.01 2747.656 1403.537 Z"/>
   </defs>
   <use id="furo-1" xlink:href="#furo" fill="#000000" fill-opacity="1" stroke="none"/>
   <defs>
    <path id="stroke-path-4" d="M2739.609 1413.609 L2743.141 1411.453 2745.609 1408.156 2746.313 1406.203 2746.656 1403.547 2746.313 1400.875 2745.609 1398.938 2743.141 1395.641 2739.609 1393.484 2735.938 1392.844 2732.25 1393.484 2728.719 1395.641 2726.25 1398.938 2725.563 1400.813 2725.234 1403.547 2725.563 1406.281 2726.25 1408.156 2728.719 1411.453 2732.25 1413.609 2735.938 1414.25 Z"/>
   </defs>
   <use id="furo-2" stroke="#000000" stroke-opacity="1" stroke-linecap="round" fill="none" stroke-width="2" xlink:href="#stroke-path-4"/>
   <defs>
    <path id="furo-3" d="M2747.656 1344.944 C2747.656 1338.472 2742.41 1333.225 2735.938 1333.225 2729.465 1333.225 2724.219 1338.472 2724.219 1344.944 2724.219 1351.416 2729.465 1356.662 2735.938 1356.662 2742.41 1356.662 2747.656 1351.416 2747.656 1344.944 Z"/>
   </defs>
   <use id="furo-4" xlink:href="#furo-3" fill="#000000" fill-opacity="1" stroke="none"/>
   <defs>
    <path id="stroke-path-5" d="M2739.609 1355.016 L2743.141 1352.859 2745.609 1349.563 2746.313 1347.609 2746.656 1344.953 2746.313 1342.281 2745.609 1340.344 2743.141 1337.047 2739.609 1334.891 2735.938 1334.25 2732.25 1334.891 2728.719 1337.047 2726.25 1340.344 2725.563 1342.219 2725.234 1344.953 2725.563 1347.688 2726.25 1349.563 2728.719 1352.859 2732.25 1355.016 2735.938 1355.656 Z"/>
   </defs>
   <use id="furo-5" stroke="#000000" stroke-opacity="1" stroke-linecap="round" fill="none" stroke-width="2" xlink:href="#stroke-path-5"/>
  </g>
  <g id="furos-cima">
   <defs>
    <path id="furo-3" d="M2747.656 1227.756 C2747.656 1221.284 2742.41 1216.037 2735.938 1216.037 2729.465 1216.037 2724.219 1221.284 2724.219 1227.756 2724.219 1234.228 2729.465 1239.475 2735.938 1239.475 2742.41 1239.475 2747.656 1234.228 2747.656 1227.756 Z"/>
   </defs>
   <defs>
    <path id="stroke-path-6" d="M2739.609 1237.828 L2743.141 1235.672 2745.609 1232.375 2746.313 1230.422 2746.656 1227.766 2746.313 1225.094 2745.609 1223.156 2743.141 1219.859 2739.609 1217.703 2735.938 1217.063 2732.25 1217.703 2728.719 1219.859 2726.25 1223.156 2725.563 1225.031 2725.234 1227.766 2725.563 1230.5 2726.25 1232.375 2728.719 1235.672 2732.25 1237.828 2735.938 1238.469 Z"/>
   </defs>
   <use id="furo-3-1" stroke="#000000" stroke-opacity="1" stroke-linecap="round" fill="none" stroke-width="2" xlink:href="#stroke-path-6"/>
   <defs>
    <path id="furo-2" d="M2747.656 1169.162 C2747.656 1162.69 2742.41 1157.444 2735.938 1157.444 2729.465 1157.444 2724.219 1162.69 2724.219 1169.162 2724.219 1175.635 2729.465 1180.881 2735.938 1180.881 2742.41 1180.881 2747.656 1175.635 2747.656 1169.162 Z"/>
   </defs>
   <use id="furo-2-1" xlink:href="#furo-2" fill="#000000" fill-opacity="1" stroke="none"/>
   <defs>
    <path id="stroke-path-7" d="M2739.609 1179.234 L2743.141 1177.078 2745.609 1173.781 2746.313 1171.828 2746.656 1169.172 2746.313 1166.5 2745.609 1164.563 2743.141 1161.266 2739.609 1159.109 2735.938 1158.469 2732.25 1159.109 2728.719 1161.266 2726.25 1164.563 2725.563 1166.438 2725.234 1169.172 2725.563 1171.906 2726.25 1173.781 2728.719 1177.078 2732.25 1179.234 2735.938 1179.875 Z"/>
   </defs>
   <use id="furo-2-2" stroke="#000000" stroke-opacity="1" stroke-linecap="round" fill="none" stroke-width="2" xlink:href="#stroke-path-7"/>
   <path id="furo-1" d="M2747.656 1110.569 C2747.656 1104.097 2742.41 1098.85 2735.938 1098.85 2729.465 1098.85 2724.219 1104.097 2724.219 1110.569 2724.219 1117.041 2729.465 1122.287 2735.938 1122.287 2742.41 1122.287 2747.656 1117.041 2747.656 1110.569 Z" fill="#000000" fill-opacity="1" stroke="none"/>
   <g id="furo-traseiro">
    <defs>
     <path id="furo-tras-base" d="M2689.063 1110.569 C2689.063 1104.097 2683.816 1098.85 2677.344 1098.85 2670.872 1098.85 2665.625 1104.097 2665.625 1110.569 2665.625 1117.041 2670.872 1122.287 2677.344 1122.287 2683.816 1122.287 2689.063 1117.041 2689.063 1110.569 Z"/>
    </defs>
    <defs>
     <path id="stroke-path-8" d="M2681.016 1120.641 L2684.547 1118.484 2687.016 1115.188 2687.719 1113.234 2688.063 1110.578 2687.719 1107.906 2687.016 1105.969 2684.547 1102.672 2681.016 1100.516 2677.344 1099.875 2673.656 1100.516 2670.125 1102.672 2667.656 1105.969 2666.969 1107.844 2666.641 1110.578 2666.969 1113.313 2667.656 1115.188 2670.125 1118.484 2673.656 1120.641 2677.344 1121.281 Z"/>
    </defs>
    <use id="furo-tras-base-1" stroke="#000000" stroke-opacity="1" stroke-linecap="round" fill="none" stroke-width="2" xlink:href="#stroke-path-8"/>
    <path id="Retângulo" d="M2677.344 1122.287 C2670.872 1122.287 2665.625 1117.041 2665.625 1110.569 L2689.063 1110.569 C2689.063 1117.041 2683.816 1122.287 2677.344 1122.287 Z" fill="#000000" fill-opacity="1" stroke="none"/>
    <path id="furo-tras-copiar" d="M2665.625 1110.569 C2665.625 1104.097 2670.872 1098.85 2677.344 1098.85 2683.816 1098.85 2689.063 1104.097 2689.063 1110.569 L2665.625 1110.569 Z" fill="none" stroke="none"/>
   </g>
  </g>
 </g>
</svg>
