<?xml version="1.0" encoding="UTF-8"?>
<svg width="111px" height="645px" viewBox="1969 964 111 645" xmlns="http://www.w3.org/2000/svg" xmlns:xlink="http://www.w3.org/1999/xlink" version="1.1">
 <!-- Generated by Pixelmator Pro 2.3.3 -->
 <g id="flauta-nota-G#">
  <path id="corpo-da-flauta" d="M2039.938 1022.678 C2018.364 1022.678 2000.875 1040.167 2000.875 1061.741 L2000.875 1569.553 C2000.875 1591.127 2018.364 1608.616 2039.938 1608.616 L2039.938 1608.616 C2061.511 1608.616 2079 1591.127 2079 1569.553 L2079 1061.741 C2079 1040.167 2061.511 1022.678 2039.938 1022.678 Z" fill="#fce5cd" fill-opacity="1" stroke="none"/>
  <defs>
   <path id="G#" d="M2061.812 986 C2061.476 986 2060.996 985.94 2060.372 985.82 2059.748 985.7 2059.364 985.64 2059.22 985.64 L2057.42 985.64 C2057.372 987.536 2057.3 989.588 2057.204 991.796 2057.06 992.54 2056.736 992.948 2056.232 993.02 2055.776 993.092 2055.014 992.846 2053.946 992.282 2052.878 991.718 2052.236 991.292 2052.02 991.004 2051.876 990.788 2051.804 990.548 2051.804 990.284 2051.804 990.02 2051.882 989.678 2052.038 989.258 2052.194 988.838 2052.272 988.568 2052.272 988.448 2052.296 988.112 2052.332 987.176 2052.38 985.64 L2050.328 985.64 C2050.304 987.296 2050.28 989 2050.256 990.752 2050.184 991.088 2049.98 991.388 2049.644 991.652 2049.308 991.916 2048.936 992.036 2048.528 992.012 2048.216 991.988 2047.496 991.562 2046.368 990.734 2045.24 989.906 2044.664 989.336 2044.64 989.024 2044.616 988.76 2044.712 988.46 2044.928 988.124 2045.144 987.788 2045.264 987.512 2045.288 987.296 L2045.288 985.64 C2044.688 985.64 2044.154 985.76 2043.686 986 2043.218 986.24 2042.9 986.348 2042.732 986.324 2042.42 986.3 2041.85 985.73 2041.022 984.614 2040.194 983.498 2039.768 982.76 2039.744 982.4 2039.72 981.992 2039.84 981.626 2040.104 981.302 2040.368 980.978 2040.668 980.78 2041.004 980.708 2042.252 980.708 2043.68 980.696 2045.288 980.672 L2045.288 978.584 C2044.232 978.584 2043.584 978.602 2043.344 978.638 2043.104 978.674 2042.816 978.776 2042.48 978.944 2042.144 979.112 2041.856 979.184 2041.616 979.16 2041.088 979.112 2040.47 978.62 2039.762 977.684 2039.054 976.748 2038.7 975.896 2038.7 975.128 2038.7 974.36 2039.12 973.892 2039.96 973.724 2040.224 973.676 2042 973.628 2045.288 973.58 L2045.288 972.536 C2045.288 972.392 2045.234 972.014 2045.126 971.402 2045.018 970.79 2044.964 970.304 2044.964 969.944 2044.964 969.008 2045.36 968.54 2046.152 968.54 2046.8 968.54 2047.568 968.684 2048.456 968.972 2049.44 969.284 2050.088 969.632 2050.4 970.016 2050.52 970.208 2050.58 971.372 2050.58 973.508 L2052.308 973.508 C2052.356 970.676 2052.47 969.134 2052.65 968.882 2052.83 968.63 2053.208 968.504 2053.784 968.504 2054.864 968.504 2056.148 968.876 2057.636 969.62 2057.876 969.74 2057.996 969.968 2057.996 970.304 2057.996 970.52 2057.918 970.862 2057.762 971.33 2057.606 971.798 2057.528 972.092 2057.528 972.212 L2057.528 973.472 C2058.344 973.448 2059.004 973.436 2059.508 973.436 2059.628 973.436 2059.928 973.352 2060.408 973.184 2060.888 973.016 2061.248 972.932 2061.488 972.932 2061.8 972.932 2062.016 973.052 2062.136 973.292 2062.88 974.756 2063.252 976.04 2063.252 977.144 2063.252 977.744 2063.108 978.152 2062.82 978.368 2062.628 978.512 2060.852 978.584 2057.492 978.584 2057.468 978.992 2057.456 979.58 2057.456 980.348 2060.12 980.348 2061.548 980.42 2061.74 980.564 2062.124 980.876 2062.472 981.524 2062.784 982.508 2063.072 983.396 2063.216 984.164 2063.216 984.812 2063.216 985.604 2062.748 986 2061.812 986 Z M2052.344 980.42 L2052.344 978.584 2050.544 978.584 C2050.544 978.992 2050.52 979.628 2050.472 980.492 2051.336 980.444 2051.96 980.42 2052.344 980.42 Z M2037.548 982.724 C2037.476 983.684 2037.056 984.296 2036.288 984.56 2036.144 984.584 2035.976 984.542 2035.784 984.434 2035.592 984.326 2035.436 984.272 2035.316 984.272 2035.172 984.272 2035.016 984.308 2034.848 984.38 2033.912 987.956 2033.18 990.356 2032.652 991.58 2031.692 993.86 2030.444 995.348 2028.908 996.044 2028.5 996.236 2028.08 996.332 2027.648 996.332 2027.216 996.332 2026.148 996.02 2024.444 995.396 2023.796 995.228 2022.776 994.88 2021.384 994.352 2019.992 993.68 2018.912 992.132 2018.144 989.708 2017.448 987.5 2017.1 984.872 2017.1 981.824 2017.1 977.864 2017.652 974.336 2018.756 971.24 2019.956 967.856 2021.54 965.96 2023.508 965.552 2023.676 965.528 2023.868 965.516 2024.084 965.516 2025.284 965.516 2026.748 965.9 2028.476 966.668 2030.324 967.484 2031.572 968.384 2032.22 969.368 2032.748 970.16 2033.096 971.168 2033.264 972.392 2033.48 973.784 2033.612 974.54 2033.66 974.66 2033.732 975.068 2033.828 975.56 2033.948 976.136 2033.972 976.448 2033.852 976.814 2033.588 977.234 2033.324 977.654 2033.072 977.912 2032.832 978.008 2032.52 978.128 2031.584 977.954 2030.024 977.486 2028.464 977.018 2027.528 976.652 2027.216 976.388 2026.784 976.1 2026.604 975.536 2026.676 974.696 2026.676 974.576 2026.736 974.426 2026.856 974.246 2026.976 974.066 2027.036 973.904 2027.036 973.76 2027.036 972.056 2026.844 971.204 2026.46 971.204 2025.644 971.18 2024.924 972.548 2024.3 975.308 2023.724 977.9 2023.436 980.732 2023.436 983.804 2023.436 988.364 2024.072 990.98 2025.344 991.652 2025.728 991.844 2026.25 991.184 2026.91 989.672 2027.57 988.16 2027.96 986.744 2028.08 985.424 2027.696 985.136 2026.964 984.764 2025.884 984.308 2025.02 983.948 2024.552 983.636 2024.48 983.372 2024.384 983.012 2024.504 982.502 2024.84 981.842 2025.176 981.182 2025.53 980.756 2025.902 980.564 2026.274 980.372 2026.796 980.264 2027.468 980.24 2028.38 980.24 2028.932 980.216 2029.124 980.168 2029.532 980.096 2030.192 979.892 2031.104 979.556 2031.848 979.268 2032.412 979.124 2032.796 979.124 2032.94 979.124 2033.072 979.136 2033.192 979.16 2033.792 979.28 2034.674 979.82 2035.838 980.78 2037.002 981.74 2037.572 982.388 2037.548 982.724 Z"/>
  </defs>
  <use id="G#-1" xlink:href="#G#" fill="#c53923" fill-opacity="1" stroke="none"/>
  <use id="G#-2" xlink:href="#G#" fill="#be121e" fill-opacity="1" stroke="none"/>
  <g id="furos-baixo">
   <g id="furo-duplo">
    <defs>
     <path id="furo-grande" d="M2051.656 1520.725 C2051.656 1514.253 2046.41 1509.006 2039.938 1509.006 2033.465 1509.006 2028.219 1514.253 2028.219 1520.725 2028.219 1527.197 2033.465 1532.444 2039.938 1532.444 2046.41 1532.444 2051.656 1527.197 2051.656 1520.725 Z"/>
    </defs>
    <defs>
     <path id="stroke-path" d="M2042.656 1531.109 L2044.547 1530.406 2047.844 1527.938 2049.984 1524.406 2050.641 1520.734 2049.984 1517.063 2047.844 1513.516 2044.547 1511.063 2042.656 1510.359 2039.938 1510.031 2037.203 1510.359 2035.313 1511.063 2032.016 1513.516 2029.875 1517.063 2029.234 1520.734 2029.875 1524.406 2032.016 1527.938 2035.313 1530.406 2037.203 1531.109 2039.938 1531.438 Z"/>
    </defs>
    <use id="furo-grande-1" stroke="#000000" stroke-opacity="1" stroke-linecap="round" fill="none" stroke-width="2" xlink:href="#stroke-path"/>
    <defs>
     <path id="furo-menor" d="M2069.234 1520.725 C2069.234 1517.489 2066.611 1514.866 2063.375 1514.866 2060.139 1514.866 2057.516 1517.489 2057.516 1520.725 2057.516 1523.961 2060.139 1526.584 2063.375 1526.584 2066.611 1526.584 2069.234 1523.961 2069.234 1520.725 Z"/>
    </defs>
    <defs>
     <path id="stroke-path-1" d="M2065.484 1525.094 L2066.938 1524 2067.922 1522.375 2068.219 1520.734 2067.922 1519.094 2066.938 1517.469 2065.484 1516.375 2063.375 1515.891 2061.25 1516.375 2059.797 1517.469 2058.813 1519.078 2058.531 1520.734 2058.813 1522.391 2059.797 1524 2061.25 1525.094 2063.375 1525.578 Z"/>
    </defs>
    <use id="furo-menor-1" stroke="#000000" stroke-opacity="1" stroke-linecap="round" fill="none" stroke-width="2" xlink:href="#stroke-path-1"/>
   </g>
   <g id="furo-duplo-1">
    <defs>
     <path id="furo-grande-2" d="M2051.656 1462.131 C2051.656 1455.659 2046.41 1450.412 2039.938 1450.412 2033.465 1450.412 2028.219 1455.659 2028.219 1462.131 2028.219 1468.603 2033.465 1473.85 2039.938 1473.85 2046.41 1473.85 2051.656 1468.603 2051.656 1462.131 Z"/>
    </defs>
    <defs>
     <path id="stroke-path-2" d="M2042.656 1472.516 L2044.547 1471.813 2047.844 1469.344 2049.984 1465.813 2050.641 1462.141 2049.984 1458.469 2047.844 1454.922 2044.547 1452.469 2042.656 1451.766 2039.938 1451.438 2037.203 1451.766 2035.313 1452.469 2032.016 1454.922 2029.875 1458.469 2029.234 1462.141 2029.875 1465.813 2032.016 1469.344 2035.313 1471.813 2037.203 1472.516 2039.938 1472.844 Z"/>
    </defs>
    <use id="furo-grande-3" stroke="#000000" stroke-opacity="1" stroke-linecap="round" fill="none" stroke-width="2" xlink:href="#stroke-path-2"/>
    <defs>
     <path id="furo-menor-2" d="M2069.234 1462.131 C2069.234 1458.895 2066.611 1456.272 2063.375 1456.272 2060.139 1456.272 2057.516 1458.895 2057.516 1462.131 2057.516 1465.367 2060.139 1467.991 2063.375 1467.991 2066.611 1467.991 2069.234 1465.367 2069.234 1462.131 Z"/>
    </defs>
    <defs>
     <path id="stroke-path-3" d="M2065.484 1466.5 L2066.938 1465.406 2067.922 1463.781 2068.219 1462.141 2067.922 1460.5 2066.938 1458.875 2065.484 1457.781 2063.375 1457.297 2061.25 1457.781 2059.797 1458.875 2058.813 1460.484 2058.531 1462.141 2058.813 1463.797 2059.797 1465.406 2061.25 1466.5 2063.375 1466.984 Z"/>
    </defs>
    <use id="furo-menor-3" stroke="#000000" stroke-opacity="1" stroke-linecap="round" fill="none" stroke-width="2" xlink:href="#stroke-path-3"/>
   </g>
   <defs>
    <path id="furo" d="M2051.656 1403.537 C2051.656 1397.065 2046.41 1391.819 2039.938 1391.819 2033.465 1391.819 2028.219 1397.065 2028.219 1403.537 2028.219 1410.01 2033.465 1415.256 2039.938 1415.256 2046.41 1415.256 2051.656 1410.01 2051.656 1403.537 Z"/>
   </defs>
   <defs>
    <path id="stroke-path-4" d="M2042.656 1413.922 L2044.547 1413.219 2047.844 1410.75 2049.984 1407.219 2050.641 1403.547 2049.984 1399.875 2047.844 1396.328 2044.547 1393.875 2042.656 1393.172 2039.938 1392.844 2037.203 1393.172 2035.313 1393.875 2032.016 1396.328 2029.875 1399.875 2029.234 1403.547 2029.875 1407.219 2032.016 1410.75 2035.313 1413.219 2037.203 1413.922 2039.938 1414.25 Z"/>
   </defs>
   <use id="furo-1" stroke="#000000" stroke-opacity="1" stroke-linecap="round" fill="none" stroke-width="2" xlink:href="#stroke-path-4"/>
   <defs>
    <path id="furo-2" d="M2051.656 1344.944 C2051.656 1338.472 2046.41 1333.225 2039.938 1333.225 2033.465 1333.225 2028.219 1338.472 2028.219 1344.944 2028.219 1351.416 2033.465 1356.662 2039.938 1356.662 2046.41 1356.662 2051.656 1351.416 2051.656 1344.944 Z"/>
   </defs>
   <use id="furo-3" xlink:href="#furo-2" fill="#000000" fill-opacity="1" stroke="none"/>
   <defs>
    <path id="stroke-path-5" d="M2042.656 1355.328 L2044.547 1354.625 2047.844 1352.156 2049.984 1348.625 2050.641 1344.953 2049.984 1341.281 2047.844 1337.734 2044.547 1335.281 2042.656 1334.578 2039.938 1334.25 2037.203 1334.578 2035.313 1335.281 2032.016 1337.734 2029.875 1341.281 2029.234 1344.953 2029.875 1348.625 2032.016 1352.156 2035.313 1354.625 2037.203 1355.328 2039.938 1355.656 Z"/>
   </defs>
   <use id="furo-4" stroke="#000000" stroke-opacity="1" stroke-linecap="round" fill="none" stroke-width="2" xlink:href="#stroke-path-5"/>
  </g>
  <g id="furos-cima">
   <defs>
    <path id="furo-3" d="M2051.656 1227.756 C2051.656 1221.284 2046.41 1216.037 2039.938 1216.037 2033.465 1216.037 2028.219 1221.284 2028.219 1227.756 2028.219 1234.228 2033.465 1239.475 2039.938 1239.475 2046.41 1239.475 2051.656 1234.228 2051.656 1227.756 Z"/>
   </defs>
   <defs>
    <path id="stroke-path-6" d="M2043.609 1237.828 L2047.141 1235.672 2049.609 1232.375 2050.313 1230.422 2050.656 1227.813 2049.984 1224.094 2047.844 1220.547 2044.547 1218.094 2042.656 1217.391 2039.938 1217.063 2036.25 1217.703 2032.719 1219.859 2030.25 1223.156 2029.563 1225.031 2029.234 1227.766 2029.875 1231.438 2032.016 1234.969 2035.313 1237.438 2037.203 1238.141 2039.938 1238.469 Z"/>
   </defs>
   <use id="furo-3-1" stroke="#000000" stroke-opacity="1" stroke-linecap="round" fill="none" stroke-width="2" xlink:href="#stroke-path-6"/>
   <path id="furo-2" d="M2051.656 1169.162 C2051.656 1162.69 2046.41 1157.444 2039.938 1157.444 2033.465 1157.444 2028.219 1162.69 2028.219 1169.162 2028.219 1175.635 2033.465 1180.881 2039.938 1180.881 2046.41 1180.881 2051.656 1175.635 2051.656 1169.162 Z" fill="#000000" fill-opacity="1" stroke="none"/>
   <path id="furo-1" d="M2051.656 1110.569 C2051.656 1104.097 2046.41 1098.85 2039.938 1098.85 2033.465 1098.85 2028.219 1104.097 2028.219 1110.569 2028.219 1117.041 2033.465 1122.287 2039.938 1122.287 2046.41 1122.287 2051.656 1117.041 2051.656 1110.569 Z" fill="#000000" fill-opacity="1" stroke="none"/>
   <g id="furo-traseiro">
    <defs>
     <path id="furo-tras-base" d="M1993.063 1110.569 C1993.063 1104.097 1987.816 1098.85 1981.344 1098.85 1974.872 1098.85 1969.625 1104.097 1969.625 1110.569 1969.625 1117.041 1974.872 1122.287 1981.344 1122.287 1987.816 1122.287 1993.063 1117.041 1993.063 1110.569 Z"/>
    </defs>
    <defs>
     <path id="stroke-path-7" d="M1985.016 1120.641 L1988.547 1118.484 1991.016 1115.188 1991.719 1113.234 1992.063 1110.625 1991.391 1106.906 1989.25 1103.359 1985.953 1100.906 1984.063 1100.203 1981.344 1099.875 1977.656 1100.516 1974.125 1102.672 1971.656 1105.969 1970.969 1107.844 1970.641 1110.578 1971.281 1114.25 1973.422 1117.781 1976.719 1120.25 1978.609 1120.953 1981.344 1121.281 Z"/>
    </defs>
    <use id="furo-tras-base-1" stroke="#000000" stroke-opacity="1" stroke-linecap="round" fill="none" stroke-width="2" xlink:href="#stroke-path-7"/>
    <path id="Retângulo" d="M1981.344 1122.287 C1974.872 1122.287 1969.625 1117.041 1969.625 1110.569 L1993.063 1110.569 C1993.063 1117.041 1987.816 1122.287 1981.344 1122.287 Z" fill="#000000" fill-opacity="1" stroke="none"/>
    <path id="furo-tras-copiar" d="M1969.625 1110.569 C1969.625 1104.097 1974.872 1098.85 1981.344 1098.85 1987.816 1098.85 1993.063 1104.097 1993.063 1110.569 L1969.625 1110.569 Z" fill="none" stroke="none"/>
   </g>
  </g>
 </g>
</svg>
