<?xml version="1.0" encoding="UTF-8"?>
<svg width="111px" height="645px" viewBox="577 964 111 645" xmlns="http://www.w3.org/2000/svg" xmlns:xlink="http://www.w3.org/1999/xlink" version="1.1">
 <!-- Generated by Pixelmator Pro 2.3.3 -->
 <g id="flauta-nota-D">
  <path id="corpo-da-flauta" d="M647.938 1022.678 C626.364 1022.678 608.875 1040.167 608.875 1061.741 L608.875 1569.553 C608.875 1591.127 626.364 1608.616 647.938 1608.616 L647.938 1608.616 C669.511 1608.616 687 1591.127 687 1569.553 L687 1061.741 C687 1040.167 669.511 1022.678 647.938 1022.678 Z" fill="#fce5cd" fill-opacity="1" stroke="none"/>
  <defs>
   <path id="D" d="M657.572 977.504 C657.572 980.12 656.864 982.964 655.448 986.036 654.32 988.508 652.904 990.836 651.2 993.02 649.688 994.892 648.572 995.984 647.852 996.296 647.492 996.44 647.084 996.512 646.628 996.512 645.572 996.512 644.372 996.176 643.028 995.504 641.828 994.952 640.928 994.352 640.328 993.704 L640.328 967.784 C640.4 967.16 640.76 966.788 641.408 966.668 641.48 966.644 642.08 966.728 643.208 966.92 643.424 966.944 644.138 966.692 645.35 966.164 646.562 965.636 647.6 965.372 648.464 965.372 649.52 965.372 650.528 965.648 651.488 966.2 652.04 966.536 652.868 967.184 653.972 968.144 655.58 969.536 656.624 971 657.104 972.536 657.416 973.568 657.572 975.224 657.572 977.504 Z M651.596 970.556 C651.476 970.484 651.284 970.448 651.02 970.448 649.748 970.448 648.224 971 646.448 972.104 L646.448 988.304 C648.08 987.368 649.472 985.076 650.624 981.428 651.608 978.284 652.1 975.428 652.1 972.86 652.1 971.516 651.932 970.748 651.596 970.556 Z"/>
  </defs>
  <use id="D-1" xlink:href="#D" fill="#c53923" fill-opacity="1" stroke="none"/>
  <use id="D-2" xlink:href="#D" fill="#be121e" fill-opacity="1" stroke="none"/>
  <g id="furos-baixo">
   <g id="furo-duplo">
    <defs>
     <path id="furo-grande" d="M659.656 1520.725 C659.656 1514.253 654.41 1509.006 647.938 1509.006 641.465 1509.006 636.219 1514.253 636.219 1520.725 636.219 1527.197 641.465 1532.444 647.938 1532.444 654.41 1532.444 659.656 1527.197 659.656 1520.725 Z"/>
    </defs>
    <defs>
     <path id="stroke-path" d="M650.656 1531.109 L652.547 1530.406 655.844 1527.938 657.984 1524.406 658.641 1520.734 657.984 1517.063 655.844 1513.516 652.547 1511.063 650.656 1510.359 647.938 1510.031 645.203 1510.359 643.313 1511.063 640.016 1513.516 637.875 1517.063 637.234 1520.734 637.875 1524.406 640.016 1527.938 643.313 1530.406 645.203 1531.109 647.938 1531.438 Z"/>
    </defs>
    <use id="furo-grande-1" stroke="#000000" stroke-opacity="1" stroke-linecap="round" fill="none" stroke-width="2" xlink:href="#stroke-path"/>
    <defs>
     <path id="furo-menor" d="M677.234 1520.725 C677.234 1517.489 674.611 1514.866 671.375 1514.866 668.139 1514.866 665.516 1517.489 665.516 1520.725 665.516 1523.961 668.139 1526.584 671.375 1526.584 674.611 1526.584 677.234 1523.961 677.234 1520.725 Z"/>
    </defs>
    <defs>
     <path id="stroke-path-1" d="M673.031 1525.281 L674.641 1524.313 675.734 1522.859 676.219 1520.734 675.922 1519.094 674.938 1517.469 673.484 1516.375 671.375 1515.891 669.25 1516.375 667.797 1517.469 666.813 1519.078 666.531 1520.734 666.813 1522.391 667.797 1524 669.25 1525.094 671.391 1525.578 Z"/>
    </defs>
    <use id="furo-menor-1" stroke="#000000" stroke-opacity="1" stroke-linecap="round" fill="none" stroke-width="2" xlink:href="#stroke-path-1"/>
   </g>
   <g id="furo-duplo-1">
    <defs>
     <path id="furo-grande-2" d="M659.656 1462.131 C659.656 1455.659 654.41 1450.412 647.938 1450.412 641.465 1450.412 636.219 1455.659 636.219 1462.131 636.219 1468.603 641.465 1473.85 647.938 1473.85 654.41 1473.85 659.656 1468.603 659.656 1462.131 Z"/>
    </defs>
    <defs>
     <path id="stroke-path-2" d="M650.656 1472.516 L652.547 1471.813 655.844 1469.344 657.984 1465.813 658.641 1462.141 657.984 1458.469 655.844 1454.922 652.547 1452.469 650.656 1451.766 647.938 1451.438 645.203 1451.766 643.313 1452.469 640.016 1454.922 637.875 1458.469 637.234 1462.141 637.875 1465.813 640.016 1469.344 643.313 1471.813 645.203 1472.516 647.938 1472.844 Z"/>
    </defs>
    <use id="furo-grande-3" stroke="#000000" stroke-opacity="1" stroke-linecap="round" fill="none" stroke-width="2" xlink:href="#stroke-path-2"/>
    <defs>
     <path id="furo-menor-2" d="M677.234 1462.131 C677.234 1458.895 674.611 1456.272 671.375 1456.272 668.139 1456.272 665.516 1458.895 665.516 1462.131 665.516 1465.367 668.139 1467.991 671.375 1467.991 674.611 1467.991 677.234 1465.367 677.234 1462.131 Z"/>
    </defs>
    <defs>
     <path id="stroke-path-3" d="M673.031 1466.688 L674.641 1465.719 675.734 1464.266 676.219 1462.141 675.922 1460.5 674.938 1458.875 673.484 1457.781 671.375 1457.297 669.25 1457.781 667.797 1458.875 666.813 1460.484 666.531 1462.141 666.813 1463.797 667.797 1465.406 669.25 1466.5 671.391 1466.984 Z"/>
    </defs>
    <use id="furo-menor-3" stroke="#000000" stroke-opacity="1" stroke-linecap="round" fill="none" stroke-width="2" xlink:href="#stroke-path-3"/>
   </g>
   <defs>
    <path id="furo" d="M659.656 1403.537 C659.656 1397.065 654.41 1391.819 647.938 1391.819 641.465 1391.819 636.219 1397.065 636.219 1403.537 636.219 1410.01 641.465 1415.256 647.938 1415.256 654.41 1415.256 659.656 1410.01 659.656 1403.537 Z"/>
   </defs>
   <defs>
    <path id="stroke-path-4" d="M650.656 1413.922 L652.547 1413.219 655.844 1410.75 657.984 1407.219 658.641 1403.547 657.984 1399.875 655.844 1396.328 652.547 1393.875 650.656 1393.172 647.938 1392.844 645.203 1393.172 643.313 1393.875 640.016 1396.328 637.875 1399.875 637.234 1403.547 637.875 1407.219 640.016 1410.75 643.313 1413.219 645.203 1413.922 647.938 1414.25 Z"/>
   </defs>
   <use id="furo-1" stroke="#000000" stroke-opacity="1" stroke-linecap="round" fill="none" stroke-width="2" xlink:href="#stroke-path-4"/>
   <defs>
    <path id="furo-2" d="M659.656 1344.944 C659.656 1338.472 654.41 1333.225 647.938 1333.225 641.465 1333.225 636.219 1338.472 636.219 1344.944 636.219 1351.416 641.465 1356.662 647.938 1356.662 654.41 1356.662 659.656 1351.416 659.656 1344.944 Z"/>
   </defs>
   <defs>
    <path id="stroke-path-5" d="M650.656 1355.328 L652.547 1354.625 655.844 1352.156 657.984 1348.625 658.641 1344.953 657.984 1341.281 655.844 1337.734 652.547 1335.281 650.656 1334.578 647.938 1334.25 645.203 1334.578 643.313 1335.281 640.016 1337.734 637.875 1341.281 637.234 1344.953 637.875 1348.625 640.016 1352.156 643.313 1354.625 645.203 1355.328 647.938 1355.656 Z"/>
   </defs>
   <use id="furo-3" stroke="#000000" stroke-opacity="1" stroke-linecap="round" fill="none" stroke-width="2" xlink:href="#stroke-path-5"/>
  </g>
  <g id="furos-cima">
   <defs>
    <path id="furo-3" d="M659.656 1227.756 C659.656 1221.284 654.41 1216.037 647.938 1216.037 641.465 1216.037 636.219 1221.284 636.219 1227.756 636.219 1234.228 641.465 1239.475 647.938 1239.475 654.41 1239.475 659.656 1234.228 659.656 1227.756 Z"/>
   </defs>
   <defs>
    <path id="stroke-path-6" d="M651.609 1237.828 L655.141 1235.672 657.609 1232.375 658.313 1230.422 658.656 1227.813 657.984 1224.094 655.844 1220.547 652.547 1218.094 650.656 1217.391 647.938 1217.063 644.25 1217.703 640.719 1219.859 638.25 1223.156 637.563 1225.031 637.234 1227.766 637.875 1231.438 640.016 1234.969 643.313 1237.438 645.203 1238.141 647.938 1238.469 Z"/>
   </defs>
   <use id="furo-3-1" stroke="#000000" stroke-opacity="1" stroke-linecap="round" fill="none" stroke-width="2" xlink:href="#stroke-path-6"/>
   <path id="furo-2" d="M659.656 1169.162 C659.656 1162.69 654.41 1157.444 647.938 1157.444 641.465 1157.444 636.219 1162.69 636.219 1169.162 636.219 1175.635 641.465 1180.881 647.938 1180.881 654.41 1180.881 659.656 1175.635 659.656 1169.162 Z" fill="#000000" fill-opacity="1" stroke="none"/>
   <defs>
    <path id="furo-1" d="M659.656 1110.569 C659.656 1104.097 654.41 1098.85 647.938 1098.85 641.465 1098.85 636.219 1104.097 636.219 1110.569 636.219 1117.041 641.465 1122.287 647.938 1122.287 654.41 1122.287 659.656 1117.041 659.656 1110.569 Z"/>
   </defs>
   <defs>
    <path id="stroke-path-7" d="M651.609 1120.641 L655.141 1118.484 657.609 1115.188 658.313 1113.234 658.656 1110.625 657.984 1106.906 655.844 1103.359 652.547 1100.906 650.656 1100.203 647.938 1099.875 644.25 1100.516 640.719 1102.672 638.25 1105.969 637.563 1107.844 637.234 1110.578 637.875 1114.25 640.016 1117.781 643.313 1120.25 645.203 1120.953 647.938 1121.281 Z"/>
   </defs>
   <use id="furo-1-1" stroke="#000000" stroke-opacity="1" stroke-linecap="round" fill="none" stroke-width="2" xlink:href="#stroke-path-7"/>
   <g id="furo-traseiro">
    <defs>
     <path id="furo-tras-base" d="M601.063 1110.569 C601.063 1104.097 595.816 1098.85 589.344 1098.85 582.872 1098.85 577.625 1104.097 577.625 1110.569 577.625 1117.041 582.872 1122.287 589.344 1122.287 595.816 1122.287 601.063 1117.041 601.063 1110.569 Z"/>
    </defs>
    <defs>
     <path id="stroke-path-8" d="M593.016 1120.641 L596.547 1118.484 599.016 1115.188 599.719 1113.234 600.063 1110.625 599.391 1106.906 597.25 1103.359 593.953 1100.906 592.063 1100.203 589.344 1099.875 585.656 1100.516 582.125 1102.672 579.656 1105.969 578.969 1107.844 578.641 1110.578 579.281 1114.25 581.422 1117.781 584.719 1120.25 586.609 1120.953 589.344 1121.281 Z"/>
    </defs>
    <use id="furo-tras-base-1" stroke="#000000" stroke-opacity="1" stroke-linecap="round" fill="none" stroke-width="2" xlink:href="#stroke-path-8"/>
    <path id="Retângulo" d="M589.344 1122.287 C582.872 1122.287 577.625 1117.041 577.625 1110.569 L601.063 1110.569 C601.063 1117.041 595.816 1122.287 589.344 1122.287 Z" fill="none" stroke="none"/>
    <path id="furo-tras-copiar" d="M577.625 1110.569 C577.625 1104.097 582.872 1098.85 589.344 1098.85 595.816 1098.85 601.063 1104.097 601.063 1110.569 L577.625 1110.569 Z" fill="none" stroke="none"/>
   </g>
  </g>
 </g>
</svg>
