<?xml version="1.0" encoding="UTF-8"?>
<svg width="111px" height="644px" viewBox="345 965 111 644" xmlns="http://www.w3.org/2000/svg" xmlns:xlink="http://www.w3.org/1999/xlink" version="1.1">
 <!-- Generated by Pixelmator Pro 2.3.3 -->
 <g id="flauta-nota-C#">
  <path id="corpo-da-flauta" d="M415.625 1022.678 C394.052 1022.678 376.563 1040.167 376.563 1061.741 L376.563 1569.553 C376.563 1591.127 394.052 1608.616 415.625 1608.616 L415.625 1608.616 C437.198 1608.616 454.688 1591.127 454.688 1569.553 L454.688 1061.741 C454.688 1040.167 437.198 1022.678 415.625 1022.678 Z" fill="#fce5cd" fill-opacity="1" stroke="none"/>
  <defs>
   <path id="C#" d="M438.678 986 C438.342 986 437.862 985.94 437.238 985.82 436.614 985.7 436.23 985.64 436.086 985.64 L434.286 985.64 C434.238 987.536 434.166 989.588 434.07 991.796 433.926 992.54 433.602 992.948 433.098 993.02 432.642 993.092 431.88 992.846 430.812 992.282 429.744 991.718 429.102 991.292 428.886 991.004 428.742 990.788 428.67 990.548 428.67 990.284 428.67 990.02 428.748 989.678 428.904 989.258 429.06 988.838 429.138 988.568 429.138 988.448 429.162 988.112 429.198 987.176 429.246 985.64 L427.194 985.64 C427.17 987.296 427.146 989 427.122 990.752 427.05 991.088 426.846 991.388 426.51 991.652 426.174 991.916 425.802 992.036 425.394 992.012 425.082 991.988 424.362 991.562 423.234 990.734 422.106 989.906 421.53 989.336 421.506 989.024 421.482 988.76 421.578 988.46 421.794 988.124 422.01 987.788 422.13 987.512 422.154 987.296 L422.154 985.64 C421.554 985.64 421.02 985.76 420.552 986 420.084 986.24 419.766 986.348 419.598 986.324 419.286 986.3 418.716 985.73 417.888 984.614 417.06 983.498 416.634 982.76 416.61 982.4 416.586 981.992 416.706 981.626 416.97 981.302 417.234 980.978 417.534 980.78 417.87 980.708 419.118 980.708 420.546 980.696 422.154 980.672 L422.154 978.584 C421.098 978.584 420.45 978.602 420.21 978.638 419.97 978.674 419.682 978.776 419.346 978.944 419.01 979.112 418.722 979.184 418.482 979.16 417.954 979.112 417.336 978.62 416.628 977.684 415.92 976.748 415.566 975.896 415.566 975.128 415.566 974.36 415.986 973.892 416.826 973.724 417.09 973.676 418.866 973.628 422.154 973.58 L422.154 972.536 C422.154 972.392 422.1 972.014 421.992 971.402 421.884 970.79 421.83 970.304 421.83 969.944 421.83 969.008 422.226 968.54 423.018 968.54 423.666 968.54 424.434 968.684 425.322 968.972 426.306 969.284 426.954 969.632 427.266 970.016 427.386 970.208 427.446 971.372 427.446 973.508 L429.174 973.508 C429.222 970.676 429.336 969.134 429.516 968.882 429.696 968.63 430.074 968.504 430.65 968.504 431.73 968.504 433.014 968.876 434.502 969.62 434.742 969.74 434.862 969.968 434.862 970.304 434.862 970.52 434.784 970.862 434.628 971.33 434.472 971.798 434.394 972.092 434.394 972.212 L434.394 973.472 C435.21 973.448 435.87 973.436 436.374 973.436 436.494 973.436 436.794 973.352 437.274 973.184 437.754 973.016 438.114 972.932 438.354 972.932 438.666 972.932 438.882 973.052 439.002 973.292 439.746 974.756 440.118 976.04 440.118 977.144 440.118 977.744 439.974 978.152 439.686 978.368 439.494 978.512 437.718 978.584 434.358 978.584 434.334 978.992 434.322 979.58 434.322 980.348 436.986 980.348 438.414 980.42 438.606 980.564 438.99 980.876 439.338 981.524 439.65 982.508 439.938 983.396 440.082 984.164 440.082 984.812 440.082 985.604 439.614 986 438.678 986 Z M429.21 980.42 L429.21 978.584 427.41 978.584 C427.41 978.992 427.386 979.628 427.338 980.492 428.202 980.444 428.826 980.42 429.21 980.42 Z M414.846 987.944 C414.774 988.544 414.546 989.024 414.162 989.384 413.466 990.872 412.398 992.372 410.958 993.884 409.398 995.492 408.138 996.296 407.178 996.296 407.034 996.296 406.902 996.284 406.782 996.26 405.726 995.924 404.538 995.504 403.218 995 400.866 994.04 399.066 992.204 397.818 989.492 396.714 987.044 396.162 984.2 396.162 980.96 396.162 977 396.918 973.508 398.43 970.484 400.038 967.268 402.054 965.6 404.478 965.48 405.414 965.432 406.788 965.912 408.6 966.92 410.412 967.928 411.606 968.93 412.182 969.926 412.758 970.922 413.154 973.1 413.37 976.46 413.418 977.18 413.322 977.912 413.082 978.656 412.794 979.544 412.422 979.952 411.966 979.88 411.126 979.76 410.07 979.496 408.798 979.088 407.262 978.584 406.434 978.164 406.314 977.828 406.266 977.708 406.242 977.6 406.242 977.504 406.242 977.288 406.344 977.018 406.548 976.694 406.752 976.37 406.854 976.1 406.854 975.884 406.974 974.9 407.034 973.976 407.034 973.112 407.034 971.864 406.89 971 406.602 970.52 405.162 971.576 404.07 973.34 403.326 975.812 402.702 977.9 402.39 980.264 402.39 982.904 402.39 984.944 402.57 986.762 402.93 988.358 403.29 989.954 403.722 990.92 404.226 991.256 404.466 991.4 405.132 990.914 406.224 989.798 407.316 988.682 408.018 987.788 408.33 987.116 408.354 987.092 408.462 986.708 408.654 985.964 408.798 985.532 408.99 985.268 409.23 985.172 409.638 985.028 410.688 985.37 412.38 986.198 414.072 987.026 414.894 987.608 414.846 987.944 Z"/>
  </defs>
  <use id="C#-1" xlink:href="#C#" fill="#c53923" fill-opacity="1" stroke="none"/>
  <use id="C#-2" xlink:href="#C#" fill="#be121e" fill-opacity="1" stroke="none"/>
  <g id="furos-baixo">
   <g id="furo-duplo">
    <defs>
     <path id="furo-grande" d="M427.344 1520.725 C427.344 1514.253 422.097 1509.006 415.625 1509.006 409.153 1509.006 403.906 1514.253 403.906 1520.725 403.906 1527.197 409.153 1532.444 415.625 1532.444 422.097 1532.444 427.344 1527.197 427.344 1520.725 Z"/>
    </defs>
    <defs>
     <path id="stroke-path" d="M419.297 1530.797 L422.828 1528.641 425.297 1525.344 426 1523.391 426.344 1520.781 425.672 1517.063 423.531 1513.516 420.234 1511.063 418.344 1510.359 415.625 1510.031 411.938 1510.672 408.406 1512.828 405.938 1516.125 405.25 1518 404.922 1520.734 405.563 1524.406 407.703 1527.938 411 1530.406 412.891 1531.109 415.625 1531.438 Z"/>
    </defs>
    <use id="furo-grande-1" stroke="#000000" stroke-opacity="1" stroke-linecap="round" fill="none" stroke-width="2" xlink:href="#stroke-path"/>
    <defs>
     <path id="furo-menor" d="M444.922 1520.725 C444.922 1517.489 442.299 1514.866 439.063 1514.866 435.826 1514.866 433.203 1517.489 433.203 1520.725 433.203 1523.961 435.826 1526.584 439.063 1526.584 442.299 1526.584 444.922 1523.961 444.922 1520.725 Z"/>
    </defs>
    <defs>
     <path id="stroke-path-1" d="M440.719 1525.281 L442.328 1524.313 443.422 1522.859 443.906 1520.734 443.609 1519.094 442.625 1517.469 441.172 1516.375 439.063 1515.891 436.938 1516.375 435.484 1517.469 434.5 1519.078 434.219 1520.734 434.5 1522.391 435.484 1524 436.938 1525.094 439.078 1525.578 Z"/>
    </defs>
    <use id="furo-menor-1" stroke="#000000" stroke-opacity="1" stroke-linecap="round" fill="none" stroke-width="2" xlink:href="#stroke-path-1"/>
   </g>
   <g id="furo-duplo-1">
    <defs>
     <path id="furo-grande-2" d="M427.344 1462.131 C427.344 1455.659 422.097 1450.412 415.625 1450.412 409.153 1450.412 403.906 1455.659 403.906 1462.131 403.906 1468.603 409.153 1473.85 415.625 1473.85 422.097 1473.85 427.344 1468.603 427.344 1462.131 Z"/>
    </defs>
    <defs>
     <path id="stroke-path-2" d="M419.297 1472.203 L422.828 1470.047 425.297 1466.75 426 1464.797 426.344 1462.188 425.672 1458.469 423.531 1454.922 420.234 1452.469 418.344 1451.766 415.625 1451.438 411.938 1452.078 408.406 1454.234 405.938 1457.531 405.25 1459.406 404.922 1462.141 405.563 1465.813 407.703 1469.344 411 1471.813 412.891 1472.516 415.625 1472.844 Z"/>
    </defs>
    <use id="furo-grande-3" stroke="#000000" stroke-opacity="1" stroke-linecap="round" fill="none" stroke-width="2" xlink:href="#stroke-path-2"/>
    <defs>
     <path id="furo-menor-2" d="M444.922 1462.131 C444.922 1458.895 442.299 1456.272 439.063 1456.272 435.826 1456.272 433.203 1458.895 433.203 1462.131 433.203 1465.367 435.826 1467.991 439.063 1467.991 442.299 1467.991 444.922 1465.367 444.922 1462.131 Z"/>
    </defs>
    <defs>
     <path id="stroke-path-3" d="M440.719 1466.688 L442.328 1465.719 443.422 1464.266 443.906 1462.141 443.609 1460.5 442.625 1458.875 441.172 1457.781 439.063 1457.297 436.938 1457.781 435.484 1458.875 434.5 1460.484 434.219 1462.141 434.5 1463.797 435.484 1465.406 436.938 1466.5 439.078 1466.984 Z"/>
    </defs>
    <use id="furo-menor-3" stroke="#000000" stroke-opacity="1" stroke-linecap="round" fill="none" stroke-width="2" xlink:href="#stroke-path-3"/>
   </g>
   <defs>
    <path id="furo" d="M427.344 1403.537 C427.344 1397.065 422.097 1391.819 415.625 1391.819 409.153 1391.819 403.906 1397.065 403.906 1403.537 403.906 1410.01 409.153 1415.256 415.625 1415.256 422.097 1415.256 427.344 1410.01 427.344 1403.537 Z"/>
   </defs>
   <defs>
    <path id="stroke-path-4" d="M419.297 1413.609 L422.828 1411.453 425.297 1408.156 426 1406.203 426.344 1403.594 425.672 1399.875 423.531 1396.328 420.234 1393.875 418.344 1393.172 415.625 1392.844 411.938 1393.484 408.406 1395.641 405.938 1398.938 405.25 1400.813 404.922 1403.547 405.563 1407.219 407.703 1410.75 411 1413.219 412.891 1413.922 415.625 1414.25 Z"/>
   </defs>
   <use id="furo-1" stroke="#000000" stroke-opacity="1" stroke-linecap="round" fill="none" stroke-width="2" xlink:href="#stroke-path-4"/>
   <defs>
    <path id="furo-2" d="M427.344 1344.944 C427.344 1338.472 422.097 1333.225 415.625 1333.225 409.153 1333.225 403.906 1338.472 403.906 1344.944 403.906 1351.416 409.153 1356.662 415.625 1356.662 422.097 1356.662 427.344 1351.416 427.344 1344.944 Z"/>
   </defs>
   <defs>
    <path id="stroke-path-5" d="M419.297 1355.016 L422.828 1352.859 425.297 1349.563 426 1347.609 426.344 1345 425.672 1341.281 423.531 1337.734 420.234 1335.281 418.344 1334.578 415.625 1334.25 411.938 1334.891 408.406 1337.047 405.938 1340.344 405.25 1342.219 404.922 1344.953 405.563 1348.625 407.703 1352.156 411 1354.625 412.891 1355.328 415.625 1355.656 Z"/>
   </defs>
   <use id="furo-3" stroke="#000000" stroke-opacity="1" stroke-linecap="round" fill="none" stroke-width="2" xlink:href="#stroke-path-5"/>
  </g>
  <g id="furos-cima">
   <defs>
    <path id="furo-3" d="M427.344 1227.756 C427.344 1221.284 422.097 1216.037 415.625 1216.037 409.153 1216.037 403.906 1221.284 403.906 1227.756 403.906 1234.228 409.153 1239.475 415.625 1239.475 422.097 1239.475 427.344 1234.228 427.344 1227.756 Z"/>
   </defs>
   <defs>
    <path id="stroke-path-6" d="M419.297 1237.828 L422.828 1235.672 425.297 1232.375 426 1230.422 426.344 1227.766 426 1225.094 425.297 1223.156 422.828 1219.859 419.297 1217.703 415.625 1217.063 411.938 1217.703 408.406 1219.859 405.938 1223.156 405.25 1225.031 404.922 1227.766 405.25 1230.5 405.938 1232.375 408.406 1235.672 411.938 1237.828 415.625 1238.469 Z"/>
   </defs>
   <use id="furo-3-1" stroke="#000000" stroke-opacity="1" stroke-linecap="round" fill="none" stroke-width="2" xlink:href="#stroke-path-6"/>
   <path id="furo-2" d="M427.344 1169.162 C427.344 1162.69 422.097 1157.444 415.625 1157.444 409.153 1157.444 403.906 1162.69 403.906 1169.162 403.906 1175.635 409.153 1180.881 415.625 1180.881 422.097 1180.881 427.344 1175.635 427.344 1169.162 Z" fill="#000000" fill-opacity="1" stroke="none"/>
   <path id="furo-1" d="M427.344 1110.569 C427.344 1104.097 422.097 1098.85 415.625 1098.85 409.153 1098.85 403.906 1104.097 403.906 1110.569 403.906 1117.041 409.153 1122.287 415.625 1122.287 422.097 1122.287 427.344 1117.041 427.344 1110.569 Z" fill="#000000" fill-opacity="1" stroke="none"/>
   <g id="furo-traseiro">
    <defs>
     <path id="furo-tras-base" d="M368.75 1110.569 C368.75 1104.097 363.503 1098.85 357.031 1098.85 350.559 1098.85 345.313 1104.097 345.313 1110.569 345.313 1117.041 350.559 1122.287 357.031 1122.287 363.503 1122.287 368.75 1117.041 368.75 1110.569 Z"/>
    </defs>
    <defs>
     <path id="stroke-path-7" d="M360.703 1120.641 L364.234 1118.484 366.703 1115.188 367.406 1113.234 367.75 1110.578 367.406 1107.906 366.703 1105.969 364.234 1102.672 360.703 1100.516 357.031 1099.875 353.344 1100.516 349.813 1102.672 347.344 1105.969 346.656 1107.844 346.328 1110.578 346.656 1113.313 347.344 1115.188 349.813 1118.484 353.344 1120.641 357.031 1121.281 Z"/>
    </defs>
    <use id="furo-tras-base-1" stroke="#000000" stroke-opacity="1" stroke-linecap="round" fill="none" stroke-width="2" xlink:href="#stroke-path-7"/>
    <path id="Retângulo" d="M357.031 1122.287 C350.559 1122.287 345.313 1117.041 345.313 1110.569 L368.75 1110.569 C368.75 1117.041 363.503 1122.287 357.031 1122.287 Z" fill="none" stroke="none"/>
    <path id="furo-tras-copiar" d="M345.313 1110.569 C345.313 1104.097 350.559 1098.85 357.031 1098.85 363.503 1098.85 368.75 1104.097 368.75 1110.569 L345.313 1110.569 Z" fill="none" stroke="none"/>
   </g>
  </g>
 </g>
</svg>
