<?xml version="1.0" encoding="UTF-8"?>
<svg width="111px" height="645px" viewBox="809 964 111 645" xmlns="http://www.w3.org/2000/svg" xmlns:xlink="http://www.w3.org/1999/xlink" version="1.1">
 <!-- Generated by Pixelmator Pro 2.3.3 -->
 <g id="flauta-nota-D#">
  <path id="corpo-da-flauta" d="M879.938 1022.678 C858.364 1022.678 840.875 1040.167 840.875 1061.741 L840.875 1569.553 C840.875 1591.127 858.364 1608.616 879.938 1608.616 L879.938 1608.616 C901.511 1608.616 919 1591.127 919 1569.553 L919 1061.741 C919 1040.167 901.511 1022.678 879.938 1022.678 Z" fill="#fce5cd" fill-opacity="1" stroke="none"/>
  <defs>
   <path id="D#" d="M901.092 986 C900.756 986 900.276 985.94 899.652 985.82 899.028 985.7 898.644 985.64 898.5 985.64 L896.7 985.64 C896.652 987.536 896.58 989.588 896.484 991.796 896.34 992.54 896.016 992.948 895.512 993.02 895.056 993.092 894.294 992.846 893.226 992.282 892.158 991.718 891.516 991.292 891.3 991.004 891.156 990.788 891.084 990.548 891.084 990.284 891.084 990.02 891.162 989.678 891.318 989.258 891.474 988.838 891.552 988.568 891.552 988.448 891.576 988.112 891.612 987.176 891.66 985.64 L889.608 985.64 C889.584 987.296 889.56 989 889.536 990.752 889.464 991.088 889.26 991.388 888.924 991.652 888.588 991.916 888.216 992.036 887.808 992.012 887.496 991.988 886.776 991.562 885.648 990.734 884.52 989.906 883.944 989.336 883.92 989.024 883.896 988.76 883.992 988.46 884.208 988.124 884.424 987.788 884.544 987.512 884.568 987.296 L884.568 985.64 C883.968 985.64 883.434 985.76 882.966 986 882.498 986.24 882.18 986.348 882.012 986.324 881.7 986.3 881.13 985.73 880.302 984.614 879.474 983.498 879.048 982.76 879.024 982.4 879 981.992 879.12 981.626 879.384 981.302 879.648 980.978 879.948 980.78 880.284 980.708 881.532 980.708 882.96 980.696 884.568 980.672 L884.568 978.584 C883.512 978.584 882.864 978.602 882.624 978.638 882.384 978.674 882.096 978.776 881.76 978.944 881.424 979.112 881.136 979.184 880.896 979.16 880.368 979.112 879.75 978.62 879.042 977.684 878.334 976.748 877.98 975.896 877.98 975.128 877.98 974.36 878.4 973.892 879.24 973.724 879.504 973.676 881.28 973.628 884.568 973.58 L884.568 972.536 C884.568 972.392 884.514 972.014 884.406 971.402 884.298 970.79 884.244 970.304 884.244 969.944 884.244 969.008 884.64 968.54 885.432 968.54 886.08 968.54 886.848 968.684 887.736 968.972 888.72 969.284 889.368 969.632 889.68 970.016 889.8 970.208 889.86 971.372 889.86 973.508 L891.588 973.508 C891.636 970.676 891.75 969.134 891.93 968.882 892.11 968.63 892.488 968.504 893.064 968.504 894.144 968.504 895.428 968.876 896.916 969.62 897.156 969.74 897.276 969.968 897.276 970.304 897.276 970.52 897.198 970.862 897.042 971.33 896.886 971.798 896.808 972.092 896.808 972.212 L896.808 973.472 C897.624 973.448 898.284 973.436 898.788 973.436 898.908 973.436 899.208 973.352 899.688 973.184 900.168 973.016 900.528 972.932 900.768 972.932 901.08 972.932 901.296 973.052 901.416 973.292 902.16 974.756 902.532 976.04 902.532 977.144 902.532 977.744 902.388 978.152 902.1 978.368 901.908 978.512 900.132 978.584 896.772 978.584 896.748 978.992 896.736 979.58 896.736 980.348 899.4 980.348 900.828 980.42 901.02 980.564 901.404 980.876 901.752 981.524 902.064 982.508 902.352 983.396 902.496 984.164 902.496 984.812 902.496 985.604 902.028 986 901.092 986 Z M891.624 980.42 L891.624 978.584 889.824 978.584 C889.824 978.992 889.8 979.628 889.752 980.492 890.616 980.444 891.24 980.42 891.624 980.42 Z M876.072 977.504 C876.072 980.12 875.364 982.964 873.948 986.036 872.82 988.508 871.404 990.836 869.7 993.02 868.188 994.892 867.072 995.984 866.352 996.296 865.992 996.44 865.584 996.512 865.128 996.512 864.072 996.512 862.872 996.176 861.528 995.504 860.328 994.952 859.428 994.352 858.828 993.704 L858.828 967.784 C858.9 967.16 859.26 966.788 859.908 966.668 859.98 966.644 860.58 966.728 861.708 966.92 861.924 966.944 862.638 966.692 863.85 966.164 865.062 965.636 866.1 965.372 866.964 965.372 868.02 965.372 869.028 965.648 869.988 966.2 870.54 966.536 871.368 967.184 872.472 968.144 874.08 969.536 875.124 971 875.604 972.536 875.916 973.568 876.072 975.224 876.072 977.504 Z M870.096 970.556 C869.976 970.484 869.784 970.448 869.52 970.448 868.248 970.448 866.724 971 864.948 972.104 L864.948 988.304 C866.58 987.368 867.972 985.076 869.124 981.428 870.108 978.284 870.6 975.428 870.6 972.86 870.6 971.516 870.432 970.748 870.096 970.556 Z"/>
  </defs>
  <use id="D#-1" xlink:href="#D#" fill="#c53923" fill-opacity="1" stroke="none"/>
  <use id="D#-2" xlink:href="#D#" fill="#be121e" fill-opacity="1" stroke="none"/>
  <g id="furos-baixo">
   <g id="furo-duplo">
    <defs>
     <path id="furo-grande" d="M891.656 1520.725 C891.656 1514.253 886.41 1509.006 879.938 1509.006 873.465 1509.006 868.219 1514.253 868.219 1520.725 868.219 1527.197 873.465 1532.444 879.938 1532.444 886.41 1532.444 891.656 1527.197 891.656 1520.725 Z"/>
    </defs>
    <defs>
     <path id="stroke-path" d="M882.656 1531.109 L884.547 1530.406 887.844 1527.938 889.984 1524.406 890.641 1520.734 889.984 1517.063 887.844 1513.516 884.547 1511.063 882.656 1510.359 879.938 1510.031 877.203 1510.359 875.313 1511.063 872.016 1513.516 869.875 1517.063 869.234 1520.734 869.875 1524.406 872.016 1527.938 875.313 1530.406 877.203 1531.109 879.938 1531.438 Z"/>
    </defs>
    <use id="furo-grande-1" stroke="#000000" stroke-opacity="1" stroke-linecap="round" fill="none" stroke-width="2" xlink:href="#stroke-path"/>
    <defs>
     <path id="furo-menor" d="M909.234 1520.725 C909.234 1517.489 906.611 1514.866 903.375 1514.866 900.139 1514.866 897.516 1517.489 897.516 1520.725 897.516 1523.961 900.139 1526.584 903.375 1526.584 906.611 1526.584 909.234 1523.961 909.234 1520.725 Z"/>
    </defs>
    <defs>
     <path id="stroke-path-1" d="M905.031 1525.281 L906.641 1524.313 907.734 1522.859 908.219 1520.734 907.922 1519.094 906.938 1517.469 905.484 1516.375 903.375 1515.891 901.25 1516.375 899.797 1517.469 898.813 1519.078 898.531 1520.734 898.813 1522.391 899.797 1524 901.25 1525.094 903.391 1525.578 Z"/>
    </defs>
    <use id="furo-menor-1" stroke="#000000" stroke-opacity="1" stroke-linecap="round" fill="none" stroke-width="2" xlink:href="#stroke-path-1"/>
   </g>
   <g id="furo-duplo-1">
    <path id="furo-grande-2" d="M891.656 1462.131 C891.656 1455.659 886.41 1450.412 879.938 1450.412 873.465 1450.412 868.219 1455.659 868.219 1462.131 868.219 1468.603 873.465 1473.85 879.938 1473.85 886.41 1473.85 891.656 1468.603 891.656 1462.131 Z" fill="#000000" fill-opacity="1" stroke="none"/>
    <defs>
     <path id="furo-menor-2" d="M909.234 1462.131 C909.234 1458.895 906.611 1456.272 903.375 1456.272 900.139 1456.272 897.516 1458.895 897.516 1462.131 897.516 1465.367 900.139 1467.991 903.375 1467.991 906.611 1467.991 909.234 1465.367 909.234 1462.131 Z"/>
    </defs>
    <defs>
     <path id="stroke-path-2" d="M905.031 1466.688 L906.641 1465.719 907.734 1464.266 908.219 1462.141 907.922 1460.5 906.938 1458.875 905.484 1457.781 903.375 1457.297 901.25 1457.781 899.797 1458.875 898.813 1460.484 898.531 1462.141 898.813 1463.797 899.797 1465.406 901.25 1466.5 903.391 1466.984 Z"/>
    </defs>
    <use id="furo-menor-3" stroke="#000000" stroke-opacity="1" stroke-linecap="round" fill="none" stroke-width="2" xlink:href="#stroke-path-2"/>
   </g>
   <path id="furo" d="M891.656 1403.537 C891.656 1397.065 886.41 1391.819 879.938 1391.819 873.465 1391.819 868.219 1397.065 868.219 1403.537 868.219 1410.01 873.465 1415.256 879.938 1415.256 886.41 1415.256 891.656 1410.01 891.656 1403.537 Z" fill="#000000" fill-opacity="1" stroke="none"/>
   <path id="furo-1" d="M891.656 1344.944 C891.656 1338.472 886.41 1333.225 879.938 1333.225 873.465 1333.225 868.219 1338.472 868.219 1344.944 868.219 1351.416 873.465 1356.662 879.938 1356.662 886.41 1356.662 891.656 1351.416 891.656 1344.944 Z" fill="#000000" fill-opacity="1" stroke="none"/>
  </g>
  <g id="furos-cima">
   <path id="furo-3" d="M891.656 1227.756 C891.656 1221.284 886.41 1216.037 879.938 1216.037 873.465 1216.037 868.219 1221.284 868.219 1227.756 868.219 1234.228 873.465 1239.475 879.938 1239.475 886.41 1239.475 891.656 1234.228 891.656 1227.756 Z" fill="#000000" fill-opacity="1" stroke="none"/>
   <path id="furo-2" d="M891.656 1169.162 C891.656 1162.69 886.41 1157.444 879.938 1157.444 873.465 1157.444 868.219 1162.69 868.219 1169.162 868.219 1175.635 873.465 1180.881 879.938 1180.881 886.41 1180.881 891.656 1175.635 891.656 1169.162 Z" fill="#000000" fill-opacity="1" stroke="none"/>
   <defs>
    <path id="furo-1" d="M891.656 1110.569 C891.656 1104.097 886.41 1098.85 879.938 1098.85 873.465 1098.85 868.219 1104.097 868.219 1110.569 868.219 1117.041 873.465 1122.287 879.938 1122.287 886.41 1122.287 891.656 1117.041 891.656 1110.569 Z"/>
   </defs>
   <defs>
    <path id="stroke-path-3" d="M883.609 1120.641 L887.141 1118.484 889.609 1115.188 890.313 1113.234 890.656 1110.625 889.984 1106.906 887.844 1103.359 884.547 1100.906 882.656 1100.203 879.938 1099.875 876.25 1100.516 872.719 1102.672 870.25 1105.969 869.563 1107.844 869.234 1110.578 869.875 1114.25 872.016 1117.781 875.313 1120.25 877.203 1120.953 879.938 1121.281 Z"/>
   </defs>
   <use id="furo-1-1" stroke="#000000" stroke-opacity="1" stroke-linecap="round" fill="none" stroke-width="2" xlink:href="#stroke-path-3"/>
   <g id="furo-traseiro">
    <defs>
     <path id="furo-tras-base" d="M833.063 1110.569 C833.063 1104.097 827.816 1098.85 821.344 1098.85 814.872 1098.85 809.625 1104.097 809.625 1110.569 809.625 1117.041 814.872 1122.287 821.344 1122.287 827.816 1122.287 833.063 1117.041 833.063 1110.569 Z"/>
    </defs>
    <defs>
     <path id="stroke-path-4" d="M825.016 1120.641 L828.547 1118.484 831.016 1115.188 831.719 1113.234 832.063 1110.625 831.391 1106.906 829.25 1103.359 825.953 1100.906 824.063 1100.203 821.344 1099.875 817.656 1100.516 814.125 1102.672 811.656 1105.969 810.969 1107.844 810.641 1110.578 811.281 1114.25 813.422 1117.781 816.719 1120.25 818.609 1120.953 821.344 1121.281 Z"/>
    </defs>
    <use id="furo-tras-base-1" stroke="#000000" stroke-opacity="1" stroke-linecap="round" fill="none" stroke-width="2" xlink:href="#stroke-path-4"/>
    <path id="Retângulo" d="M821.344 1122.287 C814.872 1122.287 809.625 1117.041 809.625 1110.569 L833.063 1110.569 C833.063 1117.041 827.816 1122.287 821.344 1122.287 Z" fill="none" stroke="none"/>
    <path id="furo-tras-copiar" d="M809.625 1110.569 C809.625 1104.097 814.872 1098.85 821.344 1098.85 827.816 1098.85 833.063 1104.097 833.063 1110.569 L809.625 1110.569 Z" fill="none" stroke="none"/>
   </g>
  </g>
 </g>
</svg>
