<?xml version="1.0" encoding="UTF-8"?>
<svg width="111px" height="646px" viewBox="1041 963 111 646" xmlns="http://www.w3.org/2000/svg" xmlns:xlink="http://www.w3.org/1999/xlink" version="1.1">
 <!-- Generated by Pixelmator Pro 2.3.3 -->
 <g id="flauta-nota-E">
  <path id="corpo-da-flauta" d="M1111.938 1022.678 C1090.364 1022.678 1072.875 1040.167 1072.875 1061.741 L1072.875 1569.553 C1072.875 1591.127 1090.364 1608.616 1111.938 1608.616 L1111.938 1608.616 C1133.511 1608.616 1151 1591.127 1151 1569.553 L1151 1061.741 C1151 1040.167 1133.511 1022.678 1111.938 1022.678 Z" fill="#fce5cd" fill-opacity="1" stroke="none"/>
  <defs>
   <path id="E" d="M1120.888 991.004 C1120.816 991.412 1120.606 991.85 1120.258 992.318 1119.91 992.786 1119.604 993.068 1119.34 993.164 1119.268 993.188 1119.136 993.146 1118.944 993.038 1118.752 992.93 1118.596 992.876 1118.476 992.876 1118.428 992.876 1118.38 992.888 1118.332 992.912 1117.588 993.128 1116.844 993.416 1116.1 993.776 1114.324 994.592 1112.692 995.636 1111.204 996.908 1108.804 995.924 1107.496 995.384 1107.28 995.288 1105.792 994.64 1105.048 994.16 1105.048 993.848 L1105.048 966.776 C1105.048 966.608 1105.33 966.368 1105.894 966.056 1106.458 965.744 1106.872 965.6 1107.136 965.624 1107.424 965.648 1108 965.834 1108.864 966.182 1109.728 966.53 1110.436 966.704 1110.988 966.704 1111.708 966.704 1112.644 966.38 1113.796 965.732 1114.852 965.108 1115.512 964.844 1115.776 964.94 1116.352 965.132 1117.21 965.762 1118.35 966.83 1119.49 967.898 1120.108 968.66 1120.204 969.116 1120.252 969.332 1120.03 969.704 1119.538 970.232 1119.046 970.76 1118.644 971.024 1118.332 971.024 1118.068 971.024 1117.876 970.988 1117.756 970.916 1117.636 970.844 1117.552 970.82 1117.504 970.844 1116.64 971.036 1115.836 971.264 1115.092 971.528 1113.316 972.128 1112.008 972.824 1111.168 973.616 L1111.168 979.484 C1112.008 979.052 1113.1 978.608 1114.444 978.152 1114.828 978.104 1115.638 978.638 1116.874 979.754 1118.11 980.87 1118.728 981.644 1118.728 982.076 1118.728 982.34 1118.56 982.652 1118.224 983.012 1117.888 983.372 1117.564 983.6 1117.252 983.696 1117.012 983.696 1116.592 983.72 1115.992 983.768 1115.08 983.936 1113.472 984.704 1111.168 986.072 L1111.168 989.852 C1111.888 989.42 1112.866 988.91 1114.102 988.322 1115.338 987.734 1116.1 987.44 1116.388 987.44 1116.724 987.44 1117.57 987.962 1118.926 989.006 1120.282 990.05 1120.936 990.716 1120.888 991.004 Z"/>
  </defs>
  <use id="E-1" xlink:href="#E" fill="#c53923" fill-opacity="1" stroke="none"/>
  <use id="E-2" xlink:href="#E" fill="#be121e" fill-opacity="1" stroke="none"/>
  <g id="furos-baixo">
   <g id="furo-duplo">
    <defs>
     <path id="furo-grande" d="M1123.656 1520.725 C1123.656 1514.253 1118.41 1509.006 1111.938 1509.006 1105.465 1509.006 1100.219 1514.253 1100.219 1520.725 1100.219 1527.197 1105.465 1532.444 1111.938 1532.444 1118.41 1532.444 1123.656 1527.197 1123.656 1520.725 Z"/>
    </defs>
    <defs>
     <path id="stroke-path" d="M1114.656 1531.109 L1116.547 1530.406 1119.844 1527.938 1121.984 1524.406 1122.641 1520.734 1121.984 1517.063 1119.844 1513.516 1116.547 1511.063 1114.656 1510.359 1111.938 1510.031 1109.203 1510.359 1107.313 1511.063 1104.016 1513.516 1101.875 1517.063 1101.234 1520.734 1101.875 1524.406 1104.016 1527.938 1107.313 1530.406 1109.203 1531.109 1111.938 1531.438 Z"/>
    </defs>
    <use id="furo-grande-1" stroke="#000000" stroke-opacity="1" stroke-linecap="round" fill="none" stroke-width="2" xlink:href="#stroke-path"/>
    <defs>
     <path id="furo-menor" d="M1141.234 1520.725 C1141.234 1517.489 1138.611 1514.866 1135.375 1514.866 1132.139 1514.866 1129.516 1517.489 1129.516 1520.725 1129.516 1523.961 1132.139 1526.584 1135.375 1526.584 1138.611 1526.584 1141.234 1523.961 1141.234 1520.725 Z"/>
    </defs>
    <defs>
     <path id="stroke-path-1" d="M1137.031 1525.281 L1138.641 1524.313 1139.734 1522.859 1140.219 1520.734 1139.734 1518.609 1138.641 1517.156 1137.031 1516.188 1135.375 1515.891 1133.703 1516.188 1132.094 1517.156 1131 1518.609 1130.531 1520.734 1131 1522.859 1132.094 1524.313 1133.703 1525.281 1135.375 1525.578 Z"/>
    </defs>
    <use id="furo-menor-1" stroke="#000000" stroke-opacity="1" stroke-linecap="round" fill="none" stroke-width="2" xlink:href="#stroke-path-1"/>
   </g>
   <g id="furo-duplo-1">
    <defs>
     <path id="furo-grande-2" d="M1123.656 1462.131 C1123.656 1455.659 1118.41 1450.412 1111.938 1450.412 1105.465 1450.412 1100.219 1455.659 1100.219 1462.131 1100.219 1468.603 1105.465 1473.85 1111.938 1473.85 1118.41 1473.85 1123.656 1468.603 1123.656 1462.131 Z"/>
    </defs>
    <defs>
     <path id="stroke-path-2" d="M1114.656 1472.516 L1116.547 1471.813 1119.844 1469.344 1121.984 1465.813 1122.641 1462.141 1121.984 1458.469 1119.844 1454.922 1116.547 1452.469 1114.656 1451.766 1111.938 1451.438 1109.203 1451.766 1107.313 1452.469 1104.016 1454.922 1101.875 1458.469 1101.234 1462.141 1101.875 1465.813 1104.016 1469.344 1107.313 1471.813 1109.203 1472.516 1111.938 1472.844 Z"/>
    </defs>
    <use id="furo-grande-3" stroke="#000000" stroke-opacity="1" stroke-linecap="round" fill="none" stroke-width="2" xlink:href="#stroke-path-2"/>
    <defs>
     <path id="furo-menor-2" d="M1141.234 1462.131 C1141.234 1458.895 1138.611 1456.272 1135.375 1456.272 1132.139 1456.272 1129.516 1458.895 1129.516 1462.131 1129.516 1465.367 1132.139 1467.991 1135.375 1467.991 1138.611 1467.991 1141.234 1465.367 1141.234 1462.131 Z"/>
    </defs>
    <defs>
     <path id="stroke-path-3" d="M1137.031 1466.688 L1138.641 1465.719 1139.734 1464.266 1140.219 1462.141 1139.734 1460.016 1138.641 1458.563 1137.031 1457.594 1135.375 1457.297 1133.703 1457.594 1132.094 1458.563 1131 1460.016 1130.531 1462.141 1131 1464.266 1132.094 1465.719 1133.703 1466.688 1135.375 1466.984 Z"/>
    </defs>
    <use id="furo-menor-3" stroke="#000000" stroke-opacity="1" stroke-linecap="round" fill="none" stroke-width="2" xlink:href="#stroke-path-3"/>
   </g>
   <path id="furo" d="M1123.656 1403.537 C1123.656 1397.065 1118.41 1391.819 1111.938 1391.819 1105.465 1391.819 1100.219 1397.065 1100.219 1403.537 1100.219 1410.01 1105.465 1415.256 1111.938 1415.256 1118.41 1415.256 1123.656 1410.01 1123.656 1403.537 Z" fill="#000000" fill-opacity="1" stroke="none"/>
   <path id="furo-1" d="M1123.656 1344.944 C1123.656 1338.472 1118.41 1333.225 1111.938 1333.225 1105.465 1333.225 1100.219 1338.472 1100.219 1344.944 1100.219 1351.416 1105.465 1356.662 1111.938 1356.662 1118.41 1356.662 1123.656 1351.416 1123.656 1344.944 Z" fill="#000000" fill-opacity="1" stroke="none"/>
  </g>
  <g id="furos-cima">
   <path id="furo-3" d="M1123.656 1227.756 C1123.656 1221.284 1118.41 1216.037 1111.938 1216.037 1105.465 1216.037 1100.219 1221.284 1100.219 1227.756 1100.219 1234.228 1105.465 1239.475 1111.938 1239.475 1118.41 1239.475 1123.656 1234.228 1123.656 1227.756 Z" fill="#000000" fill-opacity="1" stroke="none"/>
   <path id="furo-2" d="M1123.656 1169.162 C1123.656 1162.69 1118.41 1157.444 1111.938 1157.444 1105.465 1157.444 1100.219 1162.69 1100.219 1169.162 1100.219 1175.635 1105.465 1180.881 1111.938 1180.881 1118.41 1180.881 1123.656 1175.635 1123.656 1169.162 Z" fill="#000000" fill-opacity="1" stroke="none"/>
   <path id="furo-1" d="M1123.656 1110.569 C1123.656 1104.097 1118.41 1098.85 1111.938 1098.85 1105.465 1098.85 1100.219 1104.097 1100.219 1110.569 1100.219 1117.041 1105.465 1122.287 1111.938 1122.287 1118.41 1122.287 1123.656 1117.041 1123.656 1110.569 Z" fill="#000000" fill-opacity="1" stroke="none"/>
   <g id="furo-traseiro">
    <defs>
     <path id="furo-tras-base" d="M1065.063 1110.569 C1065.063 1104.097 1059.816 1098.85 1053.344 1098.85 1046.872 1098.85 1041.625 1104.097 1041.625 1110.569 1041.625 1117.041 1046.872 1122.287 1053.344 1122.287 1059.816 1122.287 1065.063 1117.041 1065.063 1110.569 Z"/>
    </defs>
    <defs>
     <path id="stroke-path-4" d="M1057.016 1120.641 L1060.547 1118.484 1063.016 1115.188 1063.719 1113.234 1064.063 1110.625 1063.391 1106.906 1061.25 1103.359 1057.953 1100.906 1056.063 1100.203 1053.344 1099.875 1049.656 1100.516 1046.125 1102.672 1043.656 1105.969 1042.969 1107.844 1042.641 1110.578 1043.281 1114.25 1045.422 1117.781 1048.719 1120.25 1050.609 1120.953 1053.344 1121.281 Z"/>
    </defs>
    <use id="furo-tras-base-1" stroke="#000000" stroke-opacity="1" stroke-linecap="round" fill="none" stroke-width="2" xlink:href="#stroke-path-4"/>
    <path id="Retângulo" d="M1053.344 1122.287 C1046.872 1122.287 1041.625 1117.041 1041.625 1110.569 L1065.063 1110.569 C1065.063 1117.041 1059.816 1122.287 1053.344 1122.287 Z" fill="#000000" fill-opacity="1" stroke="none"/>
    <path id="furo-tras-copiar" d="M1041.625 1110.569 C1041.625 1104.097 1046.872 1098.85 1053.344 1098.85 1059.816 1098.85 1065.063 1104.097 1065.063 1110.569 L1041.625 1110.569 Z" fill="none" stroke="none"/>
   </g>
  </g>
 </g>
</svg>
