<?xml version="1.0" encoding="UTF-8"?>
<svg width="111px" height="646px" viewBox="1273 963 111 646" xmlns="http://www.w3.org/2000/svg" xmlns:xlink="http://www.w3.org/1999/xlink" version="1.1">
 <!-- Generated by Pixelmator Pro 2.3.3 -->
 <g id="flauta-nota-F">
  <path id="corpo-da-flauta" d="M1343.938 1022.678 C1322.364 1022.678 1304.875 1040.167 1304.875 1061.741 L1304.875 1569.553 C1304.875 1591.127 1322.364 1608.616 1343.938 1608.616 L1343.938 1608.616 C1365.511 1608.616 1383 1591.127 1383 1569.553 L1383 1061.741 C1383 1040.167 1365.511 1022.678 1343.938 1022.678 Z" fill="#fce5cd" fill-opacity="1" stroke="none"/>
  <defs>
   <path id="F" d="M1353.104 968.9 C1353.056 969.284 1352.888 969.692 1352.6 970.124 1352.24 970.628 1351.832 970.904 1351.376 970.952 1351.208 970.976 1350.992 970.934 1350.728 970.826 1350.464 970.718 1350.26 970.664 1350.116 970.664 1349.684 970.664 1348.652 971.012 1347.02 971.708 1345.244 972.452 1343.96 973.136 1343.168 973.76 L1343.168 980.348 C1343.288 980.3 1343.852 979.964 1344.86 979.34 1345.532 978.932 1346.072 978.716 1346.48 978.692 1346.912 978.668 1347.716 979.34 1348.892 980.708 1350.068 982.076 1350.632 982.988 1350.584 983.444 1350.536 983.876 1350.296 984.308 1349.864 984.74 1349.528 985.076 1349.192 985.292 1348.856 985.388 1348.712 985.436 1348.52 985.406 1348.28 985.298 1348.04 985.19 1347.872 985.136 1347.776 985.136 1347.704 985.136 1347.632 985.16 1347.56 985.208 1346.864 985.496 1346.252 985.76 1345.724 986 1344.404 986.6 1343.552 987.092 1343.168 987.476 L1343.168 992.732 C1343.168 992.948 1343.294 993.206 1343.546 993.506 1343.798 993.806 1343.924 994.124 1343.924 994.46 1343.876 995.804 1343.24 996.608 1342.016 996.872 1340.672 996.248 1339.532 995.564 1338.596 994.82 1337.564 993.98 1337.048 993.248 1337.048 992.624 L1337.048 968.828 C1337.048 968.444 1336.91 968.054 1336.634 967.658 1336.358 967.262 1336.244 966.968 1336.292 966.776 1336.364 966.392 1336.592 966.026 1336.976 965.678 1337.36 965.33 1337.792 965.132 1338.272 965.084 1338.488 965.06 1339.148 965.402 1340.252 966.11 1341.356 966.818 1342.088 967.208 1342.448 967.28 L1346.408 965.66 C1346.72 965.42 1347.26 965.144 1348.028 964.832 1348.628 964.76 1349.636 965.294 1351.052 966.434 1352.468 967.574 1353.152 968.396 1353.104 968.9 Z"/>
  </defs>
  <use id="F-1" xlink:href="#F" fill="#c53923" fill-opacity="1" stroke="none"/>
  <use id="F-2" xlink:href="#F" fill="#be121e" fill-opacity="1" stroke="none"/>
  <g id="furos-baixo">
   <g id="furo-duplo">
    <defs>
     <path id="furo-grande" d="M1355.656 1520.725 C1355.656 1514.253 1350.41 1509.006 1343.938 1509.006 1337.465 1509.006 1332.219 1514.253 1332.219 1520.725 1332.219 1527.197 1337.465 1532.444 1343.938 1532.444 1350.41 1532.444 1355.656 1527.197 1355.656 1520.725 Z"/>
    </defs>
    <defs>
     <path id="stroke-path" d="M1346.656 1531.109 L1348.547 1530.406 1351.844 1527.938 1353.984 1524.406 1354.641 1520.734 1353.984 1517.063 1351.844 1513.516 1348.547 1511.063 1346.656 1510.359 1343.938 1510.031 1341.203 1510.359 1339.313 1511.063 1336.016 1513.516 1333.875 1517.063 1333.234 1520.734 1333.875 1524.406 1336.016 1527.938 1339.313 1530.406 1341.203 1531.109 1343.938 1531.438 Z"/>
    </defs>
    <use id="furo-grande-1" stroke="#000000" stroke-opacity="1" stroke-linecap="round" fill="none" stroke-width="2" xlink:href="#stroke-path"/>
    <defs>
     <path id="furo-menor" d="M1373.234 1520.725 C1373.234 1517.489 1370.611 1514.866 1367.375 1514.866 1364.139 1514.866 1361.516 1517.489 1361.516 1520.725 1361.516 1523.961 1364.139 1526.584 1367.375 1526.584 1370.611 1526.584 1373.234 1523.961 1373.234 1520.725 Z"/>
    </defs>
    <defs>
     <path id="stroke-path-1" d="M1369.031 1525.281 L1370.641 1524.313 1371.734 1522.859 1372.219 1520.734 1371.734 1518.609 1370.641 1517.156 1369.031 1516.188 1367.375 1515.891 1365.703 1516.188 1364.094 1517.156 1363 1518.609 1362.531 1520.734 1363 1522.859 1364.094 1524.313 1365.703 1525.281 1367.375 1525.578 Z"/>
    </defs>
    <use id="furo-menor-1" stroke="#000000" stroke-opacity="1" stroke-linecap="round" fill="none" stroke-width="2" xlink:href="#stroke-path-1"/>
   </g>
   <g id="furo-duplo-1">
    <path id="furo-grande-2" d="M1355.656 1462.131 C1355.656 1455.659 1350.41 1450.412 1343.938 1450.412 1337.465 1450.412 1332.219 1455.659 1332.219 1462.131 1332.219 1468.603 1337.465 1473.85 1343.938 1473.85 1350.41 1473.85 1355.656 1468.603 1355.656 1462.131 Z" fill="#000000" fill-opacity="1" stroke="none"/>
    <path id="furo-menor-2" d="M1373.234 1462.131 C1373.234 1458.895 1370.611 1456.272 1367.375 1456.272 1364.139 1456.272 1361.516 1458.895 1361.516 1462.131 1361.516 1465.367 1364.139 1467.991 1367.375 1467.991 1370.611 1467.991 1373.234 1465.367 1373.234 1462.131 Z" fill="#000000" fill-opacity="1" stroke="none"/>
   </g>
   <defs>
    <path id="furo" d="M1355.656 1403.537 C1355.656 1397.065 1350.41 1391.819 1343.938 1391.819 1337.465 1391.819 1332.219 1397.065 1332.219 1403.537 1332.219 1410.01 1337.465 1415.256 1343.938 1415.256 1350.41 1415.256 1355.656 1410.01 1355.656 1403.537 Z"/>
   </defs>
   <defs>
    <path id="stroke-path-2" d="M1346.656 1413.922 L1348.547 1413.219 1351.844 1410.75 1353.984 1407.219 1354.641 1403.547 1353.984 1399.875 1351.844 1396.328 1348.547 1393.875 1346.656 1393.172 1343.938 1392.844 1341.203 1393.172 1339.313 1393.875 1336.016 1396.328 1333.875 1399.875 1333.234 1403.547 1333.875 1407.219 1336.016 1410.75 1339.313 1413.219 1341.203 1413.922 1343.938 1414.25 Z"/>
   </defs>
   <use id="furo-1" stroke="#000000" stroke-opacity="1" stroke-linecap="round" fill="none" stroke-width="2" xlink:href="#stroke-path-2"/>
   <path id="furo-2" d="M1355.656 1344.944 C1355.656 1338.472 1350.41 1333.225 1343.938 1333.225 1337.465 1333.225 1332.219 1338.472 1332.219 1344.944 1332.219 1351.416 1337.465 1356.662 1343.938 1356.662 1350.41 1356.662 1355.656 1351.416 1355.656 1344.944 Z" fill="#000000" fill-opacity="1" stroke="none"/>
  </g>
  <g id="furos-cima">
   <path id="furo-3" d="M1355.656 1227.756 C1355.656 1221.284 1350.41 1216.037 1343.938 1216.037 1337.465 1216.037 1332.219 1221.284 1332.219 1227.756 1332.219 1234.228 1337.465 1239.475 1343.938 1239.475 1350.41 1239.475 1355.656 1234.228 1355.656 1227.756 Z" fill="#000000" fill-opacity="1" stroke="none"/>
   <path id="furo-2" d="M1355.656 1169.162 C1355.656 1162.69 1350.41 1157.444 1343.938 1157.444 1337.465 1157.444 1332.219 1162.69 1332.219 1169.162 1332.219 1175.635 1337.465 1180.881 1343.938 1180.881 1350.41 1180.881 1355.656 1175.635 1355.656 1169.162 Z" fill="#000000" fill-opacity="1" stroke="none"/>
   <path id="furo-1" d="M1355.656 1110.569 C1355.656 1104.097 1350.41 1098.85 1343.938 1098.85 1337.465 1098.85 1332.219 1104.097 1332.219 1110.569 1332.219 1117.041 1337.465 1122.287 1343.938 1122.287 1350.41 1122.287 1355.656 1117.041 1355.656 1110.569 Z" fill="#000000" fill-opacity="1" stroke="none"/>
   <g id="furo-traseiro">
    <defs>
     <path id="furo-tras-base" d="M1297.063 1110.569 C1297.063 1104.097 1291.816 1098.85 1285.344 1098.85 1278.872 1098.85 1273.625 1104.097 1273.625 1110.569 1273.625 1117.041 1278.872 1122.287 1285.344 1122.287 1291.816 1122.287 1297.063 1117.041 1297.063 1110.569 Z"/>
    </defs>
    <defs>
     <path id="stroke-path-3" d="M1289.016 1120.641 L1292.547 1118.484 1295.016 1115.188 1295.719 1113.234 1296.063 1110.625 1295.391 1106.906 1293.25 1103.359 1289.953 1100.906 1288.063 1100.203 1285.344 1099.875 1281.656 1100.516 1278.125 1102.672 1275.656 1105.969 1274.969 1107.844 1274.641 1110.578 1275.281 1114.25 1277.422 1117.781 1280.719 1120.25 1282.609 1120.953 1285.344 1121.281 Z"/>
    </defs>
    <use id="furo-tras-base-1" stroke="#000000" stroke-opacity="1" stroke-linecap="round" fill="none" stroke-width="2" xlink:href="#stroke-path-3"/>
    <path id="Retângulo" d="M1285.344 1122.287 C1278.872 1122.287 1273.625 1117.041 1273.625 1110.569 L1297.063 1110.569 C1297.063 1117.041 1291.816 1122.287 1285.344 1122.287 Z" fill="#000000" fill-opacity="1" stroke="none"/>
    <path id="furo-tras-copiar" d="M1273.625 1110.569 C1273.625 1104.097 1278.872 1098.85 1285.344 1098.85 1291.816 1098.85 1297.063 1104.097 1297.063 1110.569 L1273.625 1110.569 Z" fill="none" stroke="none"/>
   </g>
  </g>
 </g>
</svg>
