<?xml version="1.0" encoding="UTF-8"?>
<svg width="111px" height="646px" viewBox="1505 963 111 646" xmlns="http://www.w3.org/2000/svg" xmlns:xlink="http://www.w3.org/1999/xlink" version="1.1">
 <!-- Generated by Pixelmator Pro 2.3.3 -->
 <g id="flauta-nota-F#">
  <path id="corpo-da-flauta" d="M1575.938 1022.678 C1554.364 1022.678 1536.875 1040.167 1536.875 1061.741 L1536.875 1569.553 C1536.875 1591.127 1554.364 1608.616 1575.938 1608.616 L1575.938 1608.616 C1597.511 1608.616 1615 1591.127 1615 1569.553 L1615 1061.741 C1615 1040.167 1597.511 1022.678 1575.938 1022.678 Z" fill="#fce5cd" fill-opacity="1" stroke="none"/>
  <defs>
   <path id="F#" d="M1561.938 996.872 C1560.594 996.248 1559.454 995.563 1558.518 994.819 1557.486 993.979 1556.971 993.248 1556.971 992.624 L1556.971 968.827 C1556.971 968.443 1556.833 968.053 1556.557 967.657 1556.281 967.261 1556.165 966.968 1556.213 966.776 1556.285 966.392 1556.515 966.027 1556.899 965.679 1557.283 965.331 1557.714 965.133 1558.194 965.085 1558.41 965.061 1559.07 965.402 1560.174 966.11 1561.278 966.818 1562.009 967.208 1562.369 967.28 L1566.33 965.659 C1566.642 965.419 1567.182 965.145 1567.949 964.833 1568.55 964.761 1569.559 965.294 1570.975 966.435 1572.391 967.575 1573.074 968.395 1573.026 968.899 1572.978 969.283 1572.81 969.692 1572.522 970.124 1572.162 970.628 1571.753 970.904 1571.297 970.952 1571.129 970.976 1570.915 970.933 1570.651 970.825 1570.387 970.717 1570.181 970.665 1570.037 970.665 1569.605 970.665 1568.574 971.012 1566.942 971.708 1565.166 972.452 1563.882 973.137 1563.09 973.761 L1563.09 980.349 C1563.21 980.301 1563.774 979.965 1564.781 979.341 1565.453 978.933 1565.995 978.716 1566.403 978.692 1566.835 978.668 1567.639 979.34 1568.815 980.708 1569.991 982.076 1570.554 982.988 1570.506 983.444 1570.458 983.876 1570.217 984.307 1569.785 984.739 1569.449 985.075 1569.114 985.292 1568.778 985.388 1568.634 985.436 1568.441 985.406 1568.201 985.298 1567.961 985.19 1567.793 985.136 1567.698 985.136 1567.625 985.136 1567.555 985.16 1567.483 985.208 1566.787 985.496 1566.175 985.761 1565.647 986.001 1564.327 986.601 1563.474 987.091 1563.09 987.476 L1563.09 992.731 C1563.09 992.947 1563.217 993.207 1563.469 993.507 1563.721 993.807 1563.846 994.124 1563.846 994.46 1563.798 995.804 1563.162 996.608 1561.938 996.872 Z M1588.824 993.032 C1588.359 993.026 1587.659 992.776 1586.725 992.282 1585.657 991.718 1585.013 991.293 1584.797 991.005 1584.653 990.789 1584.582 990.548 1584.582 990.284 1584.582 990.02 1584.661 989.679 1584.817 989.259 1584.973 988.839 1585.051 988.568 1585.051 988.448 1585.075 988.112 1585.11 987.176 1585.158 985.64 L1583.106 985.64 C1583.082 987.296 1583.057 989.001 1583.033 990.753 1582.961 991.089 1582.758 991.387 1582.422 991.651 1582.086 991.915 1581.715 992.037 1581.307 992.013 1580.995 991.989 1580.275 991.561 1579.147 990.733 1578.019 989.905 1577.442 989.336 1577.418 989.024 1577.394 988.76 1577.489 988.46 1577.705 988.124 1577.921 987.788 1578.043 987.512 1578.067 987.296 L1578.067 985.64 C1577.467 985.64 1576.931 985.761 1576.463 986.001 1575.995 986.241 1575.678 986.347 1575.51 986.323 1575.198 986.299 1574.629 985.73 1573.801 984.614 1572.973 983.498 1572.546 982.759 1572.522 982.399 1572.498 981.991 1572.617 981.626 1572.881 981.302 1573.145 980.978 1573.446 980.78 1573.781 980.708 1575.03 980.708 1576.459 980.697 1578.067 980.673 L1578.067 978.585 C1577.011 978.585 1576.361 978.602 1576.121 978.638 1575.881 978.674 1575.594 978.776 1575.258 978.944 1574.922 979.112 1574.635 979.183 1574.395 979.159 1573.867 979.111 1573.247 978.62 1572.539 977.685 1571.831 976.748 1571.479 975.896 1571.479 975.128 1571.479 974.36 1571.898 973.892 1572.739 973.724 1573.002 973.676 1574.779 973.627 1578.067 973.579 L1578.067 972.536 C1578.067 972.392 1578.012 972.013 1577.905 971.401 1577.797 970.789 1577.742 970.304 1577.742 969.944 1577.742 969.008 1578.138 968.54 1578.93 968.54 1579.578 968.54 1580.347 968.684 1581.235 968.972 1582.219 969.284 1582.866 969.633 1583.178 970.017 1583.298 970.209 1583.358 971.373 1583.358 973.509 L1585.086 973.509 C1585.134 970.677 1585.248 969.134 1585.428 968.882 1585.608 968.63 1585.987 968.505 1586.563 968.505 1587.643 968.505 1588.926 968.876 1590.414 969.62 1590.654 969.74 1590.774 969.968 1590.774 970.304 1590.774 970.52 1590.695 970.861 1590.539 971.329 1590.383 971.797 1590.307 972.092 1590.307 972.212 L1590.307 973.472 C1591.123 973.448 1591.781 973.436 1592.285 973.436 1592.405 973.436 1592.706 973.352 1593.186 973.185 1593.666 973.016 1594.026 972.933 1594.266 972.933 1594.578 972.933 1594.794 973.052 1594.914 973.292 1595.658 974.756 1596.03 976.039 1596.03 977.143 1596.03 977.744 1595.886 978.152 1595.598 978.368 1595.406 978.512 1593.63 978.585 1590.27 978.585 1590.246 978.993 1590.235 979.581 1590.235 980.349 1592.899 980.349 1594.326 980.419 1594.518 980.563 1594.902 980.875 1595.251 981.525 1595.563 982.509 1595.851 983.397 1595.994 984.163 1595.994 984.811 1595.994 985.603 1595.526 986.001 1594.59 986.001 1594.254 986.001 1593.775 985.939 1593.151 985.819 1592.527 985.699 1592.142 985.64 1591.998 985.64 L1590.198 985.64 C1590.15 987.536 1590.079 989.588 1589.983 991.796 1589.839 992.54 1589.514 992.948 1589.01 993.02 1588.953 993.029 1588.891 993.033 1588.824 993.032 Z M1583.25 980.491 C1584.114 980.443 1584.737 980.421 1585.121 980.421 L1585.121 978.585 1583.323 978.585 C1583.323 978.993 1583.298 979.627 1583.25 980.491 Z"/>
  </defs>
  <use id="F#-1" xlink:href="#F#" fill="#c53923" fill-opacity="1" stroke="none"/>
  <use id="F#-2" xlink:href="#F#" fill="#be121e" fill-opacity="1" stroke="none"/>
  <g id="furos-baixo">
   <g id="furo-duplo">
    <defs>
     <path id="furo-grande" d="M1587.656 1520.725 C1587.656 1514.253 1582.41 1509.006 1575.938 1509.006 1569.465 1509.006 1564.219 1514.253 1564.219 1520.725 1564.219 1527.197 1569.465 1532.444 1575.938 1532.444 1582.41 1532.444 1587.656 1527.197 1587.656 1520.725 Z"/>
    </defs>
    <defs>
     <path id="stroke-path" d="M1578.656 1531.109 L1580.547 1530.406 1583.844 1527.938 1585.984 1524.406 1586.641 1520.734 1585.984 1517.063 1583.844 1513.516 1580.547 1511.063 1578.656 1510.359 1575.938 1510.031 1573.203 1510.359 1571.313 1511.063 1568.016 1513.516 1565.875 1517.063 1565.234 1520.734 1565.875 1524.406 1568.016 1527.938 1571.313 1530.406 1573.203 1531.109 1575.938 1531.438 Z"/>
    </defs>
    <use id="furo-grande-1" stroke="#000000" stroke-opacity="1" stroke-linecap="round" fill="none" stroke-width="2" xlink:href="#stroke-path"/>
    <defs>
     <path id="furo-menor" d="M1605.234 1520.725 C1605.234 1517.489 1602.611 1514.866 1599.375 1514.866 1596.139 1514.866 1593.516 1517.489 1593.516 1520.725 1593.516 1523.961 1596.139 1526.584 1599.375 1526.584 1602.611 1526.584 1605.234 1523.961 1605.234 1520.725 Z"/>
    </defs>
    <defs>
     <path id="stroke-path-1" d="M1601.031 1525.281 L1602.641 1524.313 1603.734 1522.859 1604.219 1520.734 1603.734 1518.609 1602.641 1517.156 1601.031 1516.188 1599.375 1515.891 1597.703 1516.188 1596.094 1517.156 1595 1518.609 1594.531 1520.734 1595 1522.859 1596.094 1524.313 1597.703 1525.281 1599.375 1525.578 Z"/>
    </defs>
    <use id="furo-menor-1" stroke="#000000" stroke-opacity="1" stroke-linecap="round" fill="none" stroke-width="2" xlink:href="#stroke-path-1"/>
   </g>
   <g id="furo-duplo-1">
    <defs>
     <path id="furo-grande-2" d="M1587.656 1462.131 C1587.656 1455.659 1582.41 1450.412 1575.938 1450.412 1569.465 1450.412 1564.219 1455.659 1564.219 1462.131 1564.219 1468.603 1569.465 1473.85 1575.938 1473.85 1582.41 1473.85 1587.656 1468.603 1587.656 1462.131 Z"/>
    </defs>
    <defs>
     <path id="stroke-path-2" d="M1578.656 1472.516 L1580.547 1471.813 1583.844 1469.344 1585.984 1465.813 1586.641 1462.141 1585.984 1458.469 1583.844 1454.922 1580.547 1452.469 1578.656 1451.766 1575.938 1451.438 1573.203 1451.766 1571.313 1452.469 1568.016 1454.922 1565.875 1458.469 1565.234 1462.141 1565.875 1465.813 1568.016 1469.344 1571.313 1471.813 1573.203 1472.516 1575.938 1472.844 Z"/>
    </defs>
    <use id="furo-grande-3" stroke="#000000" stroke-opacity="1" stroke-linecap="round" fill="none" stroke-width="2" xlink:href="#stroke-path-2"/>
    <defs>
     <path id="furo-menor-2" d="M1605.234 1462.131 C1605.234 1458.895 1602.611 1456.272 1599.375 1456.272 1596.139 1456.272 1593.516 1458.895 1593.516 1462.131 1593.516 1465.367 1596.139 1467.991 1599.375 1467.991 1602.611 1467.991 1605.234 1465.367 1605.234 1462.131 Z"/>
    </defs>
    <defs>
     <path id="stroke-path-3" d="M1601.031 1466.688 L1602.641 1465.719 1603.734 1464.266 1604.219 1462.141 1603.734 1460.016 1602.641 1458.563 1601.031 1457.594 1599.375 1457.297 1597.703 1457.594 1596.094 1458.563 1595 1460.016 1594.531 1462.141 1595 1464.266 1596.094 1465.719 1597.703 1466.688 1599.375 1466.984 Z"/>
    </defs>
    <use id="furo-menor-3" stroke="#000000" stroke-opacity="1" stroke-linecap="round" fill="none" stroke-width="2" xlink:href="#stroke-path-3"/>
   </g>
   <path id="furo" d="M1587.656 1403.537 C1587.656 1397.065 1582.41 1391.819 1575.938 1391.819 1569.465 1391.819 1564.219 1397.065 1564.219 1403.537 1564.219 1410.01 1569.465 1415.256 1575.938 1415.256 1582.41 1415.256 1587.656 1410.01 1587.656 1403.537 Z" fill="#000000" fill-opacity="1" stroke="none"/>
   <defs>
    <path id="furo-1" d="M1587.656 1344.944 C1587.656 1338.472 1582.41 1333.225 1575.938 1333.225 1569.465 1333.225 1564.219 1338.472 1564.219 1344.944 1564.219 1351.416 1569.465 1356.662 1575.938 1356.662 1582.41 1356.662 1587.656 1351.416 1587.656 1344.944 Z"/>
   </defs>
   <defs>
    <path id="stroke-path-4" d="M1578.656 1355.328 L1580.547 1354.625 1583.844 1352.156 1585.984 1348.625 1586.641 1344.953 1585.984 1341.281 1583.844 1337.734 1580.547 1335.281 1578.656 1334.578 1575.938 1334.25 1573.203 1334.578 1571.313 1335.281 1568.016 1337.734 1565.875 1341.281 1565.234 1344.953 1565.875 1348.625 1568.016 1352.156 1571.313 1354.625 1573.203 1355.328 1575.938 1355.656 Z"/>
   </defs>
   <use id="furo-2" stroke="#000000" stroke-opacity="1" stroke-linecap="round" fill="none" stroke-width="2" xlink:href="#stroke-path-4"/>
  </g>
  <g id="furos-cima">
   <path id="furo-3" d="M1587.656 1227.756 C1587.656 1221.284 1582.41 1216.037 1575.938 1216.037 1569.465 1216.037 1564.219 1221.284 1564.219 1227.756 1564.219 1234.228 1569.465 1239.475 1575.938 1239.475 1582.41 1239.475 1587.656 1234.228 1587.656 1227.756 Z" fill="#000000" fill-opacity="1" stroke="none"/>
   <path id="furo-2" d="M1587.656 1169.162 C1587.656 1162.69 1582.41 1157.444 1575.938 1157.444 1569.465 1157.444 1564.219 1162.69 1564.219 1169.162 1564.219 1175.635 1569.465 1180.881 1575.938 1180.881 1582.41 1180.881 1587.656 1175.635 1587.656 1169.162 Z" fill="#000000" fill-opacity="1" stroke="none"/>
   <path id="furo-1" d="M1587.656 1110.569 C1587.656 1104.097 1582.41 1098.85 1575.938 1098.85 1569.465 1098.85 1564.219 1104.097 1564.219 1110.569 1564.219 1117.041 1569.465 1122.287 1575.938 1122.287 1582.41 1122.287 1587.656 1117.041 1587.656 1110.569 Z" fill="#000000" fill-opacity="1" stroke="none"/>
   <g id="furo-traseiro">
    <defs>
     <path id="furo-tras-base" d="M1529.063 1110.569 C1529.063 1104.097 1523.816 1098.85 1517.344 1098.85 1510.872 1098.85 1505.625 1104.097 1505.625 1110.569 1505.625 1117.041 1510.872 1122.287 1517.344 1122.287 1523.816 1122.287 1529.063 1117.041 1529.063 1110.569 Z"/>
    </defs>
    <defs>
     <path id="stroke-path-5" d="M1521.016 1120.641 L1524.547 1118.484 1527.016 1115.188 1527.719 1113.234 1528.063 1110.625 1527.391 1106.906 1525.25 1103.359 1521.953 1100.906 1520.063 1100.203 1517.344 1099.875 1513.656 1100.516 1510.125 1102.672 1507.656 1105.969 1506.969 1107.844 1506.641 1110.578 1507.281 1114.25 1509.422 1117.781 1512.719 1120.25 1514.609 1120.953 1517.344 1121.281 Z"/>
    </defs>
    <use id="furo-tras-base-1" stroke="#000000" stroke-opacity="1" stroke-linecap="round" fill="none" stroke-width="2" xlink:href="#stroke-path-5"/>
    <path id="Retângulo" d="M1517.344 1122.287 C1510.872 1122.287 1505.625 1117.041 1505.625 1110.569 L1529.063 1110.569 C1529.063 1117.041 1523.816 1122.287 1517.344 1122.287 Z" fill="#000000" fill-opacity="1" stroke="none"/>
    <path id="furo-tras-copiar" d="M1505.625 1110.569 C1505.625 1104.097 1510.872 1098.85 1517.344 1098.85 1523.816 1098.85 1529.063 1104.097 1529.063 1110.569 L1505.625 1110.569 Z" fill="none" stroke="none"/>
   </g>
  </g>
 </g>
</svg>
