<?xml version="1.0" encoding="UTF-8"?>
<svg width="111px" height="644px" viewBox="2200 965 111 644" xmlns="http://www.w3.org/2000/svg" xmlns:xlink="http://www.w3.org/1999/xlink" version="1.1">
 <!-- Generated by Pixelmator Pro 2.3.3 -->
 <g id="flauta-nota-A">
  <path id="corpo-da-flauta" d="M2270.938 1022.678 C2249.364 1022.678 2231.875 1040.167 2231.875 1061.741 L2231.875 1569.553 C2231.875 1591.127 2249.364 1608.616 2270.938 1608.616 L2270.938 1608.616 C2292.511 1608.616 2310 1591.127 2310 1569.553 L2310 1061.741 C2310 1040.167 2292.511 1022.678 2270.938 1022.678 Z" fill="#fce5cd" fill-opacity="1" stroke="none"/>
  <defs>
   <path id="A" d="M2282.912 993.524 C2282.888 993.74 2282.84 994.256 2282.768 995.072 2282.744 995.504 2282.648 995.828 2282.48 996.044 2282.36 996.116 2282.156 996.152 2281.868 996.152 2281.076 996.152 2280.092 995.948 2278.916 995.54 2277.644 995.156 2276.78 994.7 2276.324 994.172 2276.132 993.956 2275.94 993.236 2275.748 992.012 2275.484 990.404 2275.184 989.072 2274.848 988.016 2273.936 988.136 2272.604 988.466 2270.852 989.006 2269.1 989.546 2267.96 989.996 2267.432 990.356 2267.072 991.388 2266.592 992.66 2265.992 994.172 2265.92 994.508 2265.842 994.826 2265.758 995.126 2265.674 995.426 2265.464 995.672 2265.128 995.864 2265.056 995.912 2264.948 995.936 2264.804 995.936 2264.228 995.936 2263.262 995.636 2261.906 995.036 2260.55 994.436 2259.848 994.04 2259.8 993.848 2259.704 993.512 2259.932 992.684 2260.484 991.364 2261.252 989.444 2261.696 988.268 2261.816 987.836 2261.312 987.332 2261.06 986.828 2261.06 986.324 2261.06 986.204 2261.072 986.072 2261.096 985.928 2261.144 985.64 2261.876 985.124 2263.292 984.38 L2267.936 968.504 C2268.008 968.216 2268.02 967.688 2267.972 966.92 2267.924 966.272 2267.996 965.864 2268.188 965.696 2268.308 965.576 2268.596 965.516 2269.052 965.516 2270.18 965.516 2271.788 965.804 2273.876 966.38 2275.964 966.956 2277.212 967.472 2277.62 967.928 2277.764 970.592 2278.304 974.588 2279.24 979.916 2280.44 986.492 2281.664 991.028 2282.912 993.524 Z M2273.516 982.58 C2273.204 981.068 2273.012 980.072 2272.94 979.592 2272.676 977.984 2272.496 976.316 2272.4 974.588 2271.92 975.764 2271.356 977.396 2270.708 979.484 2270.012 981.668 2269.64 983.036 2269.592 983.588 2270.048 983.396 2271.356 983.06 2273.516 982.58 Z"/>
  </defs>
  <use id="A-1" xlink:href="#A" fill="#c53923" fill-opacity="1" stroke="none"/>
  <use id="A-2" xlink:href="#A" fill="#be121e" fill-opacity="1" stroke="none"/>
  <g id="furos-baixo">
   <g id="furo-duplo">
    <defs>
     <path id="furo-grande" d="M2282.656 1520.725 C2282.656 1514.253 2277.41 1509.006 2270.938 1509.006 2264.465 1509.006 2259.219 1514.253 2259.219 1520.725 2259.219 1527.197 2264.465 1532.444 2270.938 1532.444 2277.41 1532.444 2282.656 1527.197 2282.656 1520.725 Z"/>
    </defs>
    <defs>
     <path id="stroke-path" d="M2274.609 1530.797 L2278.141 1528.641 2280.609 1525.344 2281.313 1523.391 2281.656 1520.734 2281.313 1518.063 2280.609 1516.125 2278.141 1512.828 2274.609 1510.672 2270.938 1510.031 2267.25 1510.672 2263.719 1512.828 2261.25 1516.125 2260.563 1518 2260.234 1520.734 2260.563 1523.469 2261.25 1525.344 2263.719 1528.641 2267.25 1530.797 2270.938 1531.438 Z"/>
    </defs>
    <use id="furo-grande-1" stroke="#000000" stroke-opacity="1" stroke-linecap="round" fill="none" stroke-width="2" xlink:href="#stroke-path"/>
    <defs>
     <path id="furo-menor" d="M2300.234 1520.725 C2300.234 1517.489 2297.611 1514.866 2294.375 1514.866 2291.139 1514.866 2288.516 1517.489 2288.516 1520.725 2288.516 1523.961 2291.139 1526.584 2294.375 1526.584 2297.611 1526.584 2300.234 1523.961 2300.234 1520.725 Z"/>
    </defs>
    <defs>
     <path id="stroke-path-1" d="M2296.484 1525.094 L2297.938 1524 2298.922 1522.375 2299.219 1520.734 2298.922 1519.094 2297.938 1517.469 2296.484 1516.375 2294.375 1515.891 2292.25 1516.375 2290.797 1517.469 2289.813 1519.078 2289.531 1520.734 2289.813 1522.391 2290.797 1524 2292.25 1525.094 2294.375 1525.578 Z"/>
    </defs>
    <use id="furo-menor-1" stroke="#000000" stroke-opacity="1" stroke-linecap="round" fill="none" stroke-width="2" xlink:href="#stroke-path-1"/>
   </g>
   <g id="furo-duplo-1">
    <defs>
     <path id="furo-grande-2" d="M2282.656 1462.131 C2282.656 1455.659 2277.41 1450.412 2270.938 1450.412 2264.465 1450.412 2259.219 1455.659 2259.219 1462.131 2259.219 1468.603 2264.465 1473.85 2270.938 1473.85 2277.41 1473.85 2282.656 1468.603 2282.656 1462.131 Z"/>
    </defs>
    <defs>
     <path id="stroke-path-2" d="M2274.609 1472.203 L2278.141 1470.047 2280.609 1466.75 2281.313 1464.797 2281.656 1462.141 2281.313 1459.469 2280.609 1457.531 2278.141 1454.234 2274.609 1452.078 2270.938 1451.438 2267.25 1452.078 2263.719 1454.234 2261.25 1457.531 2260.563 1459.406 2260.234 1462.141 2260.563 1464.875 2261.25 1466.75 2263.719 1470.047 2267.25 1472.203 2270.938 1472.844 Z"/>
    </defs>
    <use id="furo-grande-3" stroke="#000000" stroke-opacity="1" stroke-linecap="round" fill="none" stroke-width="2" xlink:href="#stroke-path-2"/>
    <defs>
     <path id="furo-menor-2" d="M2300.234 1462.131 C2300.234 1458.895 2297.611 1456.272 2294.375 1456.272 2291.139 1456.272 2288.516 1458.895 2288.516 1462.131 2288.516 1465.367 2291.139 1467.991 2294.375 1467.991 2297.611 1467.991 2300.234 1465.367 2300.234 1462.131 Z"/>
    </defs>
    <defs>
     <path id="stroke-path-3" d="M2296.484 1466.5 L2297.938 1465.406 2298.922 1463.781 2299.219 1462.141 2298.922 1460.5 2297.938 1458.875 2296.484 1457.781 2294.375 1457.297 2292.25 1457.781 2290.797 1458.875 2289.813 1460.484 2289.531 1462.141 2289.813 1463.797 2290.797 1465.406 2292.25 1466.5 2294.375 1466.984 Z"/>
    </defs>
    <use id="furo-menor-3" stroke="#000000" stroke-opacity="1" stroke-linecap="round" fill="none" stroke-width="2" xlink:href="#stroke-path-3"/>
   </g>
   <defs>
    <path id="furo" d="M2282.656 1403.537 C2282.656 1397.065 2277.41 1391.819 2270.938 1391.819 2264.465 1391.819 2259.219 1397.065 2259.219 1403.537 2259.219 1410.01 2264.465 1415.256 2270.938 1415.256 2277.41 1415.256 2282.656 1410.01 2282.656 1403.537 Z"/>
   </defs>
   <defs>
    <path id="stroke-path-4" d="M2274.609 1413.609 L2278.141 1411.453 2280.609 1408.156 2281.313 1406.203 2281.656 1403.547 2281.313 1400.875 2280.609 1398.938 2278.141 1395.641 2274.609 1393.484 2270.938 1392.844 2267.25 1393.484 2263.719 1395.641 2261.25 1398.938 2260.563 1400.813 2260.234 1403.547 2260.563 1406.281 2261.25 1408.156 2263.719 1411.453 2267.25 1413.609 2270.938 1414.25 Z"/>
   </defs>
   <use id="furo-1" stroke="#000000" stroke-opacity="1" stroke-linecap="round" fill="none" stroke-width="2" xlink:href="#stroke-path-4"/>
   <defs>
    <path id="furo-2" d="M2282.656 1344.944 C2282.656 1338.472 2277.41 1333.225 2270.938 1333.225 2264.465 1333.225 2259.219 1338.472 2259.219 1344.944 2259.219 1351.416 2264.465 1356.662 2270.938 1356.662 2277.41 1356.662 2282.656 1351.416 2282.656 1344.944 Z"/>
   </defs>
   <defs>
    <path id="stroke-path-5" d="M2274.609 1355.016 L2278.141 1352.859 2280.609 1349.563 2281.313 1347.609 2281.656 1344.953 2281.313 1342.281 2280.609 1340.344 2278.141 1337.047 2274.609 1334.891 2270.938 1334.25 2267.25 1334.891 2263.719 1337.047 2261.25 1340.344 2260.563 1342.219 2260.234 1344.953 2260.563 1347.688 2261.25 1349.563 2263.719 1352.859 2267.25 1355.016 2270.938 1355.656 Z"/>
   </defs>
   <use id="furo-3" stroke="#000000" stroke-opacity="1" stroke-linecap="round" fill="none" stroke-width="2" xlink:href="#stroke-path-5"/>
  </g>
  <g id="furos-cima">
   <defs>
    <path id="furo-3" d="M2282.656 1227.756 C2282.656 1221.284 2277.41 1216.037 2270.938 1216.037 2264.465 1216.037 2259.219 1221.284 2259.219 1227.756 2259.219 1234.228 2264.465 1239.475 2270.938 1239.475 2277.41 1239.475 2282.656 1234.228 2282.656 1227.756 Z"/>
   </defs>
   <defs>
    <path id="stroke-path-6" d="M2274.609 1237.828 L2278.141 1235.672 2280.609 1232.375 2281.313 1230.422 2281.656 1227.766 2281.313 1225.094 2280.609 1223.156 2278.141 1219.859 2274.609 1217.703 2270.938 1217.063 2267.25 1217.703 2263.719 1219.859 2261.25 1223.156 2260.563 1225.031 2260.234 1227.766 2260.563 1230.5 2261.25 1232.375 2263.719 1235.672 2267.25 1237.828 2270.938 1238.469 Z"/>
   </defs>
   <use id="furo-3-1" stroke="#000000" stroke-opacity="1" stroke-linecap="round" fill="none" stroke-width="2" xlink:href="#stroke-path-6"/>
   <path id="furo-2" d="M2282.656 1169.162 C2282.656 1162.69 2277.41 1157.444 2270.938 1157.444 2264.465 1157.444 2259.219 1162.69 2259.219 1169.162 2259.219 1175.635 2264.465 1180.881 2270.938 1180.881 2277.41 1180.881 2282.656 1175.635 2282.656 1169.162 Z" fill="#000000" fill-opacity="1" stroke="none"/>
   <path id="furo-1" d="M2282.656 1110.569 C2282.656 1104.097 2277.41 1098.85 2270.938 1098.85 2264.465 1098.85 2259.219 1104.097 2259.219 1110.569 2259.219 1117.041 2264.465 1122.287 2270.938 1122.287 2277.41 1122.287 2282.656 1117.041 2282.656 1110.569 Z" fill="#000000" fill-opacity="1" stroke="none"/>
   <g id="furo-traseiro">
    <defs>
     <path id="furo-tras-base" d="M2224.063 1110.569 C2224.063 1104.097 2218.816 1098.85 2212.344 1098.85 2205.872 1098.85 2200.625 1104.097 2200.625 1110.569 2200.625 1117.041 2205.872 1122.287 2212.344 1122.287 2218.816 1122.287 2224.063 1117.041 2224.063 1110.569 Z"/>
    </defs>
    <defs>
     <path id="stroke-path-7" d="M2216.016 1120.641 L2219.547 1118.484 2222.016 1115.188 2222.719 1113.234 2223.063 1110.578 2222.719 1107.906 2222.016 1105.969 2219.547 1102.672 2216.016 1100.516 2212.344 1099.875 2208.656 1100.516 2205.125 1102.672 2202.656 1105.969 2201.969 1107.844 2201.641 1110.578 2201.969 1113.313 2202.656 1115.188 2205.125 1118.484 2208.656 1120.641 2212.344 1121.281 Z"/>
    </defs>
    <use id="furo-tras-base-1" stroke="#000000" stroke-opacity="1" stroke-linecap="round" fill="none" stroke-width="2" xlink:href="#stroke-path-7"/>
    <path id="Retângulo" d="M2212.344 1122.287 C2205.872 1122.287 2200.625 1117.041 2200.625 1110.569 L2224.063 1110.569 C2224.063 1117.041 2218.816 1122.287 2212.344 1122.287 Z" fill="#000000" fill-opacity="1" stroke="none"/>
    <path id="furo-tras-copiar" d="M2200.625 1110.569 C2200.625 1104.097 2205.872 1098.85 2212.344 1098.85 2218.816 1098.85 2224.063 1104.097 2224.063 1110.569 L2200.625 1110.569 Z" fill="none" stroke="none"/>
   </g>
  </g>
 </g>
</svg>
