<?xml version="1.0" encoding="UTF-8"?>
<svg width="111px" height="644px" viewBox="115 965 111 644" xmlns="http://www.w3.org/2000/svg" xmlns:xlink="http://www.w3.org/1999/xlink" version="1.1">
 <!-- Generated by Pixelmator Pro 2.3.3 -->
 <g id="flauta-nota-C">
  <path id="corpo-da-flauta" d="M185.313 1022.678 C163.739 1022.678 146.25 1040.167 146.25 1061.741 L146.25 1569.553 C146.25 1591.127 163.739 1608.616 185.313 1608.616 L185.313 1608.616 C206.886 1608.616 224.375 1591.127 224.375 1569.553 L224.375 1061.741 C224.375 1040.167 206.886 1022.678 185.313 1022.678 Z" fill="#fce5cd" fill-opacity="1" stroke="none"/>
  <defs>
   <path id="C" d="M192.932 987.944 C192.86 988.544 192.632 989.024 192.248 989.384 191.552 990.872 190.484 992.372 189.044 993.884 187.484 995.492 186.224 996.296 185.264 996.296 185.12 996.296 184.988 996.284 184.868 996.26 183.812 995.924 182.624 995.504 181.304 995 178.952 994.04 177.152 992.204 175.904 989.492 174.8 987.044 174.248 984.2 174.248 980.96 174.248 977 175.004 973.508 176.516 970.484 178.124 967.268 180.14 965.6 182.564 965.48 183.5 965.432 184.874 965.912 186.686 966.92 188.498 967.928 189.692 968.93 190.268 969.926 190.844 970.922 191.24 973.1 191.456 976.46 191.504 977.18 191.408 977.912 191.168 978.656 190.88 979.544 190.508 979.952 190.052 979.88 189.212 979.76 188.156 979.496 186.884 979.088 185.348 978.584 184.52 978.164 184.4 977.828 184.352 977.708 184.328 977.6 184.328 977.504 184.328 977.288 184.43 977.018 184.634 976.694 184.838 976.37 184.94 976.1 184.94 975.884 185.06 974.9 185.12 973.976 185.12 973.112 185.12 971.864 184.976 971 184.688 970.52 183.248 971.576 182.156 973.34 181.412 975.812 180.788 977.9 180.476 980.264 180.476 982.904 180.476 984.944 180.656 986.762 181.016 988.358 181.376 989.954 181.808 990.92 182.312 991.256 182.552 991.4 183.218 990.914 184.31 989.798 185.402 988.682 186.104 987.788 186.416 987.116 186.44 987.092 186.548 986.708 186.74 985.964 186.884 985.532 187.076 985.268 187.316 985.172 187.724 985.028 188.774 985.37 190.466 986.198 192.158 987.026 192.98 987.608 192.932 987.944 Z"/>
  </defs>
  <use id="C-1" xlink:href="#C" fill="#c53923" fill-opacity="1" stroke="none"/>
  <use id="C-2" xlink:href="#C" fill="#be121e" fill-opacity="1" stroke="none"/>
  <g id="furos-baixo">
   <g id="furo-duplo">
    <defs>
     <path id="furo-maior" d="M197.031 1520.725 C197.031 1514.253 191.785 1509.006 185.313 1509.006 178.84 1509.006 173.594 1514.253 173.594 1520.725 173.594 1527.197 178.84 1532.444 185.313 1532.444 191.785 1532.444 197.031 1527.197 197.031 1520.725 Z"/>
    </defs>
    <defs>
     <path id="stroke-path" d="M188.984 1530.797 L192.516 1528.641 194.984 1525.344 195.688 1523.391 196.031 1520.781 195.359 1517.063 193.219 1513.516 189.922 1511.063 188.031 1510.359 185.313 1510.031 181.625 1510.672 178.094 1512.828 175.625 1516.125 174.938 1518 174.609 1520.734 175.25 1524.406 177.391 1527.938 180.688 1530.406 182.578 1531.109 185.313 1531.438 Z"/>
    </defs>
    <use id="furo-maior-1" stroke="#000000" stroke-opacity="1" stroke-linecap="round" fill="none" stroke-width="2" xlink:href="#stroke-path"/>
    <defs>
     <path id="furo-menor" d="M214.609 1520.725 C214.609 1517.489 211.986 1514.866 208.75 1514.866 205.514 1514.866 202.891 1517.489 202.891 1520.725 202.891 1523.961 205.514 1526.584 208.75 1526.584 211.986 1526.584 214.609 1523.961 214.609 1520.725 Z"/>
    </defs>
    <defs>
     <path id="stroke-path-1" d="M210.406 1525.281 L212.016 1524.313 213.109 1522.859 213.594 1520.734 213.297 1519.094 212.313 1517.469 210.859 1516.375 208.75 1515.891 206.625 1516.375 205.172 1517.469 204.188 1519.078 203.906 1520.734 204.375 1522.859 205.469 1524.313 207.078 1525.281 208.75 1525.578 Z"/>
    </defs>
    <use id="furo-menor-1" stroke="#000000" stroke-opacity="1" stroke-linecap="round" fill="none" stroke-width="2" xlink:href="#stroke-path-1"/>
   </g>
   <g id="furo-duplo-1">
    <defs>
     <path id="furo-maior-2" d="M197.031 1462.131 C197.031 1455.659 191.785 1450.412 185.313 1450.412 178.84 1450.412 173.594 1455.659 173.594 1462.131 173.594 1468.603 178.84 1473.85 185.313 1473.85 191.785 1473.85 197.031 1468.603 197.031 1462.131 Z"/>
    </defs>
    <defs>
     <path id="stroke-path-2" d="M188.984 1472.203 L192.516 1470.047 194.984 1466.75 195.688 1464.797 196.031 1462.188 195.359 1458.469 193.219 1454.922 189.922 1452.469 188.031 1451.766 185.313 1451.438 181.625 1452.078 178.094 1454.234 175.625 1457.531 174.938 1459.406 174.609 1462.141 175.25 1465.813 177.391 1469.344 180.688 1471.813 182.578 1472.516 185.313 1472.844 Z"/>
    </defs>
    <use id="furo-maior-3" stroke="#000000" stroke-opacity="1" stroke-linecap="round" fill="none" stroke-width="2" xlink:href="#stroke-path-2"/>
    <defs>
     <path id="furo-menor-2" d="M214.609 1462.131 C214.609 1458.895 211.986 1456.272 208.75 1456.272 205.514 1456.272 202.891 1458.895 202.891 1462.131 202.891 1465.367 205.514 1467.991 208.75 1467.991 211.986 1467.991 214.609 1465.367 214.609 1462.131 Z"/>
    </defs>
    <defs>
     <path id="stroke-path-3" d="M210.406 1466.688 L212.016 1465.719 213.109 1464.266 213.594 1462.141 213.297 1460.5 212.313 1458.875 210.859 1457.781 208.75 1457.297 206.625 1457.781 205.172 1458.875 204.188 1460.484 203.906 1462.141 204.375 1464.266 205.469 1465.719 207.078 1466.688 208.75 1466.984 Z"/>
    </defs>
    <use id="furo-menor-3" stroke="#000000" stroke-opacity="1" stroke-linecap="round" fill="none" stroke-width="2" xlink:href="#stroke-path-3"/>
   </g>
   <defs>
    <path id="furo" d="M197.031 1403.537 C197.031 1397.065 191.785 1391.819 185.313 1391.819 178.84 1391.819 173.594 1397.065 173.594 1403.537 173.594 1410.01 178.84 1415.256 185.313 1415.256 191.785 1415.256 197.031 1410.01 197.031 1403.537 Z"/>
   </defs>
   <defs>
    <path id="stroke-path-4" d="M188.984 1413.609 L192.516 1411.453 194.984 1408.156 195.688 1406.203 196.031 1403.594 195.359 1399.875 193.219 1396.328 189.922 1393.875 188.031 1393.172 185.313 1392.844 181.625 1393.484 178.094 1395.641 175.625 1398.938 174.938 1400.813 174.609 1403.547 175.25 1407.219 177.391 1410.75 180.688 1413.219 182.578 1413.922 185.313 1414.25 Z"/>
   </defs>
   <use id="furo-1" stroke="#000000" stroke-opacity="1" stroke-linecap="round" fill="none" stroke-width="2" xlink:href="#stroke-path-4"/>
   <defs>
    <path id="furo-2" d="M197.031 1344.944 C197.031 1338.472 191.785 1333.225 185.313 1333.225 178.84 1333.225 173.594 1338.472 173.594 1344.944 173.594 1351.416 178.84 1356.662 185.313 1356.662 191.785 1356.662 197.031 1351.416 197.031 1344.944 Z"/>
   </defs>
   <defs>
    <path id="stroke-path-5" d="M188.984 1355.016 L192.516 1352.859 194.984 1349.563 195.688 1347.609 196.031 1345 195.359 1341.281 193.219 1337.734 189.922 1335.281 188.031 1334.578 185.313 1334.25 181.625 1334.891 178.094 1337.047 175.625 1340.344 174.938 1342.219 174.609 1344.953 175.25 1348.625 177.391 1352.156 180.688 1354.625 182.578 1355.328 185.313 1355.656 Z"/>
   </defs>
   <use id="furo-3" stroke="#000000" stroke-opacity="1" stroke-linecap="round" fill="none" stroke-width="2" xlink:href="#stroke-path-5"/>
  </g>
  <g id="furos-cima">
   <defs>
    <path id="furo-3" d="M197.031 1227.756 C197.031 1221.284 191.785 1216.037 185.313 1216.037 178.84 1216.037 173.594 1221.284 173.594 1227.756 173.594 1234.228 178.84 1239.475 185.313 1239.475 191.785 1239.475 197.031 1234.228 197.031 1227.756 Z"/>
   </defs>
   <defs>
    <path id="stroke-path-6" d="M188.984 1237.828 L192.516 1235.672 194.984 1232.375 195.688 1230.422 196.031 1227.766 195.688 1225.094 194.984 1223.156 192.516 1219.859 188.984 1217.703 185.313 1217.063 181.625 1217.703 178.094 1219.859 175.625 1223.156 174.938 1225.031 174.609 1227.766 174.938 1230.5 175.625 1232.375 178.094 1235.672 181.625 1237.828 185.313 1238.469 Z"/>
   </defs>
   <use id="furo-3-1" stroke="#000000" stroke-opacity="1" stroke-linecap="round" fill="none" stroke-width="2" xlink:href="#stroke-path-6"/>
   <path id="furo-2" d="M197.031 1169.162 C197.031 1162.69 191.785 1157.444 185.313 1157.444 178.84 1157.444 173.594 1162.69 173.594 1169.162 173.594 1175.635 178.84 1180.881 185.313 1180.881 191.785 1180.881 197.031 1175.635 197.031 1169.162 Z" fill="#000000" fill-opacity="1" stroke="none"/>
   <defs>
    <path id="furo-1" d="M197.031 1110.569 C197.031 1104.097 191.785 1098.85 185.313 1098.85 178.84 1098.85 173.594 1104.097 173.594 1110.569 173.594 1117.041 178.84 1122.287 185.313 1122.287 191.785 1122.287 197.031 1117.041 197.031 1110.569 Z"/>
   </defs>
   <defs>
    <path id="stroke-path-7" d="M188.984 1120.641 L192.516 1118.484 194.984 1115.188 195.688 1113.234 196.031 1110.578 195.688 1107.906 194.984 1105.969 192.516 1102.672 188.984 1100.516 185.313 1099.875 181.625 1100.516 178.094 1102.672 175.625 1105.969 174.938 1107.844 174.609 1110.578 174.938 1113.313 175.625 1115.188 178.094 1118.484 181.625 1120.641 185.313 1121.281 Z"/>
   </defs>
   <use id="furo-1-1" stroke="#000000" stroke-opacity="1" stroke-linecap="round" fill="none" stroke-width="2" xlink:href="#stroke-path-7"/>
   <g id="furo-traseiro">
    <path id="furo-tras-base" d="M138.438 1110.569 C138.438 1104.097 133.191 1098.85 126.719 1098.85 120.247 1098.85 115 1104.097 115 1110.569 115 1117.041 120.247 1122.287 126.719 1122.287 133.191 1122.287 138.438 1117.041 138.438 1110.569 Z" fill="#000000" fill-opacity="1" stroke="none"/>
    <path id="Retângulo" d="M126.719 1122.287 C120.247 1122.287 115 1117.041 115 1110.569 L138.438 1110.569 C138.438 1117.041 133.191 1122.287 126.719 1122.287 Z" fill="#000000" fill-opacity="1" stroke="none"/>
    <path id="furo-tras-copiar" d="M115 1110.569 C115 1104.097 120.247 1098.85 126.719 1098.85 133.191 1098.85 138.438 1104.097 138.438 1110.569 L115 1110.569 Z" fill="#000000" fill-opacity="1" stroke="none"/>
   </g>
  </g>
 </g>
</svg>
