<?xml version="1.0" encoding="UTF-8"?>
<svg width="111px" height="645px" viewBox="1737 964 111 645" xmlns="http://www.w3.org/2000/svg" xmlns:xlink="http://www.w3.org/1999/xlink" version="1.1">
 <!-- Generated by Pixelmator Pro 2.3.3 -->
 <g id="flauta-nota-G">
  <path id="corpo-da-flauta" d="M1807.938 1022.678 C1786.364 1022.678 1768.875 1040.167 1768.875 1061.741 L1768.875 1569.553 C1768.875 1591.127 1786.364 1608.616 1807.938 1608.616 L1807.938 1608.616 C1829.511 1608.616 1847 1591.127 1847 1569.553 L1847 1061.741 C1847 1040.167 1829.511 1022.678 1807.938 1022.678 Z" fill="#fce5cd" fill-opacity="1" stroke="none"/>
  <defs>
   <path id="G" d="M1819.048 982.724 C1818.976 983.684 1818.556 984.296 1817.788 984.56 1817.644 984.584 1817.476 984.542 1817.284 984.434 1817.092 984.326 1816.936 984.272 1816.816 984.272 1816.672 984.272 1816.516 984.308 1816.348 984.38 1815.412 987.956 1814.68 990.356 1814.152 991.58 1813.192 993.86 1811.944 995.348 1810.408 996.044 1810 996.236 1809.58 996.332 1809.148 996.332 1808.716 996.332 1807.648 996.02 1805.944 995.396 1805.296 995.228 1804.276 994.88 1802.884 994.352 1801.492 993.68 1800.412 992.132 1799.644 989.708 1798.948 987.5 1798.6 984.872 1798.6 981.824 1798.6 977.864 1799.152 974.336 1800.256 971.24 1801.456 967.856 1803.04 965.96 1805.008 965.552 1805.176 965.528 1805.368 965.516 1805.584 965.516 1806.784 965.516 1808.248 965.9 1809.976 966.668 1811.824 967.484 1813.072 968.384 1813.72 969.368 1814.248 970.16 1814.596 971.168 1814.764 972.392 1814.98 973.784 1815.112 974.54 1815.16 974.66 1815.232 975.068 1815.328 975.56 1815.448 976.136 1815.472 976.448 1815.352 976.814 1815.088 977.234 1814.824 977.654 1814.572 977.912 1814.332 978.008 1814.02 978.128 1813.084 977.954 1811.524 977.486 1809.964 977.018 1809.028 976.652 1808.716 976.388 1808.284 976.1 1808.104 975.536 1808.176 974.696 1808.176 974.576 1808.236 974.426 1808.356 974.246 1808.476 974.066 1808.536 973.904 1808.536 973.76 1808.536 972.056 1808.344 971.204 1807.96 971.204 1807.144 971.18 1806.424 972.548 1805.8 975.308 1805.224 977.9 1804.936 980.732 1804.936 983.804 1804.936 988.364 1805.572 990.98 1806.844 991.652 1807.228 991.844 1807.75 991.184 1808.41 989.672 1809.07 988.16 1809.46 986.744 1809.58 985.424 1809.196 985.136 1808.464 984.764 1807.384 984.308 1806.52 983.948 1806.052 983.636 1805.98 983.372 1805.884 983.012 1806.004 982.502 1806.34 981.842 1806.676 981.182 1807.03 980.756 1807.402 980.564 1807.774 980.372 1808.296 980.264 1808.968 980.24 1809.88 980.24 1810.432 980.216 1810.624 980.168 1811.032 980.096 1811.692 979.892 1812.604 979.556 1813.348 979.268 1813.912 979.124 1814.296 979.124 1814.44 979.124 1814.572 979.136 1814.692 979.16 1815.292 979.28 1816.174 979.82 1817.338 980.78 1818.502 981.74 1819.072 982.388 1819.048 982.724 Z"/>
  </defs>
  <use id="G-1" xlink:href="#G" fill="#c53923" fill-opacity="1" stroke="none"/>
  <use id="G-2" xlink:href="#G" fill="#be121e" fill-opacity="1" stroke="none"/>
  <g id="furos-baixo">
   <g id="furo-duplo">
    <defs>
     <path id="furo-grande" d="M1819.656 1520.725 C1819.656 1514.253 1814.41 1509.006 1807.938 1509.006 1801.465 1509.006 1796.219 1514.253 1796.219 1520.725 1796.219 1527.197 1801.465 1532.444 1807.938 1532.444 1814.41 1532.444 1819.656 1527.197 1819.656 1520.725 Z"/>
    </defs>
    <defs>
     <path id="stroke-path" d="M1810.656 1531.109 L1812.547 1530.406 1815.844 1527.938 1817.984 1524.406 1818.641 1520.734 1817.984 1517.063 1815.844 1513.516 1812.547 1511.063 1810.656 1510.359 1807.938 1510.031 1805.203 1510.359 1803.313 1511.063 1800.016 1513.516 1797.875 1517.063 1797.234 1520.734 1797.875 1524.406 1800.016 1527.938 1803.313 1530.406 1805.203 1531.109 1807.938 1531.438 Z"/>
    </defs>
    <use id="furo-grande-1" stroke="#000000" stroke-opacity="1" stroke-linecap="round" fill="none" stroke-width="2" xlink:href="#stroke-path"/>
    <defs>
     <path id="furo-menor" d="M1837.234 1520.725 C1837.234 1517.489 1834.611 1514.866 1831.375 1514.866 1828.139 1514.866 1825.516 1517.489 1825.516 1520.725 1825.516 1523.961 1828.139 1526.584 1831.375 1526.584 1834.611 1526.584 1837.234 1523.961 1837.234 1520.725 Z"/>
    </defs>
    <defs>
     <path id="stroke-path-1" d="M1833.031 1525.281 L1834.641 1524.313 1835.734 1522.859 1836.219 1520.734 1835.734 1518.609 1834.641 1517.156 1833.031 1516.188 1831.375 1515.891 1829.703 1516.188 1828.094 1517.156 1827 1518.609 1826.531 1520.734 1827 1522.859 1828.094 1524.313 1829.703 1525.281 1831.375 1525.578 Z"/>
    </defs>
    <use id="furo-menor-1" stroke="#000000" stroke-opacity="1" stroke-linecap="round" fill="none" stroke-width="2" xlink:href="#stroke-path-1"/>
   </g>
   <g id="furo-duplo-1">
    <defs>
     <path id="furo-grande-2" d="M1819.656 1462.131 C1819.656 1455.659 1814.41 1450.412 1807.938 1450.412 1801.465 1450.412 1796.219 1455.659 1796.219 1462.131 1796.219 1468.603 1801.465 1473.85 1807.938 1473.85 1814.41 1473.85 1819.656 1468.603 1819.656 1462.131 Z"/>
    </defs>
    <defs>
     <path id="stroke-path-2" d="M1810.656 1472.516 L1812.547 1471.813 1815.844 1469.344 1817.984 1465.813 1818.641 1462.141 1817.984 1458.469 1815.844 1454.922 1812.547 1452.469 1810.656 1451.766 1807.938 1451.438 1805.203 1451.766 1803.313 1452.469 1800.016 1454.922 1797.875 1458.469 1797.234 1462.141 1797.875 1465.813 1800.016 1469.344 1803.313 1471.813 1805.203 1472.516 1807.938 1472.844 Z"/>
    </defs>
    <use id="furo-grande-3" stroke="#000000" stroke-opacity="1" stroke-linecap="round" fill="none" stroke-width="2" xlink:href="#stroke-path-2"/>
    <defs>
     <path id="furo-menor-2" d="M1837.234 1462.131 C1837.234 1458.895 1834.611 1456.272 1831.375 1456.272 1828.139 1456.272 1825.516 1458.895 1825.516 1462.131 1825.516 1465.367 1828.139 1467.991 1831.375 1467.991 1834.611 1467.991 1837.234 1465.367 1837.234 1462.131 Z"/>
    </defs>
    <defs>
     <path id="stroke-path-3" d="M1833.031 1466.688 L1834.641 1465.719 1835.734 1464.266 1836.219 1462.141 1835.734 1460.016 1834.641 1458.563 1833.031 1457.594 1831.375 1457.297 1829.703 1457.594 1828.094 1458.563 1827 1460.016 1826.531 1462.141 1827 1464.266 1828.094 1465.719 1829.703 1466.688 1831.375 1466.984 Z"/>
    </defs>
    <use id="furo-menor-3" stroke="#000000" stroke-opacity="1" stroke-linecap="round" fill="none" stroke-width="2" xlink:href="#stroke-path-3"/>
   </g>
   <defs>
    <path id="furo" d="M1819.656 1403.537 C1819.656 1397.065 1814.41 1391.819 1807.938 1391.819 1801.465 1391.819 1796.219 1397.065 1796.219 1403.537 1796.219 1410.01 1801.465 1415.256 1807.938 1415.256 1814.41 1415.256 1819.656 1410.01 1819.656 1403.537 Z"/>
   </defs>
   <defs>
    <path id="stroke-path-4" d="M1810.656 1413.922 L1812.547 1413.219 1815.844 1410.75 1817.984 1407.219 1818.641 1403.547 1817.984 1399.875 1815.844 1396.328 1812.547 1393.875 1810.656 1393.172 1807.938 1392.844 1805.203 1393.172 1803.313 1393.875 1800.016 1396.328 1797.875 1399.875 1797.234 1403.547 1797.875 1407.219 1800.016 1410.75 1803.313 1413.219 1805.203 1413.922 1807.938 1414.25 Z"/>
   </defs>
   <use id="furo-1" stroke="#000000" stroke-opacity="1" stroke-linecap="round" fill="none" stroke-width="2" xlink:href="#stroke-path-4"/>
   <defs>
    <path id="furo-2" d="M1819.656 1344.944 C1819.656 1338.472 1814.41 1333.225 1807.938 1333.225 1801.465 1333.225 1796.219 1338.472 1796.219 1344.944 1796.219 1351.416 1801.465 1356.662 1807.938 1356.662 1814.41 1356.662 1819.656 1351.416 1819.656 1344.944 Z"/>
   </defs>
   <defs>
    <path id="stroke-path-5" d="M1810.656 1355.328 L1812.547 1354.625 1815.844 1352.156 1817.984 1348.625 1818.641 1344.953 1817.984 1341.281 1815.844 1337.734 1812.547 1335.281 1810.656 1334.578 1807.938 1334.25 1805.203 1334.578 1803.313 1335.281 1800.016 1337.734 1797.875 1341.281 1797.234 1344.953 1797.875 1348.625 1800.016 1352.156 1803.313 1354.625 1805.203 1355.328 1807.938 1355.656 Z"/>
   </defs>
   <use id="furo-3" stroke="#000000" stroke-opacity="1" stroke-linecap="round" fill="none" stroke-width="2" xlink:href="#stroke-path-5"/>
  </g>
  <g id="furos-cima">
   <path id="furo-3" d="M1819.656 1227.756 C1819.656 1221.284 1814.41 1216.037 1807.938 1216.037 1801.465 1216.037 1796.219 1221.284 1796.219 1227.756 1796.219 1234.228 1801.465 1239.475 1807.938 1239.475 1814.41 1239.475 1819.656 1234.228 1819.656 1227.756 Z" fill="#000000" fill-opacity="1" stroke="none"/>
   <path id="furo-2" d="M1819.656 1169.162 C1819.656 1162.69 1814.41 1157.444 1807.938 1157.444 1801.465 1157.444 1796.219 1162.69 1796.219 1169.162 1796.219 1175.635 1801.465 1180.881 1807.938 1180.881 1814.41 1180.881 1819.656 1175.635 1819.656 1169.162 Z" fill="#000000" fill-opacity="1" stroke="none"/>
   <path id="furo-1" d="M1819.656 1110.569 C1819.656 1104.097 1814.41 1098.85 1807.938 1098.85 1801.465 1098.85 1796.219 1104.097 1796.219 1110.569 1796.219 1117.041 1801.465 1122.287 1807.938 1122.287 1814.41 1122.287 1819.656 1117.041 1819.656 1110.569 Z" fill="#000000" fill-opacity="1" stroke="none"/>
   <g id="furo-traseiro">
    <defs>
     <path id="furo-tras-base" d="M1761.063 1110.569 C1761.063 1104.097 1755.816 1098.85 1749.344 1098.85 1742.872 1098.85 1737.625 1104.097 1737.625 1110.569 1737.625 1117.041 1742.872 1122.287 1749.344 1122.287 1755.816 1122.287 1761.063 1117.041 1761.063 1110.569 Z"/>
    </defs>
    <defs>
     <path id="stroke-path-6" d="M1753.016 1120.641 L1756.547 1118.484 1759.016 1115.188 1759.719 1113.234 1760.063 1110.625 1759.391 1106.906 1757.25 1103.359 1753.953 1100.906 1752.063 1100.203 1749.344 1099.875 1745.656 1100.516 1742.125 1102.672 1739.656 1105.969 1738.969 1107.844 1738.641 1110.578 1739.281 1114.25 1741.422 1117.781 1744.719 1120.25 1746.609 1120.953 1749.344 1121.281 Z"/>
    </defs>
    <use id="furo-tras-base-1" stroke="#000000" stroke-opacity="1" stroke-linecap="round" fill="none" stroke-width="2" xlink:href="#stroke-path-6"/>
    <path id="Retângulo" d="M1749.344 1122.287 C1742.872 1122.287 1737.625 1117.041 1737.625 1110.569 L1761.063 1110.569 C1761.063 1117.041 1755.816 1122.287 1749.344 1122.287 Z" fill="#000000" fill-opacity="1" stroke="none"/>
    <path id="furo-tras-copiar" d="M1737.625 1110.569 C1737.625 1104.097 1742.872 1098.85 1749.344 1098.85 1755.816 1098.85 1761.063 1104.097 1761.063 1110.569 L1737.625 1110.569 Z" fill="none" stroke="none"/>
   </g>
  </g>
 </g>
</svg>
