<?xml version="1.0" encoding="UTF-8"?>
<svg width="111px" height="637px" viewBox="115 192 111 637" xmlns="http://www.w3.org/2000/svg" xmlns:xlink="http://www.w3.org/1999/xlink" version="1.1">
 <!-- Generated by Pixelmator Pro 2.3.3 -->
 <g id="flauta-nota-c">
  <path id="corpo-da-flauta" d="M185.313 242.678 C163.739 242.678 146.25 260.167 146.25 281.741 L146.25 789.553 C146.25 811.127 163.739 828.616 185.313 828.616 L185.313 828.616 C206.886 828.616 224.375 811.127 224.375 789.553 L224.375 281.741 C224.375 260.167 206.886 242.678 185.313 242.678 Z" fill="#fce5cd" fill-opacity="1" stroke="none"/>
  <defs>
   <path id="c" d="M191.312 208.232 C191.312 208.688 190.916 209.3 190.124 210.068 189.476 211.484 188.9 212.504 188.396 213.128 187.292 214.568 185.936 215.42 184.328 215.684 183.992 215.732 183.668 215.756 183.356 215.756 182.012 215.756 180.356 215.108 178.388 213.812 176.684 212.66 175.832 210.008 175.832 205.856 175.832 202.784 176.3 200 177.236 197.504 178.268 194.792 179.528 193.388 181.016 193.292 182.192 193.22 183.632 193.532 185.336 194.228 187.04 194.924 188.192 195.692 188.792 196.532 189.296 197.228 189.548 198.152 189.548 199.304 189.548 199.616 189.524 200.066 189.476 200.654 189.428 201.242 189.416 201.656 189.44 201.896 189.488 202.544 189.512 202.844 189.512 202.796 189.512 203.564 189.14 203.936 188.396 203.912 187.532 203.888 186.716 203.756 185.948 203.516 184.916 203.156 184.292 202.664 184.076 202.04 184.004 201.824 184.106 201.536 184.382 201.176 184.658 200.816 184.772 200.516 184.724 200.276 184.772 200.108 184.796 199.688 184.796 199.016 184.796 197.576 184.544 196.832 184.04 196.784 183.272 196.736 182.624 197.9 182.096 200.276 181.616 202.388 181.376 204.692 181.376 207.188 181.376 210.14 181.724 211.7 182.42 211.868 182.972 211.988 183.692 211.388 184.58 210.068 185.324 208.94 185.726 208.178 185.786 207.782 185.846 207.386 185.9 206.984 185.948 206.576 186.116 205.904 186.548 205.592 187.244 205.64 187.676 205.688 188.432 205.964 189.512 206.468 190.592 206.972 191.162 207.35 191.222 207.602 191.282 207.854 191.312 208.064 191.312 208.232 Z"/>
  </defs>
  <use id="c-1" xlink:href="#c" fill="#c53923" fill-opacity="1" stroke="none"/>
  <use id="c-2" xlink:href="#c" fill="#be121e" fill-opacity="1" stroke="none"/>
  <g id="furos-baixo">
   <g id="furo-duplo">
    <path id="furo-maior" d="M197.031 740.725 C197.031 734.253 191.785 729.006 185.313 729.006 178.84 729.006 173.594 734.253 173.594 740.725 173.594 747.197 178.84 752.444 185.313 752.444 191.785 752.444 197.031 747.197 197.031 740.725 Z" fill="#000000" fill-opacity="1" stroke="none"/>
    <path id="furo-menor" d="M214.609 740.725 C214.609 737.489 211.986 734.866 208.75 734.866 205.514 734.866 202.891 737.489 202.891 740.725 202.891 743.961 205.514 746.584 208.75 746.584 211.986 746.584 214.609 743.961 214.609 740.725 Z" fill="#000000" fill-opacity="1" stroke="none"/>
   </g>
   <g id="furo-duplo-1">
    <path id="furo-maior-1" d="M197.031 682.131 C197.031 675.659 191.785 670.412 185.313 670.412 178.84 670.412 173.594 675.659 173.594 682.131 173.594 688.603 178.84 693.85 185.313 693.85 191.785 693.85 197.031 688.603 197.031 682.131 Z" fill="#000000" fill-opacity="1" stroke="none"/>
    <path id="furo-menor-1" d="M214.609 682.131 C214.609 678.895 211.986 676.272 208.75 676.272 205.514 676.272 202.891 678.895 202.891 682.131 202.891 685.367 205.514 687.991 208.75 687.991 211.986 687.991 214.609 685.367 214.609 682.131 Z" fill="#000000" fill-opacity="1" stroke="none"/>
   </g>
   <path id="furo" d="M197.031 623.537 C197.031 617.065 191.785 611.819 185.313 611.819 178.84 611.819 173.594 617.065 173.594 623.537 173.594 630.01 178.84 635.256 185.313 635.256 191.785 635.256 197.031 630.01 197.031 623.537 Z" fill="#000000" fill-opacity="1" stroke="none"/>
   <path id="furo-1" d="M197.031 564.944 C197.031 558.472 191.785 553.225 185.313 553.225 178.84 553.225 173.594 558.472 173.594 564.944 173.594 571.416 178.84 576.662 185.313 576.662 191.785 576.662 197.031 571.416 197.031 564.944 Z" fill="#000000" fill-opacity="1" stroke="none"/>
  </g>
  <g id="furos-cima">
   <path id="furo-3" d="M197.031 447.756 C197.031 441.284 191.785 436.037 185.313 436.037 178.84 436.037 173.594 441.284 173.594 447.756 173.594 454.228 178.84 459.475 185.313 459.475 191.785 459.475 197.031 454.228 197.031 447.756 Z" fill="#000000" fill-opacity="1" stroke="none"/>
   <path id="furo-2" d="M197.031 389.162 C197.031 382.69 191.785 377.444 185.313 377.444 178.84 377.444 173.594 382.69 173.594 389.162 173.594 395.635 178.84 400.881 185.313 400.881 191.785 400.881 197.031 395.635 197.031 389.162 Z" fill="#000000" fill-opacity="1" stroke="none"/>
   <path id="furo-1" d="M197.031 330.569 C197.031 324.097 191.785 318.85 185.313 318.85 178.84 318.85 173.594 324.097 173.594 330.569 173.594 337.041 178.84 342.287 185.313 342.287 191.785 342.287 197.031 337.041 197.031 330.569 Z" fill="#000000" fill-opacity="1" stroke="none"/>
   <g id="furo-traseiro">
    <path id="furo-tras-base" d="M138.438 330.569 C138.438 324.097 133.191 318.85 126.719 318.85 120.247 318.85 115 324.097 115 330.569 115 337.041 120.247 342.287 126.719 342.287 133.191 342.287 138.438 337.041 138.438 330.569 Z" fill="#000000" fill-opacity="1" stroke="none"/>
    <path id="Retângulo" d="M126.719 342.287 C120.247 342.287 115 337.041 115 330.569 L138.438 330.569 C138.438 337.041 133.191 342.287 126.719 342.287 Z" fill="#000000" fill-opacity="1" stroke="none"/>
    <path id="furo-tras-copiar" d="M115 330.569 C115 324.097 120.247 318.85 126.719 318.85 133.191 318.85 138.438 324.097 138.438 330.569 L115 330.569 Z" fill="#000000" fill-opacity="1" stroke="none"/>
   </g>
  </g>
 </g>
</svg>
