<?xml version="1.0" encoding="UTF-8"?>
<svg width="111px" height="637px" viewBox="2200 192 111 637" xmlns="http://www.w3.org/2000/svg" xmlns:xlink="http://www.w3.org/1999/xlink" version="1.1">
 <!-- Generated by Pixelmator Pro 2.3.3 -->
 <g id="flauta-nota-a">
  <path id="corpo-da-flauta" d="M2270.938 242.678 C2249.364 242.678 2231.875 260.167 2231.875 281.741 L2231.875 789.553 C2231.875 811.127 2249.364 828.616 2270.938 828.616 L2270.938 828.616 C2292.511 828.616 2310 811.127 2310 789.553 L2310 281.741 C2310 260.167 2292.511 242.678 2270.938 242.678 Z" fill="#fce5cd" fill-opacity="1" stroke="none"/>
  <defs>
   <path id="a" d="M2279.816 214.46 C2279.792 214.796 2279.648 215.084 2279.384 215.324 2279.12 215.564 2278.82 215.66 2278.484 215.612 2275.508 215.204 2273.852 214.64 2273.516 213.92 2273.468 213.824 2273.444 213.728 2273.444 213.632 2273.444 213.512 2273.498 213.38 2273.606 213.236 2273.714 213.092 2273.78 212.966 2273.804 212.858 2273.828 212.75 2273.876 212.648 2273.948 212.552 2273.996 212.36 2274.008 211.94 2273.984 211.292 2273.696 211.508 2273.264 212.084 2272.688 213.02 2272.088 214.052 2271.56 214.772 2271.104 215.18 2270.336 215.9 2269.46 216.26 2268.476 216.26 2267.9 216.26 2267.336 216.032 2266.784 215.576 2266.52 215.36 2266.052 214.892 2265.38 214.172 2264.228 212.876 2263.604 212.168 2263.508 212.048 2263.004 211.376 2262.752 210.74 2262.752 210.14 2262.752 209.948 2262.776 209.756 2262.824 209.564 2263.28 207.452 2264.696 205.448 2267.072 203.552 2268.8 202.184 2271.248 200.732 2274.416 199.196 2274.416 198.428 2274.224 197.936 2273.84 197.72 2273.6 197.576 2272.76 197.846 2271.32 198.53 2269.88 199.214 2268.872 199.796 2268.296 200.276 2268.104 200.468 2267.792 200.732 2267.36 201.068 2266.952 201.308 2266.58 201.38 2266.244 201.284 2265.98 201.212 2265.416 200.78 2264.552 199.988 2263.688 199.196 2263.22 198.668 2263.148 198.404 2262.956 197.756 2263.16 197.252 2263.76 196.892 2263.784 196.868 2264.264 196.724 2265.2 196.46 2266.088 195.98 2266.976 195.5 2267.864 195.02 2269.736 194.132 2271.32 193.652 2272.616 193.58 2273.168 193.556 2273.792 193.844 2274.488 194.444 2275.112 194.996 2275.742 195.542 2276.378 196.082 2277.014 196.622 2277.668 197.144 2278.34 197.648 2279.108 198.32 2279.492 198.968 2279.492 199.592 L2279.492 213.2 C2279.732 213.824 2279.84 214.244 2279.816 214.46 Z M2274.056 203.948 C2272.88 204.404 2271.872 205.1 2271.032 206.036 2270.408 206.804 2269.784 207.56 2269.16 208.304 2268.656 208.808 2268.182 209.462 2267.738 210.266 2267.294 211.07 2267.072 211.664 2267.072 212.048 2267.072 212.24 2267.144 212.336 2267.288 212.336 2267.792 212.336 2268.92 211.25 2270.672 209.078 2272.424 206.906 2273.552 205.196 2274.056 203.948 Z"/>
  </defs>
  <use id="a-1" xlink:href="#a" fill="#c53923" fill-opacity="1" stroke="none"/>
  <use id="a-2" xlink:href="#a" fill="#be121e" fill-opacity="1" stroke="none"/>
  <g id="furos-baixo">
   <g id="furo-duplo">
    <defs>
     <path id="furo-grande" d="M2282.656 740.725 C2282.656 734.253 2277.41 729.006 2270.938 729.006 2264.465 729.006 2259.219 734.253 2259.219 740.725 2259.219 747.197 2264.465 752.444 2270.938 752.444 2277.41 752.444 2282.656 747.197 2282.656 740.725 Z"/>
    </defs>
    <defs>
     <path id="stroke-path" d="M2274.609 750.797 L2278.141 748.641 2280.609 745.344 2281.313 743.391 2281.656 740.734 2281.313 738.063 2280.609 736.125 2278.141 732.828 2274.609 730.672 2270.938 730.031 2267.25 730.672 2263.719 732.828 2261.25 736.125 2260.563 738 2260.234 740.734 2260.563 743.469 2261.25 745.344 2263.719 748.641 2267.25 750.797 2270.938 751.438 Z"/>
    </defs>
    <use id="furo-grande-1" stroke="#000000" stroke-opacity="1" stroke-linecap="round" fill="none" stroke-width="2" xlink:href="#stroke-path"/>
    <defs>
     <path id="furo-menor" d="M2300.234 740.725 C2300.234 737.489 2297.611 734.866 2294.375 734.866 2291.139 734.866 2288.516 737.489 2288.516 740.725 2288.516 743.961 2291.139 746.584 2294.375 746.584 2297.611 746.584 2300.234 743.961 2300.234 740.725 Z"/>
    </defs>
    <defs>
     <path id="stroke-path-1" d="M2296.484 745.094 L2297.938 744 2298.922 742.375 2299.219 740.734 2298.922 739.094 2297.938 737.469 2296.484 736.375 2294.375 735.891 2292.25 736.375 2290.797 737.469 2289.813 739.078 2289.531 740.734 2289.813 742.391 2290.797 744 2292.25 745.094 2294.375 745.578 Z"/>
    </defs>
    <use id="furo-menor-1" stroke="#000000" stroke-opacity="1" stroke-linecap="round" fill="none" stroke-width="2" xlink:href="#stroke-path-1"/>
   </g>
   <g id="furo-duplo-1">
    <defs>
     <path id="furo-grande-2" d="M2282.656 682.131 C2282.656 675.659 2277.41 670.412 2270.938 670.412 2264.465 670.412 2259.219 675.659 2259.219 682.131 2259.219 688.603 2264.465 693.85 2270.938 693.85 2277.41 693.85 2282.656 688.603 2282.656 682.131 Z"/>
    </defs>
    <defs>
     <path id="stroke-path-2" d="M2274.609 692.203 L2278.141 690.047 2280.609 686.75 2281.313 684.797 2281.656 682.141 2281.313 679.469 2280.609 677.531 2278.141 674.234 2274.609 672.078 2270.938 671.438 2267.25 672.078 2263.719 674.234 2261.25 677.531 2260.563 679.406 2260.234 682.141 2260.563 684.875 2261.25 686.75 2263.719 690.047 2267.25 692.203 2270.938 692.844 Z"/>
    </defs>
    <use id="furo-grande-3" stroke="#000000" stroke-opacity="1" stroke-linecap="round" fill="none" stroke-width="2" xlink:href="#stroke-path-2"/>
    <defs>
     <path id="furo-menor-2" d="M2300.234 682.131 C2300.234 678.895 2297.611 676.272 2294.375 676.272 2291.139 676.272 2288.516 678.895 2288.516 682.131 2288.516 685.367 2291.139 687.991 2294.375 687.991 2297.611 687.991 2300.234 685.367 2300.234 682.131 Z"/>
    </defs>
    <defs>
     <path id="stroke-path-3" d="M2296.484 686.5 L2297.938 685.406 2298.922 683.781 2299.219 682.141 2298.922 680.5 2297.938 678.875 2296.484 677.781 2294.375 677.297 2292.25 677.781 2290.797 678.875 2289.813 680.484 2289.531 682.141 2289.813 683.797 2290.797 685.406 2292.25 686.5 2294.375 686.984 Z"/>
    </defs>
    <use id="furo-menor-3" stroke="#000000" stroke-opacity="1" stroke-linecap="round" fill="none" stroke-width="2" xlink:href="#stroke-path-3"/>
   </g>
   <defs>
    <path id="furo" d="M2282.656 623.537 C2282.656 617.065 2277.41 611.819 2270.938 611.819 2264.465 611.819 2259.219 617.065 2259.219 623.537 2259.219 630.01 2264.465 635.256 2270.938 635.256 2277.41 635.256 2282.656 630.01 2282.656 623.537 Z"/>
   </defs>
   <defs>
    <path id="stroke-path-4" d="M2274.609 633.609 L2278.141 631.453 2280.609 628.156 2281.313 626.203 2281.656 623.547 2281.313 620.875 2280.609 618.938 2278.141 615.641 2274.609 613.484 2270.938 612.844 2267.25 613.484 2263.719 615.641 2261.25 618.938 2260.563 620.813 2260.234 623.547 2260.563 626.281 2261.25 628.156 2263.719 631.453 2267.25 633.609 2270.938 634.25 Z"/>
   </defs>
   <use id="furo-1" stroke="#000000" stroke-opacity="1" stroke-linecap="round" fill="none" stroke-width="2" xlink:href="#stroke-path-4"/>
   <defs>
    <path id="furo-2" d="M2282.656 564.944 C2282.656 558.472 2277.41 553.225 2270.938 553.225 2264.465 553.225 2259.219 558.472 2259.219 564.944 2259.219 571.416 2264.465 576.662 2270.938 576.662 2277.41 576.662 2282.656 571.416 2282.656 564.944 Z"/>
   </defs>
   <defs>
    <path id="stroke-path-5" d="M2274.609 575.016 L2278.141 572.859 2280.609 569.563 2281.313 567.609 2281.656 564.953 2281.313 562.281 2280.609 560.344 2278.141 557.047 2274.609 554.891 2270.938 554.25 2267.25 554.891 2263.719 557.047 2261.25 560.344 2260.563 562.219 2260.234 564.953 2260.563 567.688 2261.25 569.563 2263.719 572.859 2267.25 575.016 2270.938 575.656 Z"/>
   </defs>
   <use id="furo-3" stroke="#000000" stroke-opacity="1" stroke-linecap="round" fill="none" stroke-width="2" xlink:href="#stroke-path-5"/>
  </g>
  <g id="furos-cima">
   <defs>
    <path id="furo-3" d="M2282.656 447.756 C2282.656 441.284 2277.41 436.037 2270.938 436.037 2264.465 436.037 2259.219 441.284 2259.219 447.756 2259.219 454.228 2264.465 459.475 2270.938 459.475 2277.41 459.475 2282.656 454.228 2282.656 447.756 Z"/>
   </defs>
   <defs>
    <path id="stroke-path-6" d="M2274.609 457.828 L2278.141 455.672 2280.609 452.375 2281.313 450.422 2281.656 447.766 2281.313 445.094 2280.609 443.156 2278.141 439.859 2274.609 437.703 2270.938 437.063 2267.25 437.703 2263.719 439.859 2261.25 443.156 2260.563 445.031 2260.234 447.766 2260.563 450.5 2261.25 452.375 2263.719 455.672 2267.25 457.828 2270.938 458.469 Z"/>
   </defs>
   <use id="furo-3-1" stroke="#000000" stroke-opacity="1" stroke-linecap="round" fill="none" stroke-width="2" xlink:href="#stroke-path-6"/>
   <path id="furo-2" d="M2282.656 389.162 C2282.656 382.69 2277.41 377.444 2270.938 377.444 2264.465 377.444 2259.219 382.69 2259.219 389.162 2259.219 395.635 2264.465 400.881 2270.938 400.881 2277.41 400.881 2282.656 395.635 2282.656 389.162 Z" fill="#000000" fill-opacity="1" stroke="none"/>
   <path id="furo-1" d="M2282.656 330.569 C2282.656 324.097 2277.41 318.85 2270.938 318.85 2264.465 318.85 2259.219 324.097 2259.219 330.569 2259.219 337.041 2264.465 342.287 2270.938 342.287 2277.41 342.287 2282.656 337.041 2282.656 330.569 Z" fill="#000000" fill-opacity="1" stroke="none"/>
   <g id="furo-traseiro">
    <path id="furo-tras-base" d="M2224.063 330.569 C2224.063 324.097 2218.816 318.85 2212.344 318.85 2205.872 318.85 2200.625 324.097 2200.625 330.569 2200.625 337.041 2205.872 342.287 2212.344 342.287 2218.816 342.287 2224.063 337.041 2224.063 330.569 Z" fill="#000000" fill-opacity="1" stroke="none"/>
    <path id="Retângulo" d="M2212.344 342.287 C2205.872 342.287 2200.625 337.041 2200.625 330.569 L2224.063 330.569 C2224.063 337.041 2218.816 342.287 2212.344 342.287 Z" fill="#000000" fill-opacity="1" stroke="none"/>
    <path id="furo-tras-copiar" d="M2200.625 330.569 C2200.625 324.097 2205.872 318.85 2212.344 318.85 2218.816 318.85 2224.063 324.097 2224.063 330.569 L2200.625 330.569 Z" fill="#000000" fill-opacity="1" stroke="none"/>
   </g>
  </g>
 </g>
</svg>
