<?xml version="1.0" encoding="UTF-8"?>
<svg width="111px" height="646px" viewBox="1505 183 111 646" xmlns="http://www.w3.org/2000/svg" xmlns:xlink="http://www.w3.org/1999/xlink" version="1.1">
 <!-- Generated by Pixelmator Pro 2.3.3 -->
 <g id="flauta-nota-f#">
  <path id="corpo-da-flauta" d="M1575.938 242.678 C1554.364 242.678 1536.875 260.167 1536.875 281.741 L1536.875 789.553 C1536.875 811.127 1554.364 828.616 1575.938 828.616 L1575.938 828.616 C1597.511 828.616 1615 811.127 1615 789.553 L1615 281.741 C1615 260.167 1597.511 242.678 1575.938 242.678 Z" fill="#fce5cd" fill-opacity="1" stroke="none"/>
  <defs>
   <path id="f#" d="M1594.212 206 C1593.876 206 1593.396 205.94 1592.772 205.82 1592.148 205.7 1591.764 205.64 1591.62 205.64 L1589.82 205.64 C1589.772 207.536 1589.7 209.588 1589.604 211.796 1589.46 212.54 1589.136 212.948 1588.632 213.02 1588.176 213.092 1587.414 212.846 1586.346 212.282 1585.278 211.718 1584.636 211.292 1584.42 211.004 1584.276 210.788 1584.204 210.548 1584.204 210.284 1584.204 210.02 1584.282 209.678 1584.438 209.258 1584.594 208.838 1584.672 208.568 1584.672 208.448 1584.696 208.112 1584.732 207.176 1584.78 205.64 L1582.728 205.64 C1582.704 207.296 1582.68 209 1582.656 210.752 1582.584 211.088 1582.38 211.388 1582.044 211.652 1581.708 211.916 1581.336 212.036 1580.928 212.012 1580.616 211.988 1579.896 211.562 1578.768 210.734 1577.64 209.906 1577.064 209.336 1577.04 209.024 1577.016 208.76 1577.112 208.46 1577.328 208.124 1577.544 207.788 1577.664 207.512 1577.688 207.296 L1577.688 205.64 C1577.088 205.64 1576.554 205.76 1576.086 206 1575.618 206.24 1575.3 206.348 1575.132 206.324 1574.82 206.3 1574.25 205.73 1573.422 204.614 1572.594 203.498 1572.168 202.76 1572.144 202.4 1572.12 201.992 1572.24 201.626 1572.504 201.302 1572.768 200.978 1573.068 200.78 1573.404 200.708 1574.652 200.708 1576.08 200.696 1577.688 200.672 L1577.688 198.584 C1576.632 198.584 1575.984 198.602 1575.744 198.638 1575.504 198.674 1575.216 198.776 1574.88 198.944 1574.544 199.112 1574.256 199.184 1574.016 199.16 1573.488 199.112 1572.87 198.62 1572.162 197.684 1571.454 196.748 1571.1 195.896 1571.1 195.128 1571.1 194.36 1571.52 193.892 1572.36 193.724 1572.624 193.676 1574.4 193.628 1577.688 193.58 L1577.688 192.536 C1577.688 192.392 1577.634 192.014 1577.526 191.402 1577.418 190.79 1577.364 190.304 1577.364 189.944 1577.364 189.008 1577.76 188.54 1578.552 188.54 1579.2 188.54 1579.968 188.684 1580.856 188.972 1581.84 189.284 1582.488 189.632 1582.8 190.016 1582.92 190.208 1582.98 191.372 1582.98 193.508 L1584.708 193.508 C1584.756 190.676 1584.87 189.134 1585.05 188.882 1585.23 188.63 1585.608 188.504 1586.184 188.504 1587.264 188.504 1588.548 188.876 1590.036 189.62 1590.276 189.74 1590.396 189.968 1590.396 190.304 1590.396 190.52 1590.318 190.862 1590.162 191.33 1590.006 191.798 1589.928 192.092 1589.928 192.212 L1589.928 193.472 C1590.744 193.448 1591.404 193.436 1591.908 193.436 1592.028 193.436 1592.328 193.352 1592.808 193.184 1593.288 193.016 1593.648 192.932 1593.888 192.932 1594.2 192.932 1594.416 193.052 1594.536 193.292 1595.28 194.756 1595.652 196.04 1595.652 197.144 1595.652 197.744 1595.508 198.152 1595.22 198.368 1595.028 198.512 1593.252 198.584 1589.892 198.584 1589.868 198.992 1589.856 199.58 1589.856 200.348 1592.52 200.348 1593.948 200.42 1594.14 200.564 1594.524 200.876 1594.872 201.524 1595.184 202.508 1595.472 203.396 1595.616 204.164 1595.616 204.812 1595.616 205.604 1595.148 206 1594.212 206 Z M1584.744 200.42 L1584.744 198.584 1582.944 198.584 C1582.944 198.992 1582.92 199.628 1582.872 200.492 1583.736 200.444 1584.36 200.42 1584.744 200.42 Z M1569.66 188.216 C1569.708 188.576 1569.6 188.984 1569.336 189.44 1569.072 189.896 1568.796 190.112 1568.508 190.088 1568.34 190.088 1568.112 189.962 1567.824 189.71 1567.536 189.458 1567.284 189.32 1567.068 189.296 1565.964 189.104 1565.412 190.124 1565.412 192.356 1565.412 192.62 1565.412 192.992 1565.412 193.472 1565.436 193.952 1565.448 194.288 1565.448 194.48 L1566.6 194.48 C1566.864 194.48 1567.38 194.912 1568.148 195.776 1568.916 196.64 1569.288 197.252 1569.264 197.612 1569.24 198.044 1569.096 198.428 1568.832 198.764 1568.568 199.1 1568.28 199.268 1567.968 199.268 1567.872 199.268 1567.788 199.256 1567.716 199.232 1567.404 199.112 1566.648 199.052 1565.448 199.052 L1565.448 213.272 C1565.448 213.464 1565.55 213.71 1565.754 214.01 1565.958 214.31 1566.036 214.568 1565.988 214.784 1565.844 215.576 1565.34 215.996 1564.476 216.044 1563.996 216.068 1563.072 215.852 1561.704 215.396 1560.24 214.916 1559.46 214.472 1559.364 214.064 1559.316 213.896 1559.4 213.542 1559.616 213.002 1559.832 212.462 1559.94 212.048 1559.94 211.76 L1559.94 199.016 1558.716 199.016 C1558.26 199.016 1557.702 198.614 1557.042 197.81 1556.382 197.006 1556.052 196.364 1556.052 195.884 1556.052 195.524 1556.184 195.2 1556.448 194.912 1556.712 194.624 1557.012 194.48 1557.348 194.48 L1559.94 194.48 C1559.94 191.84 1560.096 190.004 1560.408 188.972 1561.128 186.716 1562.676 185.588 1565.052 185.588 1565.364 185.588 1565.676 185.6 1565.988 185.624 1566.756 185.72 1567.572 186.116 1568.436 186.812 1569.204 187.412 1569.612 187.88 1569.66 188.216 Z"/>
  </defs>
  <use id="f#-1" xlink:href="#f#" fill="#c53923" fill-opacity="1" stroke="none"/>
  <use id="f#-2" xlink:href="#f#" fill="#be121e" fill-opacity="1" stroke="none"/>
  <g id="furos-baixo">
   <g id="furo-duplo">
    <defs>
     <path id="furo-grande" d="M1587.656 740.725 C1587.656 734.253 1582.41 729.006 1575.938 729.006 1569.465 729.006 1564.219 734.253 1564.219 740.725 1564.219 747.197 1569.465 752.444 1575.938 752.444 1582.41 752.444 1587.656 747.197 1587.656 740.725 Z"/>
    </defs>
    <defs>
     <path id="stroke-path" d="M1579.609 750.797 L1583.141 748.641 1585.609 745.344 1586.313 743.391 1586.656 740.781 1585.984 737.063 1583.844 733.516 1580.547 731.063 1578.656 730.359 1575.938 730.031 1572.25 730.672 1568.719 732.828 1566.25 736.125 1565.563 738 1565.234 740.734 1565.875 744.406 1568.016 747.938 1571.313 750.406 1573.203 751.109 1575.938 751.438 Z"/>
    </defs>
    <use id="furo-grande-1" stroke="#000000" stroke-opacity="1" stroke-linecap="round" fill="none" stroke-width="2" xlink:href="#stroke-path"/>
    <defs>
     <path id="furo-menor" d="M1605.234 740.725 C1605.234 737.489 1602.611 734.866 1599.375 734.866 1596.139 734.866 1593.516 737.489 1593.516 740.725 1593.516 743.961 1596.139 746.584 1599.375 746.584 1602.611 746.584 1605.234 743.961 1605.234 740.725 Z"/>
    </defs>
    <defs>
     <path id="stroke-path-1" d="M1601.031 745.281 L1602.641 744.313 1603.734 742.859 1604.219 740.734 1603.922 739.094 1602.938 737.469 1601.484 736.375 1599.359 735.891 1597.703 736.188 1596.094 737.156 1595 738.609 1594.531 740.75 1594.813 742.391 1595.797 744 1597.25 745.094 1599.391 745.578 Z"/>
    </defs>
    <use id="furo-menor-1" stroke="#000000" stroke-opacity="1" stroke-linecap="round" fill="none" stroke-width="2" xlink:href="#stroke-path-1"/>
   </g>
   <g id="furo-duplo-1">
    <path id="furo-grande-2" d="M1587.656 682.131 C1587.656 675.659 1582.41 670.412 1575.938 670.412 1569.465 670.412 1564.219 675.659 1564.219 682.131 1564.219 688.603 1569.465 693.85 1575.938 693.85 1582.41 693.85 1587.656 688.603 1587.656 682.131 Z" fill="#000000" fill-opacity="1" stroke="none"/>
    <path id="furo-menor-2" d="M1605.234 682.131 C1605.234 678.895 1602.611 676.272 1599.375 676.272 1596.139 676.272 1593.516 678.895 1593.516 682.131 1593.516 685.367 1596.139 687.991 1599.375 687.991 1602.611 687.991 1605.234 685.367 1605.234 682.131 Z" fill="#000000" fill-opacity="1" stroke="none"/>
   </g>
   <path id="furo" d="M1587.656 623.537 C1587.656 617.065 1582.41 611.819 1575.938 611.819 1569.465 611.819 1564.219 617.065 1564.219 623.537 1564.219 630.01 1569.465 635.256 1575.938 635.256 1582.41 635.256 1587.656 630.01 1587.656 623.537 Z" fill="#000000" fill-opacity="1" stroke="none"/>
   <defs>
    <path id="furo-1" d="M1587.656 564.944 C1587.656 558.472 1582.41 553.225 1575.938 553.225 1569.465 553.225 1564.219 558.472 1564.219 564.944 1564.219 571.416 1569.465 576.662 1575.938 576.662 1582.41 576.662 1587.656 571.416 1587.656 564.944 Z"/>
   </defs>
   <defs>
    <path id="stroke-path-2" d="M1579.609 575.016 L1583.141 572.859 1585.609 569.563 1586.313 567.609 1586.656 565 1585.984 561.281 1583.844 557.734 1580.547 555.281 1578.656 554.578 1575.938 554.25 1572.25 554.891 1568.719 557.047 1566.25 560.344 1565.563 562.219 1565.234 564.953 1565.875 568.625 1568.016 572.156 1571.313 574.625 1573.203 575.328 1575.938 575.656 Z"/>
   </defs>
   <use id="furo-2" stroke="#000000" stroke-opacity="1" stroke-linecap="round" fill="none" stroke-width="2" xlink:href="#stroke-path-2"/>
  </g>
  <g id="furos-cima">
   <path id="furo-3" d="M1587.656 447.756 C1587.656 441.284 1582.41 436.037 1575.938 436.037 1569.465 436.037 1564.219 441.284 1564.219 447.756 1564.219 454.228 1569.465 459.475 1575.938 459.475 1582.41 459.475 1587.656 454.228 1587.656 447.756 Z" fill="#000000" fill-opacity="1" stroke="none"/>
   <path id="furo-2" d="M1587.656 389.162 C1587.656 382.69 1582.41 377.444 1575.938 377.444 1569.465 377.444 1564.219 382.69 1564.219 389.162 1564.219 395.635 1569.465 400.881 1575.938 400.881 1582.41 400.881 1587.656 395.635 1587.656 389.162 Z" fill="#000000" fill-opacity="1" stroke="none"/>
   <path id="furo-1" d="M1587.656 330.569 C1587.656 324.097 1582.41 318.85 1575.938 318.85 1569.465 318.85 1564.219 324.097 1564.219 330.569 1564.219 337.041 1569.465 342.287 1575.938 342.287 1582.41 342.287 1587.656 337.041 1587.656 330.569 Z" fill="#000000" fill-opacity="1" stroke="none"/>
   <g id="furo-traseiro">
    <path id="furo-tras-base" d="M1529.063 330.569 C1529.063 324.097 1523.816 318.85 1517.344 318.85 1510.872 318.85 1505.625 324.097 1505.625 330.569 1505.625 337.041 1510.872 342.287 1517.344 342.287 1523.816 342.287 1529.063 337.041 1529.063 330.569 Z" fill="#000000" fill-opacity="1" stroke="none"/>
    <path id="Retângulo" d="M1517.344 342.287 C1510.872 342.287 1505.625 337.041 1505.625 330.569 L1529.063 330.569 C1529.063 337.041 1523.816 342.287 1517.344 342.287 Z" fill="#000000" fill-opacity="1" stroke="none"/>
    <path id="furo-tras-copiar" d="M1505.625 330.569 C1505.625 324.097 1510.872 318.85 1517.344 318.85 1523.816 318.85 1529.063 324.097 1529.063 330.569 L1505.625 330.569 Z" fill="#000000" fill-opacity="1" stroke="none"/>
   </g>
  </g>
 </g>
</svg>
