<?xml version="1.0" encoding="UTF-8"?>
<svg width="111px" height="641px" viewBox="2432 188 111 641" xmlns="http://www.w3.org/2000/svg" xmlns:xlink="http://www.w3.org/1999/xlink" version="1.1">
 <!-- Generated by Pixelmator Pro 2.3.3 -->
 <g id="flauta-nota-a#">
  <path id="corpo-da-flauta" d="M2502.938 242.678 C2481.364 242.678 2463.875 260.167 2463.875 281.741 L2463.875 789.553 C2463.875 811.127 2481.364 828.616 2502.938 828.616 L2502.938 828.616 C2524.511 828.616 2542 811.127 2542 789.553 L2542 281.741 C2542 260.167 2524.511 242.678 2502.938 242.678 Z" fill="#fce5cd" fill-opacity="1" stroke="none"/>
  <defs>
   <path id="a#" d="M2523.552 206 C2523.216 206 2522.736 205.94 2522.112 205.82 2521.488 205.7 2521.104 205.64 2520.96 205.64 L2519.16 205.64 C2519.112 207.536 2519.04 209.588 2518.944 211.796 2518.8 212.54 2518.476 212.948 2517.972 213.02 2517.516 213.092 2516.754 212.846 2515.686 212.282 2514.618 211.718 2513.976 211.292 2513.76 211.004 2513.616 210.788 2513.544 210.548 2513.544 210.284 2513.544 210.02 2513.622 209.678 2513.778 209.258 2513.934 208.838 2514.012 208.568 2514.012 208.448 2514.036 208.112 2514.072 207.176 2514.12 205.64 L2512.068 205.64 C2512.044 207.296 2512.02 209 2511.996 210.752 2511.924 211.088 2511.72 211.388 2511.384 211.652 2511.048 211.916 2510.676 212.036 2510.268 212.012 2509.956 211.988 2509.236 211.562 2508.108 210.734 2506.98 209.906 2506.404 209.336 2506.38 209.024 2506.356 208.76 2506.452 208.46 2506.668 208.124 2506.884 207.788 2507.004 207.512 2507.028 207.296 L2507.028 205.64 C2506.428 205.64 2505.894 205.76 2505.426 206 2504.958 206.24 2504.64 206.348 2504.472 206.324 2504.16 206.3 2503.59 205.73 2502.762 204.614 2501.934 203.498 2501.508 202.76 2501.484 202.4 2501.46 201.992 2501.58 201.626 2501.844 201.302 2502.108 200.978 2502.408 200.78 2502.744 200.708 2503.992 200.708 2505.42 200.696 2507.028 200.672 L2507.028 198.584 C2505.972 198.584 2505.324 198.602 2505.084 198.638 2504.844 198.674 2504.556 198.776 2504.22 198.944 2503.884 199.112 2503.596 199.184 2503.356 199.16 2502.828 199.112 2502.21 198.62 2501.502 197.684 2500.794 196.748 2500.44 195.896 2500.44 195.128 2500.44 194.36 2500.86 193.892 2501.7 193.724 2501.964 193.676 2503.74 193.628 2507.028 193.58 L2507.028 192.536 C2507.028 192.392 2506.974 192.014 2506.866 191.402 2506.758 190.79 2506.704 190.304 2506.704 189.944 2506.704 189.008 2507.1 188.54 2507.892 188.54 2508.54 188.54 2509.308 188.684 2510.196 188.972 2511.18 189.284 2511.828 189.632 2512.14 190.016 2512.26 190.208 2512.32 191.372 2512.32 193.508 L2514.048 193.508 C2514.096 190.676 2514.21 189.134 2514.39 188.882 2514.57 188.63 2514.948 188.504 2515.524 188.504 2516.604 188.504 2517.888 188.876 2519.376 189.62 2519.616 189.74 2519.736 189.968 2519.736 190.304 2519.736 190.52 2519.658 190.862 2519.502 191.33 2519.346 191.798 2519.268 192.092 2519.268 192.212 L2519.268 193.472 C2520.084 193.448 2520.744 193.436 2521.248 193.436 2521.368 193.436 2521.668 193.352 2522.148 193.184 2522.628 193.016 2522.988 192.932 2523.228 192.932 2523.54 192.932 2523.756 193.052 2523.876 193.292 2524.62 194.756 2524.992 196.04 2524.992 197.144 2524.992 197.744 2524.848 198.152 2524.56 198.368 2524.368 198.512 2522.592 198.584 2519.232 198.584 2519.208 198.992 2519.196 199.58 2519.196 200.348 2521.86 200.348 2523.288 200.42 2523.48 200.564 2523.864 200.876 2524.212 201.524 2524.524 202.508 2524.812 203.396 2524.956 204.164 2524.956 204.812 2524.956 205.604 2524.488 206 2523.552 206 Z M2514.084 200.42 L2514.084 198.584 2512.284 198.584 C2512.284 198.992 2512.26 199.628 2512.212 200.492 2513.076 200.444 2513.7 200.42 2514.084 200.42 Z M2498.316 214.46 C2498.292 214.796 2498.148 215.084 2497.884 215.324 2497.62 215.564 2497.32 215.66 2496.984 215.612 2494.008 215.204 2492.352 214.64 2492.016 213.92 2491.968 213.824 2491.944 213.728 2491.944 213.632 2491.944 213.512 2491.998 213.38 2492.106 213.236 2492.214 213.092 2492.28 212.966 2492.304 212.858 2492.328 212.75 2492.376 212.648 2492.448 212.552 2492.496 212.36 2492.508 211.94 2492.484 211.292 2492.196 211.508 2491.764 212.084 2491.188 213.02 2490.588 214.052 2490.06 214.772 2489.604 215.18 2488.836 215.9 2487.96 216.26 2486.976 216.26 2486.4 216.26 2485.836 216.032 2485.284 215.576 2485.02 215.36 2484.552 214.892 2483.88 214.172 2482.728 212.876 2482.104 212.168 2482.008 212.048 2481.504 211.376 2481.252 210.74 2481.252 210.14 2481.252 209.948 2481.276 209.756 2481.324 209.564 2481.78 207.452 2483.196 205.448 2485.572 203.552 2487.3 202.184 2489.748 200.732 2492.916 199.196 2492.916 198.428 2492.724 197.936 2492.34 197.72 2492.1 197.576 2491.26 197.846 2489.82 198.53 2488.38 199.214 2487.372 199.796 2486.796 200.276 2486.604 200.468 2486.292 200.732 2485.86 201.068 2485.452 201.308 2485.08 201.38 2484.744 201.284 2484.48 201.212 2483.916 200.78 2483.052 199.988 2482.188 199.196 2481.72 198.668 2481.648 198.404 2481.456 197.756 2481.66 197.252 2482.26 196.892 2482.284 196.868 2482.764 196.724 2483.7 196.46 2484.588 195.98 2485.476 195.5 2486.364 195.02 2488.236 194.132 2489.82 193.652 2491.116 193.58 2491.668 193.556 2492.292 193.844 2492.988 194.444 2493.612 194.996 2494.242 195.542 2494.878 196.082 2495.514 196.622 2496.168 197.144 2496.84 197.648 2497.608 198.32 2497.992 198.968 2497.992 199.592 L2497.992 213.2 C2498.232 213.824 2498.34 214.244 2498.316 214.46 Z M2492.556 203.948 C2491.38 204.404 2490.372 205.1 2489.532 206.036 2488.908 206.804 2488.284 207.56 2487.66 208.304 2487.156 208.808 2486.682 209.462 2486.238 210.266 2485.794 211.07 2485.572 211.664 2485.572 212.048 2485.572 212.24 2485.644 212.336 2485.788 212.336 2486.292 212.336 2487.42 211.25 2489.172 209.078 2490.924 206.906 2492.052 205.196 2492.556 203.948 Z"/>
  </defs>
  <use id="a#-1" xlink:href="#a#" fill="#c53923" fill-opacity="1" stroke="none"/>
  <use id="a#-2" xlink:href="#a#" fill="#be121e" fill-opacity="1" stroke="none"/>
  <g id="furos-baixo">
   <g id="furo-duplo">
    <defs>
     <path id="furo-grande" d="M2514.656 740.725 C2514.656 734.253 2509.41 729.006 2502.938 729.006 2496.465 729.006 2491.219 734.253 2491.219 740.725 2491.219 747.197 2496.465 752.444 2502.938 752.444 2509.41 752.444 2514.656 747.197 2514.656 740.725 Z"/>
    </defs>
    <defs>
     <path id="stroke-path" d="M2506.609 750.797 L2510.141 748.641 2512.609 745.344 2513.313 743.391 2513.656 740.734 2513.313 738.063 2512.609 736.125 2510.141 732.828 2506.609 730.672 2502.938 730.031 2499.25 730.672 2495.719 732.828 2493.25 736.125 2492.563 738 2492.234 740.734 2492.563 743.469 2493.25 745.344 2495.719 748.641 2499.25 750.797 2502.938 751.438 Z"/>
    </defs>
    <use id="furo-grande-1" stroke="#000000" stroke-opacity="1" stroke-linecap="round" fill="none" stroke-width="2" xlink:href="#stroke-path"/>
    <defs>
     <path id="furo-menor" d="M2532.234 740.725 C2532.234 737.489 2529.611 734.866 2526.375 734.866 2523.139 734.866 2520.516 737.489 2520.516 740.725 2520.516 743.961 2523.139 746.584 2526.375 746.584 2529.611 746.584 2532.234 743.961 2532.234 740.725 Z"/>
    </defs>
    <defs>
     <path id="stroke-path-1" d="M2528.484 745.094 L2529.938 744 2530.922 742.375 2531.219 740.734 2530.922 739.094 2529.938 737.469 2528.484 736.375 2526.375 735.891 2524.25 736.375 2522.797 737.469 2521.813 739.078 2521.531 740.734 2521.813 742.391 2522.797 744 2524.25 745.094 2526.375 745.578 Z"/>
    </defs>
    <use id="furo-menor-1" stroke="#000000" stroke-opacity="1" stroke-linecap="round" fill="none" stroke-width="2" xlink:href="#stroke-path-1"/>
   </g>
   <g id="furo-duplo-1">
    <defs>
     <path id="furo-grande-2" d="M2514.656 682.131 C2514.656 675.659 2509.41 670.412 2502.938 670.412 2496.465 670.412 2491.219 675.659 2491.219 682.131 2491.219 688.603 2496.465 693.85 2502.938 693.85 2509.41 693.85 2514.656 688.603 2514.656 682.131 Z"/>
    </defs>
    <defs>
     <path id="stroke-path-2" d="M2506.609 692.203 L2510.141 690.047 2512.609 686.75 2513.313 684.797 2513.656 682.141 2513.313 679.469 2512.609 677.531 2510.141 674.234 2506.609 672.078 2502.938 671.438 2499.25 672.078 2495.719 674.234 2493.25 677.531 2492.563 679.406 2492.234 682.141 2492.563 684.875 2493.25 686.75 2495.719 690.047 2499.25 692.203 2502.938 692.844 Z"/>
    </defs>
    <use id="furo-grande-3" stroke="#000000" stroke-opacity="1" stroke-linecap="round" fill="none" stroke-width="2" xlink:href="#stroke-path-2"/>
    <defs>
     <path id="furo-menor-2" d="M2532.234 682.131 C2532.234 678.895 2529.611 676.272 2526.375 676.272 2523.139 676.272 2520.516 678.895 2520.516 682.131 2520.516 685.367 2523.139 687.991 2526.375 687.991 2529.611 687.991 2532.234 685.367 2532.234 682.131 Z"/>
    </defs>
    <defs>
     <path id="stroke-path-3" d="M2528.484 686.5 L2529.938 685.406 2530.922 683.781 2531.219 682.141 2530.922 680.5 2529.938 678.875 2528.484 677.781 2526.375 677.297 2524.25 677.781 2522.797 678.875 2521.813 680.484 2521.531 682.141 2521.813 683.797 2522.797 685.406 2524.25 686.5 2526.375 686.984 Z"/>
    </defs>
    <use id="furo-menor-3" stroke="#000000" stroke-opacity="1" stroke-linecap="round" fill="none" stroke-width="2" xlink:href="#stroke-path-3"/>
   </g>
   <defs>
    <path id="furo" d="M2514.656 623.537 C2514.656 617.065 2509.41 611.819 2502.938 611.819 2496.465 611.819 2491.219 617.065 2491.219 623.537 2491.219 630.01 2496.465 635.256 2502.938 635.256 2509.41 635.256 2514.656 630.01 2514.656 623.537 Z"/>
   </defs>
   <defs>
    <path id="stroke-path-4" d="M2506.609 633.609 L2510.141 631.453 2512.609 628.156 2513.313 626.203 2513.656 623.547 2513.313 620.875 2512.609 618.938 2510.141 615.641 2506.609 613.484 2502.938 612.844 2499.25 613.484 2495.719 615.641 2493.25 618.938 2492.563 620.813 2492.234 623.547 2492.563 626.281 2493.25 628.156 2495.719 631.453 2499.25 633.609 2502.938 634.25 Z"/>
   </defs>
   <use id="furo-1" stroke="#000000" stroke-opacity="1" stroke-linecap="round" fill="none" stroke-width="2" xlink:href="#stroke-path-4"/>
   <defs>
    <path id="furo-2" d="M2514.656 564.944 C2514.656 558.472 2509.41 553.225 2502.938 553.225 2496.465 553.225 2491.219 558.472 2491.219 564.944 2491.219 571.416 2496.465 576.662 2502.938 576.662 2509.41 576.662 2514.656 571.416 2514.656 564.944 Z"/>
   </defs>
   <use id="furo-3" xlink:href="#furo-2" fill="#000000" fill-opacity="1" stroke="none"/>
   <defs>
    <path id="stroke-path-5" d="M2506.609 575.016 L2510.141 572.859 2512.609 569.563 2513.313 567.609 2513.656 564.953 2513.313 562.281 2512.609 560.344 2510.141 557.047 2506.609 554.891 2502.938 554.25 2499.25 554.891 2495.719 557.047 2493.25 560.344 2492.563 562.219 2492.234 564.953 2492.563 567.688 2493.25 569.563 2495.719 572.859 2499.25 575.016 2502.938 575.656 Z"/>
   </defs>
   <use id="furo-4" stroke="#000000" stroke-opacity="1" stroke-linecap="round" fill="none" stroke-width="2" xlink:href="#stroke-path-5"/>
  </g>
  <g id="furos-cima">
   <defs>
    <path id="furo-3" d="M2514.656 447.756 C2514.656 441.284 2509.41 436.037 2502.938 436.037 2496.465 436.037 2491.219 441.284 2491.219 447.756 2491.219 454.228 2496.465 459.475 2502.938 459.475 2509.41 459.475 2514.656 454.228 2514.656 447.756 Z"/>
   </defs>
   <use id="furo-3-1" xlink:href="#furo-3" fill="#000000" fill-opacity="1" stroke="none"/>
   <defs>
    <path id="stroke-path-6" d="M2506.609 457.828 L2510.141 455.672 2512.609 452.375 2513.313 450.422 2513.656 447.766 2513.313 445.094 2512.609 443.156 2510.141 439.859 2506.609 437.703 2502.938 437.063 2499.25 437.703 2495.719 439.859 2493.25 443.156 2492.563 445.031 2492.234 447.766 2492.563 450.5 2493.25 452.375 2495.719 455.672 2499.25 457.828 2502.938 458.469 Z"/>
   </defs>
   <use id="furo-3-2" stroke="#000000" stroke-opacity="1" stroke-linecap="round" fill="none" stroke-width="2" xlink:href="#stroke-path-6"/>
   <defs>
    <path id="furo-2" d="M2514.656 389.162 C2514.656 382.69 2509.41 377.444 2502.938 377.444 2496.465 377.444 2491.219 382.69 2491.219 389.162 2491.219 395.635 2496.465 400.881 2502.938 400.881 2509.41 400.881 2514.656 395.635 2514.656 389.162 Z"/>
   </defs>
   <defs>
    <path id="stroke-path-7" d="M2506.609 399.234 L2510.141 397.078 2512.609 393.781 2513.313 391.828 2513.656 389.172 2513.313 386.5 2512.609 384.563 2510.141 381.266 2506.609 379.109 2502.938 378.469 2499.25 379.109 2495.719 381.266 2493.25 384.563 2492.563 386.438 2492.234 389.172 2492.563 391.906 2493.25 393.781 2495.719 397.078 2499.25 399.234 2502.938 399.875 Z"/>
   </defs>
   <use id="furo-2-1" stroke="#000000" stroke-opacity="1" stroke-linecap="round" fill="none" stroke-width="2" xlink:href="#stroke-path-7"/>
   <path id="furo-1" d="M2514.656 330.569 C2514.656 324.097 2509.41 318.85 2502.938 318.85 2496.465 318.85 2491.219 324.097 2491.219 330.569 2491.219 337.041 2496.465 342.287 2502.938 342.287 2509.41 342.287 2514.656 337.041 2514.656 330.569 Z" fill="#000000" fill-opacity="1" stroke="none"/>
   <g id="furo-traseiro">
    <path id="furo-tras-base" d="M2456.063 330.569 C2456.063 324.097 2450.816 318.85 2444.344 318.85 2437.872 318.85 2432.625 324.097 2432.625 330.569 2432.625 337.041 2437.872 342.287 2444.344 342.287 2450.816 342.287 2456.063 337.041 2456.063 330.569 Z" fill="#000000" fill-opacity="1" stroke="none"/>
    <path id="Retângulo" d="M2444.344 342.287 C2437.872 342.287 2432.625 337.041 2432.625 330.569 L2456.063 330.569 C2456.063 337.041 2450.816 342.287 2444.344 342.287 Z" fill="#000000" fill-opacity="1" stroke="none"/>
    <path id="furo-tras-copiar" d="M2432.625 330.569 C2432.625 324.097 2437.872 318.85 2444.344 318.85 2450.816 318.85 2456.063 324.097 2456.063 330.569 L2432.625 330.569 Z" fill="#000000" fill-opacity="1" stroke="none"/>
   </g>
  </g>
 </g>
</svg>
