<?xml version="1.0" encoding="UTF-8"?>
<svg width="111px" height="646px" viewBox="2665 183 111 646" xmlns="http://www.w3.org/2000/svg" xmlns:xlink="http://www.w3.org/1999/xlink" version="1.1">
 <!-- Generated by Pixelmator Pro 2.3.3 -->
 <g id="flauta-nota-b">
  <path id="corpo-da-flauta" d="M2735.938 242.678 C2714.364 242.678 2696.875 260.167 2696.875 281.741 L2696.875 789.553 C2696.875 811.127 2714.364 828.616 2735.938 828.616 L2735.938 828.616 C2757.511 828.616 2775 811.127 2775 789.553 L2775 281.741 C2775 260.167 2757.511 242.678 2735.938 242.678 Z" fill="#fce5cd" fill-opacity="1" stroke="none"/>
  <defs>
   <path id="b" d="M2743.808 197.072 C2744.36 198.224 2744.636 199.652 2744.636 201.356 2744.636 203.612 2744.192 206.048 2743.304 208.664 2742.44 211.112 2741.456 213.032 2740.352 214.424 2740.232 214.832 2740.16 215.084 2740.136 215.18 2740.04 215.444 2739.896 215.66 2739.704 215.828 2739.368 216.092 2738.804 216.236 2738.012 216.26 2737.316 216.26 2736.632 216.044 2735.96 215.612 2735.888 215.564 2735.336 215.144 2734.304 214.352 2734.328 214.52 2734.412 214.784 2734.556 215.144 2734.628 215.384 2734.628 215.6 2734.556 215.792 2734.364 216.32 2734.052 216.608 2733.62 216.656 2733.068 216.704 2732.072 216.518 2730.632 216.098 2729.192 215.678 2728.364 215.3 2728.148 214.964 2728.004 214.748 2728.112 214.328 2728.472 213.704 2728.592 213.488 2728.652 212.984 2728.652 212.192 L2728.652 188 C2728.652 187.88 2728.538 187.658 2728.31 187.334 2728.082 187.01 2727.992 186.728 2728.04 186.488 2728.184 185.72 2728.676 185.336 2729.516 185.336 2730.308 185.336 2731.346 185.564 2732.63 186.02 2733.914 186.476 2734.664 186.944 2734.88 187.424 2734.976 187.64 2734.898 188.024 2734.646 188.576 2734.394 189.128 2734.244 189.584 2734.196 189.944 L2734.196 195.848 C2736.14 193.904 2737.7 193.004 2738.876 193.148 2739.692 193.244 2740.568 193.652 2741.504 194.372 2742.536 195.116 2743.304 196.016 2743.808 197.072 Z M2739.596 197.288 C2738.684 197.648 2737.652 198.38 2736.5 199.484 2735.348 200.588 2734.616 201.512 2734.304 202.256 L2734.304 211.976 C2734.472 212.168 2734.76 212.384 2735.168 212.624 2735.96 212.768 2736.92 211.004 2738.048 207.332 2739.152 203.756 2739.704 200.804 2739.704 198.476 2739.704 197.996 2739.668 197.6 2739.596 197.288 Z"/>
  </defs>
  <use id="b-1" xlink:href="#b" fill="#c53923" fill-opacity="1" stroke="none"/>
  <use id="b-2" xlink:href="#b" fill="#be121e" fill-opacity="1" stroke="none"/>
  <g id="furos-baixo">
   <g id="furo-duplo">
    <defs>
     <path id="furo-grande" d="M2747.656 740.725 C2747.656 734.253 2742.41 729.006 2735.938 729.006 2729.465 729.006 2724.219 734.253 2724.219 740.725 2724.219 747.197 2729.465 752.444 2735.938 752.444 2742.41 752.444 2747.656 747.197 2747.656 740.725 Z"/>
    </defs>
    <defs>
     <path id="stroke-path" d="M2739.609 750.797 L2743.141 748.641 2745.609 745.344 2746.313 743.391 2746.656 740.734 2746.313 738.063 2745.609 736.125 2743.141 732.828 2739.609 730.672 2735.938 730.031 2732.25 730.672 2728.719 732.828 2726.25 736.125 2725.563 738 2725.234 740.734 2725.563 743.469 2726.25 745.344 2728.719 748.641 2732.25 750.797 2735.938 751.438 Z"/>
    </defs>
    <use id="furo-grande-1" stroke="#000000" stroke-opacity="1" stroke-linecap="round" fill="none" stroke-width="2" xlink:href="#stroke-path"/>
    <defs>
     <path id="furo-menor" d="M2765.234 740.725 C2765.234 737.489 2762.611 734.866 2759.375 734.866 2756.139 734.866 2753.516 737.489 2753.516 740.725 2753.516 743.961 2756.139 746.584 2759.375 746.584 2762.611 746.584 2765.234 743.961 2765.234 740.725 Z"/>
    </defs>
    <defs>
     <path id="stroke-path-1" d="M2761.484 745.094 L2762.938 744 2763.922 742.375 2764.219 740.734 2763.922 739.094 2762.938 737.469 2761.484 736.375 2759.375 735.891 2757.25 736.375 2755.797 737.469 2754.813 739.078 2754.531 740.734 2754.813 742.391 2755.797 744 2757.25 745.094 2759.375 745.578 Z"/>
    </defs>
    <use id="furo-menor-1" stroke="#000000" stroke-opacity="1" stroke-linecap="round" fill="none" stroke-width="2" xlink:href="#stroke-path-1"/>
   </g>
   <g id="furo-duplo-1">
    <defs>
     <path id="furo-grande-2" d="M2747.656 682.131 C2747.656 675.659 2742.41 670.412 2735.938 670.412 2729.465 670.412 2724.219 675.659 2724.219 682.131 2724.219 688.603 2729.465 693.85 2735.938 693.85 2742.41 693.85 2747.656 688.603 2747.656 682.131 Z"/>
    </defs>
    <defs>
     <path id="stroke-path-2" d="M2739.609 692.203 L2743.141 690.047 2745.609 686.75 2746.313 684.797 2746.656 682.141 2746.313 679.469 2745.609 677.531 2743.141 674.234 2739.609 672.078 2735.938 671.438 2732.25 672.078 2728.719 674.234 2726.25 677.531 2725.563 679.406 2725.234 682.141 2725.563 684.875 2726.25 686.75 2728.719 690.047 2732.25 692.203 2735.938 692.844 Z"/>
    </defs>
    <use id="furo-grande-3" stroke="#000000" stroke-opacity="1" stroke-linecap="round" fill="none" stroke-width="2" xlink:href="#stroke-path-2"/>
    <defs>
     <path id="furo-menor-2" d="M2765.234 682.131 C2765.234 678.895 2762.611 676.272 2759.375 676.272 2756.139 676.272 2753.516 678.895 2753.516 682.131 2753.516 685.367 2756.139 687.991 2759.375 687.991 2762.611 687.991 2765.234 685.367 2765.234 682.131 Z"/>
    </defs>
    <defs>
     <path id="stroke-path-3" d="M2761.484 686.5 L2762.938 685.406 2763.922 683.781 2764.219 682.141 2763.922 680.5 2762.938 678.875 2761.484 677.781 2759.375 677.297 2757.25 677.781 2755.797 678.875 2754.813 680.484 2754.531 682.141 2754.813 683.797 2755.797 685.406 2757.25 686.5 2759.375 686.984 Z"/>
    </defs>
    <use id="furo-menor-3" stroke="#000000" stroke-opacity="1" stroke-linecap="round" fill="none" stroke-width="2" xlink:href="#stroke-path-3"/>
   </g>
   <defs>
    <path id="furo" d="M2747.656 623.537 C2747.656 617.065 2742.41 611.819 2735.938 611.819 2729.465 611.819 2724.219 617.065 2724.219 623.537 2724.219 630.01 2729.465 635.256 2735.938 635.256 2742.41 635.256 2747.656 630.01 2747.656 623.537 Z"/>
   </defs>
   <defs>
    <path id="stroke-path-4" d="M2739.609 633.609 L2743.141 631.453 2745.609 628.156 2746.313 626.203 2746.656 623.547 2746.313 620.875 2745.609 618.938 2743.141 615.641 2739.609 613.484 2735.938 612.844 2732.25 613.484 2728.719 615.641 2726.25 618.938 2725.563 620.813 2725.234 623.547 2725.563 626.281 2726.25 628.156 2728.719 631.453 2732.25 633.609 2735.938 634.25 Z"/>
   </defs>
   <use id="furo-1" stroke="#000000" stroke-opacity="1" stroke-linecap="round" fill="none" stroke-width="2" xlink:href="#stroke-path-4"/>
   <defs>
    <path id="furo-2" d="M2747.656 564.944 C2747.656 558.472 2742.41 553.225 2735.938 553.225 2729.465 553.225 2724.219 558.472 2724.219 564.944 2724.219 571.416 2729.465 576.662 2735.938 576.662 2742.41 576.662 2747.656 571.416 2747.656 564.944 Z"/>
   </defs>
   <defs>
    <path id="stroke-path-5" d="M2739.609 575.016 L2743.141 572.859 2745.609 569.563 2746.313 567.609 2746.656 564.953 2746.313 562.281 2745.609 560.344 2743.141 557.047 2739.609 554.891 2735.938 554.25 2732.25 554.891 2728.719 557.047 2726.25 560.344 2725.563 562.219 2725.234 564.953 2725.563 567.688 2726.25 569.563 2728.719 572.859 2732.25 575.016 2735.938 575.656 Z"/>
   </defs>
   <use id="furo-3" stroke="#000000" stroke-opacity="1" stroke-linecap="round" fill="none" stroke-width="2" xlink:href="#stroke-path-5"/>
  </g>
  <g id="furos-cima">
   <defs>
    <path id="furo-3" d="M2747.656 447.756 C2747.656 441.284 2742.41 436.037 2735.938 436.037 2729.465 436.037 2724.219 441.284 2724.219 447.756 2724.219 454.228 2729.465 459.475 2735.938 459.475 2742.41 459.475 2747.656 454.228 2747.656 447.756 Z"/>
   </defs>
   <defs>
    <path id="stroke-path-6" d="M2739.609 457.828 L2743.141 455.672 2745.609 452.375 2746.313 450.422 2746.656 447.766 2746.313 445.094 2745.609 443.156 2743.141 439.859 2739.609 437.703 2735.938 437.063 2732.25 437.703 2728.719 439.859 2726.25 443.156 2725.563 445.031 2725.234 447.766 2725.563 450.5 2726.25 452.375 2728.719 455.672 2732.25 457.828 2735.938 458.469 Z"/>
   </defs>
   <use id="furo-3-1" stroke="#000000" stroke-opacity="1" stroke-linecap="round" fill="none" stroke-width="2" xlink:href="#stroke-path-6"/>
   <defs>
    <path id="furo-2" d="M2747.656 389.162 C2747.656 382.69 2742.41 377.444 2735.938 377.444 2729.465 377.444 2724.219 382.69 2724.219 389.162 2724.219 395.635 2729.465 400.881 2735.938 400.881 2742.41 400.881 2747.656 395.635 2747.656 389.162 Z"/>
   </defs>
   <defs>
    <path id="stroke-path-7" d="M2739.609 399.234 L2743.141 397.078 2745.609 393.781 2746.313 391.828 2746.656 389.172 2746.313 386.5 2745.609 384.563 2743.141 381.266 2739.609 379.109 2735.938 378.469 2732.25 379.109 2728.719 381.266 2726.25 384.563 2725.563 386.438 2725.234 389.172 2725.563 391.906 2726.25 393.781 2728.719 397.078 2732.25 399.234 2735.938 399.875 Z"/>
   </defs>
   <use id="furo-2-1" stroke="#000000" stroke-opacity="1" stroke-linecap="round" fill="none" stroke-width="2" xlink:href="#stroke-path-7"/>
   <path id="furo-1" d="M2747.656 330.569 C2747.656 324.097 2742.41 318.85 2735.938 318.85 2729.465 318.85 2724.219 324.097 2724.219 330.569 2724.219 337.041 2729.465 342.287 2735.938 342.287 2742.41 342.287 2747.656 337.041 2747.656 330.569 Z" fill="#000000" fill-opacity="1" stroke="none"/>
   <g id="furo-traseiro">
    <path id="furo-tras-base" d="M2689.063 330.569 C2689.063 324.097 2683.816 318.85 2677.344 318.85 2670.872 318.85 2665.625 324.097 2665.625 330.569 2665.625 337.041 2670.872 342.287 2677.344 342.287 2683.816 342.287 2689.063 337.041 2689.063 330.569 Z" fill="#000000" fill-opacity="1" stroke="none"/>
    <path id="Retângulo" d="M2677.344 342.287 C2670.872 342.287 2665.625 337.041 2665.625 330.569 L2689.063 330.569 C2689.063 337.041 2683.816 342.287 2677.344 342.287 Z" fill="#000000" fill-opacity="1" stroke="none"/>
    <path id="furo-tras-copiar" d="M2665.625 330.569 C2665.625 324.097 2670.872 318.85 2677.344 318.85 2683.816 318.85 2689.063 324.097 2689.063 330.569 L2665.625 330.569 Z" fill="#000000" fill-opacity="1" stroke="none"/>
   </g>
  </g>
 </g>
</svg>
