<?xml version="1.0" encoding="UTF-8"?>
<svg width="111px" height="646px" viewBox="1273 183 111 646" xmlns="http://www.w3.org/2000/svg" xmlns:xlink="http://www.w3.org/1999/xlink" version="1.1">
 <!-- Generated by Pixelmator Pro 2.3.3 -->
 <g id="flauta-nota-f">
  <path id="corpo-da-flauta" d="M1343.938 242.678 C1322.364 242.678 1304.875 260.167 1304.875 281.741 L1304.875 789.553 C1304.875 811.127 1322.364 828.616 1343.938 828.616 L1343.938 828.616 C1365.511 828.616 1383 811.127 1383 789.553 L1383 281.741 C1383 260.167 1365.511 242.678 1343.938 242.678 Z" fill="#fce5cd" fill-opacity="1" stroke="none"/>
  <defs>
   <path id="f" d="M1351.16 188.216 C1351.208 188.576 1351.1 188.984 1350.836 189.44 1350.572 189.896 1350.296 190.112 1350.008 190.088 1349.84 190.088 1349.612 189.962 1349.324 189.71 1349.036 189.458 1348.784 189.32 1348.568 189.296 1347.464 189.104 1346.912 190.124 1346.912 192.356 1346.912 192.62 1346.912 192.992 1346.912 193.472 1346.936 193.952 1346.948 194.288 1346.948 194.48 L1348.1 194.48 C1348.364 194.48 1348.88 194.912 1349.648 195.776 1350.416 196.64 1350.788 197.252 1350.764 197.612 1350.74 198.044 1350.596 198.428 1350.332 198.764 1350.068 199.1 1349.78 199.268 1349.468 199.268 1349.372 199.268 1349.288 199.256 1349.216 199.232 1348.904 199.112 1348.148 199.052 1346.948 199.052 L1346.948 213.272 C1346.948 213.464 1347.05 213.71 1347.254 214.01 1347.458 214.31 1347.536 214.568 1347.488 214.784 1347.344 215.576 1346.84 215.996 1345.976 216.044 1345.496 216.068 1344.572 215.852 1343.204 215.396 1341.74 214.916 1340.96 214.472 1340.864 214.064 1340.816 213.896 1340.9 213.542 1341.116 213.002 1341.332 212.462 1341.44 212.048 1341.44 211.76 L1341.44 199.016 1340.216 199.016 C1339.76 199.016 1339.202 198.614 1338.542 197.81 1337.882 197.006 1337.552 196.364 1337.552 195.884 1337.552 195.524 1337.684 195.2 1337.948 194.912 1338.212 194.624 1338.512 194.48 1338.848 194.48 L1341.44 194.48 C1341.44 191.84 1341.596 190.004 1341.908 188.972 1342.628 186.716 1344.176 185.588 1346.552 185.588 1346.864 185.588 1347.176 185.6 1347.488 185.624 1348.256 185.72 1349.072 186.116 1349.936 186.812 1350.704 187.412 1351.112 187.88 1351.16 188.216 Z"/>
  </defs>
  <use id="f-1" xlink:href="#f" fill="#c53923" fill-opacity="1" stroke="none"/>
  <use id="f-2" xlink:href="#f" fill="#be121e" fill-opacity="1" stroke="none"/>
  <g id="furos-baixo">
   <g id="furo-duplo">
    <defs>
     <path id="furo-grande" d="M1355.656 740.725 C1355.656 734.253 1350.41 729.006 1343.938 729.006 1337.465 729.006 1332.219 734.253 1332.219 740.725 1332.219 747.197 1337.465 752.444 1343.938 752.444 1350.41 752.444 1355.656 747.197 1355.656 740.725 Z"/>
    </defs>
    <defs>
     <path id="stroke-path" d="M1347.609 750.797 L1351.141 748.641 1353.609 745.344 1354.313 743.391 1354.656 740.781 1353.984 737.063 1351.844 733.516 1348.547 731.063 1346.656 730.359 1343.938 730.031 1340.25 730.672 1336.719 732.828 1334.25 736.125 1333.563 738 1333.234 740.734 1333.875 744.406 1336.016 747.938 1339.313 750.406 1341.203 751.109 1343.938 751.438 Z"/>
    </defs>
    <use id="furo-grande-1" stroke="#000000" stroke-opacity="1" stroke-linecap="round" fill="none" stroke-width="2" xlink:href="#stroke-path"/>
    <defs>
     <path id="furo-menor" d="M1373.234 740.725 C1373.234 737.489 1370.611 734.866 1367.375 734.866 1364.139 734.866 1361.516 737.489 1361.516 740.725 1361.516 743.961 1364.139 746.584 1367.375 746.584 1370.611 746.584 1373.234 743.961 1373.234 740.725 Z"/>
    </defs>
    <defs>
     <path id="stroke-path-1" d="M1369.031 745.281 L1370.641 744.313 1371.734 742.859 1372.219 740.734 1371.922 739.094 1370.938 737.469 1369.484 736.375 1367.359 735.891 1365.703 736.188 1364.094 737.156 1363 738.609 1362.531 740.75 1362.813 742.391 1363.797 744 1365.25 745.094 1367.391 745.578 Z"/>
    </defs>
    <use id="furo-menor-1" stroke="#000000" stroke-opacity="1" stroke-linecap="round" fill="none" stroke-width="2" xlink:href="#stroke-path-1"/>
   </g>
   <g id="furo-duplo-1">
    <path id="furo-grande-2" d="M1355.656 682.131 C1355.656 675.659 1350.41 670.412 1343.938 670.412 1337.465 670.412 1332.219 675.659 1332.219 682.131 1332.219 688.603 1337.465 693.85 1343.938 693.85 1350.41 693.85 1355.656 688.603 1355.656 682.131 Z" fill="#000000" fill-opacity="1" stroke="none"/>
    <path id="furo-menor-2" d="M1373.234 682.131 C1373.234 678.895 1370.611 676.272 1367.375 676.272 1364.139 676.272 1361.516 678.895 1361.516 682.131 1361.516 685.367 1364.139 687.991 1367.375 687.991 1370.611 687.991 1373.234 685.367 1373.234 682.131 Z" fill="#000000" fill-opacity="1" stroke="none"/>
   </g>
   <defs>
    <path id="furo" d="M1355.656 623.537 C1355.656 617.065 1350.41 611.819 1343.938 611.819 1337.465 611.819 1332.219 617.065 1332.219 623.537 1332.219 630.01 1337.465 635.256 1343.938 635.256 1350.41 635.256 1355.656 630.01 1355.656 623.537 Z"/>
   </defs>
   <defs>
    <path id="stroke-path-2" d="M1347.609 633.609 L1351.141 631.453 1353.609 628.156 1354.313 626.203 1354.656 623.594 1353.984 619.875 1351.844 616.328 1348.547 613.875 1346.656 613.172 1343.938 612.844 1340.25 613.484 1336.719 615.641 1334.25 618.938 1333.563 620.813 1333.234 623.547 1333.875 627.219 1336.016 630.75 1339.313 633.219 1341.203 633.922 1343.938 634.25 Z"/>
   </defs>
   <use id="furo-1" stroke="#000000" stroke-opacity="1" stroke-linecap="round" fill="none" stroke-width="2" xlink:href="#stroke-path-2"/>
   <path id="furo-2" d="M1355.656 564.944 C1355.656 558.472 1350.41 553.225 1343.938 553.225 1337.465 553.225 1332.219 558.472 1332.219 564.944 1332.219 571.416 1337.465 576.662 1343.938 576.662 1350.41 576.662 1355.656 571.416 1355.656 564.944 Z" fill="#000000" fill-opacity="1" stroke="none"/>
  </g>
  <g id="furos-cima">
   <path id="furo-3" d="M1355.656 447.756 C1355.656 441.284 1350.41 436.037 1343.938 436.037 1337.465 436.037 1332.219 441.284 1332.219 447.756 1332.219 454.228 1337.465 459.475 1343.938 459.475 1350.41 459.475 1355.656 454.228 1355.656 447.756 Z" fill="#000000" fill-opacity="1" stroke="none"/>
   <path id="furo-2" d="M1355.656 389.162 C1355.656 382.69 1350.41 377.444 1343.938 377.444 1337.465 377.444 1332.219 382.69 1332.219 389.162 1332.219 395.635 1337.465 400.881 1343.938 400.881 1350.41 400.881 1355.656 395.635 1355.656 389.162 Z" fill="#000000" fill-opacity="1" stroke="none"/>
   <path id="furo-1" d="M1355.656 330.569 C1355.656 324.097 1350.41 318.85 1343.938 318.85 1337.465 318.85 1332.219 324.097 1332.219 330.569 1332.219 337.041 1337.465 342.287 1343.938 342.287 1350.41 342.287 1355.656 337.041 1355.656 330.569 Z" fill="#000000" fill-opacity="1" stroke="none"/>
   <g id="furo-traseiro">
    <path id="furo-tras-base" d="M1297.063 330.569 C1297.063 324.097 1291.816 318.85 1285.344 318.85 1278.872 318.85 1273.625 324.097 1273.625 330.569 1273.625 337.041 1278.872 342.287 1285.344 342.287 1291.816 342.287 1297.063 337.041 1297.063 330.569 Z" fill="#000000" fill-opacity="1" stroke="none"/>
    <path id="Retângulo" d="M1285.344 342.287 C1278.872 342.287 1273.625 337.041 1273.625 330.569 L1297.063 330.569 C1297.063 337.041 1291.816 342.287 1285.344 342.287 Z" fill="#000000" fill-opacity="1" stroke="none"/>
    <path id="furo-tras-copiar" d="M1273.625 330.569 C1273.625 324.097 1278.872 318.85 1285.344 318.85 1291.816 318.85 1297.063 324.097 1297.063 330.569 L1273.625 330.569 Z" fill="#000000" fill-opacity="1" stroke="none"/>
   </g>
  </g>
 </g>
</svg>
