<?xml version="1.0" encoding="UTF-8"?>
<svg width="111px" height="638px" viewBox="1737 191 111 638" xmlns="http://www.w3.org/2000/svg" xmlns:xlink="http://www.w3.org/1999/xlink" version="1.1">
 <!-- Generated by Pixelmator Pro 2.3.3 -->
 <g id="flauta-nota-g">
  <path id="corpo-da-flauta" d="M1807.938 242.678 C1786.364 242.678 1768.875 260.167 1768.875 281.741 L1768.875 789.553 C1768.875 811.127 1786.364 828.616 1807.938 828.616 L1807.938 828.616 C1829.511 828.616 1847 811.127 1847 789.553 L1847 281.741 C1847 260.167 1829.511 242.678 1807.938 242.678 Z" fill="#fce5cd" fill-opacity="1" stroke="none"/>
  <defs>
   <path id="g" d="M1816.24 196.208 C1816.24 196.232 1816.108 196.472 1815.844 196.928 1815.676 197.264 1815.592 197.528 1815.592 197.72 L1815.592 213.488 C1815.592 217.472 1814.116 220.028 1811.164 221.156 1809.796 221.684 1808.548 221.948 1807.42 221.948 1805.788 221.948 1804.372 221.396 1803.172 220.292 1802.836 220.004 1802.26 219.38 1801.444 218.42 1801.396 218.372 1801.168 218.144 1800.76 217.736 1800.52 217.472 1800.388 217.196 1800.364 216.908 1800.34 216.548 1800.7 216.26 1801.444 216.044 1801.54 216.02 1801.684 216.008 1801.876 216.008 1802.404 216.008 1803.034 216.116 1803.766 216.332 1804.498 216.548 1805.02 216.812 1805.332 217.124 1805.716 217.604 1806.112 218.096 1806.52 218.6 1806.928 219.104 1807.408 219.38 1807.96 219.428 1808.944 219.524 1809.58 218.852 1809.868 217.412 1810.012 216.716 1810.084 215.48 1810.084 213.704 1810.012 213.8 1809.784 214.112 1809.4 214.64 1809.112 215.024 1808.86 215.3 1808.644 215.468 1808.38 215.708 1808.104 215.828 1807.816 215.828 1806.544 215.828 1805.476 215.48 1804.612 214.784 1802.044 212.624 1800.76 209.444 1800.76 205.244 1800.76 202.58 1801.324 200.192 1802.452 198.08 1803.628 195.824 1805.164 194.408 1807.06 193.832 1807.204 193.784 1807.336 193.76 1807.456 193.76 1807.84 193.76 1808.272 193.94 1808.752 194.3 1809.16 194.612 1809.568 194.936 1809.976 195.272 1810.12 194.864 1810.27 194.462 1810.426 194.066 1810.582 193.67 1810.828 193.448 1811.164 193.4 1811.668 193.328 1812.562 193.49 1813.846 193.886 1815.13 194.282 1815.856 194.624 1816.024 194.912 1816.312 195.392 1816.384 195.824 1816.24 196.208 Z M1809.868 205.064 C1810.06 203.408 1810.156 202.052 1810.156 200.996 1810.156 199.052 1809.844 197.96 1809.22 197.72 1808.716 197.528 1808.104 198.38 1807.384 200.276 1806.664 202.172 1806.304 203.9 1806.304 205.46 1806.304 208.292 1806.628 210.536 1807.276 212.192 1808.716 209.96 1809.58 207.584 1809.868 205.064 Z"/>
  </defs>
  <use id="g-1" xlink:href="#g" fill="#c53923" fill-opacity="1" stroke="none"/>
  <use id="g-2" xlink:href="#g" fill="#be121e" fill-opacity="1" stroke="none"/>
  <g id="furos-baixo">
   <g id="furo-duplo">
    <defs>
     <path id="furo-grande" d="M1819.656 740.725 C1819.656 734.253 1814.41 729.006 1807.938 729.006 1801.465 729.006 1796.219 734.253 1796.219 740.725 1796.219 747.197 1801.465 752.444 1807.938 752.444 1814.41 752.444 1819.656 747.197 1819.656 740.725 Z"/>
    </defs>
    <defs>
     <path id="stroke-path" d="M1811.609 750.797 L1815.141 748.641 1817.609 745.344 1818.313 743.391 1818.656 740.781 1817.984 737.063 1815.844 733.516 1812.547 731.063 1810.656 730.359 1807.938 730.031 1804.25 730.672 1800.719 732.828 1798.25 736.125 1797.563 738 1797.234 740.734 1797.875 744.406 1800.016 747.938 1803.313 750.406 1805.203 751.109 1807.938 751.438 Z"/>
    </defs>
    <use id="furo-grande-1" stroke="#000000" stroke-opacity="1" stroke-linecap="round" fill="none" stroke-width="2" xlink:href="#stroke-path"/>
    <defs>
     <path id="furo-menor" d="M1837.234 740.725 C1837.234 737.489 1834.611 734.866 1831.375 734.866 1828.139 734.866 1825.516 737.489 1825.516 740.725 1825.516 743.961 1828.139 746.584 1831.375 746.584 1834.611 746.584 1837.234 743.961 1837.234 740.725 Z"/>
    </defs>
    <defs>
     <path id="stroke-path-1" d="M1833.031 745.281 L1834.641 744.313 1835.734 742.859 1836.219 740.734 1835.922 739.094 1834.938 737.469 1833.484 736.375 1831.359 735.891 1829.703 736.188 1828.094 737.156 1827 738.609 1826.531 740.75 1826.813 742.391 1827.797 744 1829.25 745.094 1831.391 745.578 Z"/>
    </defs>
    <use id="furo-menor-1" stroke="#000000" stroke-opacity="1" stroke-linecap="round" fill="none" stroke-width="2" xlink:href="#stroke-path-1"/>
   </g>
   <g id="furo-duplo-1">
    <defs>
     <path id="furo-grande-2" d="M1819.656 682.131 C1819.656 675.659 1814.41 670.412 1807.938 670.412 1801.465 670.412 1796.219 675.659 1796.219 682.131 1796.219 688.603 1801.465 693.85 1807.938 693.85 1814.41 693.85 1819.656 688.603 1819.656 682.131 Z"/>
    </defs>
    <defs>
     <path id="stroke-path-2" d="M1811.609 692.203 L1815.141 690.047 1817.609 686.75 1818.313 684.797 1818.656 682.188 1817.984 678.469 1815.844 674.922 1812.547 672.469 1810.656 671.766 1807.938 671.438 1804.25 672.078 1800.719 674.234 1798.25 677.531 1797.563 679.406 1797.234 682.141 1797.875 685.813 1800.016 689.344 1803.313 691.813 1805.203 692.516 1807.938 692.844 Z"/>
    </defs>
    <use id="furo-grande-3" stroke="#000000" stroke-opacity="1" stroke-linecap="round" fill="none" stroke-width="2" xlink:href="#stroke-path-2"/>
    <defs>
     <path id="furo-menor-2" d="M1837.234 682.131 C1837.234 678.895 1834.611 676.272 1831.375 676.272 1828.139 676.272 1825.516 678.895 1825.516 682.131 1825.516 685.367 1828.139 687.991 1831.375 687.991 1834.611 687.991 1837.234 685.367 1837.234 682.131 Z"/>
    </defs>
    <defs>
     <path id="stroke-path-3" d="M1833.031 686.688 L1834.641 685.719 1835.734 684.266 1836.219 682.141 1835.922 680.5 1834.938 678.875 1833.484 677.781 1831.359 677.297 1829.703 677.594 1828.094 678.563 1827 680.016 1826.531 682.156 1826.813 683.797 1827.797 685.406 1829.25 686.5 1831.391 686.984 Z"/>
    </defs>
    <use id="furo-menor-3" stroke="#000000" stroke-opacity="1" stroke-linecap="round" fill="none" stroke-width="2" xlink:href="#stroke-path-3"/>
   </g>
   <defs>
    <path id="furo" d="M1819.656 623.537 C1819.656 617.065 1814.41 611.819 1807.938 611.819 1801.465 611.819 1796.219 617.065 1796.219 623.537 1796.219 630.01 1801.465 635.256 1807.938 635.256 1814.41 635.256 1819.656 630.01 1819.656 623.537 Z"/>
   </defs>
   <defs>
    <path id="stroke-path-4" d="M1811.609 633.609 L1815.141 631.453 1817.609 628.156 1818.313 626.203 1818.656 623.594 1817.984 619.875 1815.844 616.328 1812.547 613.875 1810.656 613.172 1807.938 612.844 1804.25 613.484 1800.719 615.641 1798.25 618.938 1797.563 620.813 1797.234 623.547 1797.875 627.219 1800.016 630.75 1803.313 633.219 1805.203 633.922 1807.938 634.25 Z"/>
   </defs>
   <use id="furo-1" stroke="#000000" stroke-opacity="1" stroke-linecap="round" fill="none" stroke-width="2" xlink:href="#stroke-path-4"/>
   <defs>
    <path id="furo-2" d="M1819.656 564.944 C1819.656 558.472 1814.41 553.225 1807.938 553.225 1801.465 553.225 1796.219 558.472 1796.219 564.944 1796.219 571.416 1801.465 576.662 1807.938 576.662 1814.41 576.662 1819.656 571.416 1819.656 564.944 Z"/>
   </defs>
   <defs>
    <path id="stroke-path-5" d="M1811.609 575.016 L1815.141 572.859 1817.609 569.563 1818.313 567.609 1818.656 565 1817.984 561.281 1815.844 557.734 1812.547 555.281 1810.656 554.578 1807.938 554.25 1804.25 554.891 1800.719 557.047 1798.25 560.344 1797.563 562.219 1797.234 564.953 1797.875 568.625 1800.016 572.156 1803.313 574.625 1805.203 575.328 1807.938 575.656 Z"/>
   </defs>
   <use id="furo-3" stroke="#000000" stroke-opacity="1" stroke-linecap="round" fill="none" stroke-width="2" xlink:href="#stroke-path-5"/>
  </g>
  <g id="furos-cima">
   <path id="furo-3" d="M1819.656 447.756 C1819.656 441.284 1814.41 436.037 1807.938 436.037 1801.465 436.037 1796.219 441.284 1796.219 447.756 1796.219 454.228 1801.465 459.475 1807.938 459.475 1814.41 459.475 1819.656 454.228 1819.656 447.756 Z" fill="#000000" fill-opacity="1" stroke="none"/>
   <path id="furo-2" d="M1819.656 389.162 C1819.656 382.69 1814.41 377.444 1807.938 377.444 1801.465 377.444 1796.219 382.69 1796.219 389.162 1796.219 395.635 1801.465 400.881 1807.938 400.881 1814.41 400.881 1819.656 395.635 1819.656 389.162 Z" fill="#000000" fill-opacity="1" stroke="none"/>
   <path id="furo-1" d="M1819.656 330.569 C1819.656 324.097 1814.41 318.85 1807.938 318.85 1801.465 318.85 1796.219 324.097 1796.219 330.569 1796.219 337.041 1801.465 342.287 1807.938 342.287 1814.41 342.287 1819.656 337.041 1819.656 330.569 Z" fill="#000000" fill-opacity="1" stroke="none"/>
   <g id="furo-traseiro">
    <path id="furo-tras-base" d="M1761.063 330.569 C1761.063 324.097 1755.816 318.85 1749.344 318.85 1742.872 318.85 1737.625 324.097 1737.625 330.569 1737.625 337.041 1742.872 342.287 1749.344 342.287 1755.816 342.287 1761.063 337.041 1761.063 330.569 Z" fill="#000000" fill-opacity="1" stroke="none"/>
    <path id="Retângulo" d="M1749.344 342.287 C1742.872 342.287 1737.625 337.041 1737.625 330.569 L1761.063 330.569 C1761.063 337.041 1755.816 342.287 1749.344 342.287 Z" fill="#000000" fill-opacity="1" stroke="none"/>
    <path id="furo-tras-copiar" d="M1737.625 330.569 C1737.625 324.097 1742.872 318.85 1749.344 318.85 1755.816 318.85 1761.063 324.097 1761.063 330.569 L1737.625 330.569 Z" fill="#000000" fill-opacity="1" stroke="none"/>
   </g>
  </g>
 </g>
</svg>
