<?xml version="1.0" encoding="UTF-8"?>
<svg width="111px" height="645px" viewBox="577 184 111 645" xmlns="http://www.w3.org/2000/svg" xmlns:xlink="http://www.w3.org/1999/xlink" version="1.1">
 <!-- Generated by Pixelmator Pro 2.3.3 -->
 <g id="flauta-nota-d">
  <path id="corpo-da-flauta" d="M647.938 242.678 C626.364 242.678 608.875 260.167 608.875 281.741 L608.875 789.553 C608.875 811.127 626.364 828.616 647.938 828.616 L647.938 828.616 C669.511 828.616 687 811.127 687 789.553 L687 281.741 C687 260.167 669.511 242.678 647.938 242.678 Z" fill="#fce5cd" fill-opacity="1" stroke="none"/>
  <defs>
   <path id="d" d="M656.78 187.568 C656.828 187.808 656.738 188.276 656.51 188.972 656.282 189.668 656.168 190.064 656.168 190.16 L656.168 213.632 C656.168 214.424 656.228 214.916 656.348 215.108 656.708 215.732 656.816 216.152 656.672 216.368 656.552 216.56 656.24 216.656 655.736 216.656 655.184 216.656 654.344 216.548 653.216 216.332 651.944 216.068 651.272 215.936 651.2 215.936 650.768 215.888 650.456 215.6 650.264 215.072 650.24 215.024 650.228 214.868 650.228 214.604 650.228 213.62 650.36 212.156 650.624 210.212 650.048 211.364 649.484 212.516 648.932 213.668 648.14 215.084 647.432 215.732 646.808 215.612 642.08 214.652 639.716 211.748 639.716 206.9 639.716 204.14 640.472 201.332 641.984 198.476 643.448 195.716 645.056 193.916 646.808 193.076 647.048 192.956 647.276 192.896 647.492 192.896 648.092 192.896 649.136 193.64 650.624 195.128 L650.624 188.144 C650.6 187.952 650.492 187.61 650.3 187.118 650.108 186.626 650.012 186.26 650.012 186.02 650.012 185.516 650.348 185.264 651.02 185.264 651.62 185.264 652.484 185.432 653.612 185.768 654.332 186.008 655.04 186.236 655.736 186.452 656.336 186.62 656.684 186.992 656.78 187.568 Z M650.516 196.856 C649.172 197.456 647.954 198.776 646.862 200.816 645.77 202.856 645.224 204.752 645.224 206.504 645.224 208.544 646.016 209.66 647.6 209.852 648.44 209.948 649.412 205.616 650.516 196.856 Z"/>
  </defs>
  <use id="d-1" xlink:href="#d" fill="#c53923" fill-opacity="1" stroke="none"/>
  <use id="d-2" xlink:href="#d" fill="#be121e" fill-opacity="1" stroke="none"/>
  <g id="furos-baixo">
   <g id="furo-duplo">
    <defs>
     <path id="furo-grande" d="M659.656 740.725 C659.656 734.253 654.41 729.006 647.938 729.006 641.465 729.006 636.219 734.253 636.219 740.725 636.219 747.197 641.465 752.444 647.938 752.444 654.41 752.444 659.656 747.197 659.656 740.725 Z"/>
    </defs>
    <defs>
     <path id="stroke-path" d="M651.609 750.797 L655.141 748.641 657.609 745.344 658.313 743.391 658.656 740.781 657.984 737.063 655.844 733.516 652.547 731.063 650.656 730.359 647.938 730.031 644.25 730.672 640.719 732.828 638.25 736.125 637.563 738 637.234 740.734 637.875 744.406 640.016 747.938 643.313 750.406 645.203 751.109 647.938 751.438 Z"/>
    </defs>
    <use id="furo-grande-1" stroke="#000000" stroke-opacity="1" stroke-linecap="round" fill="none" stroke-width="2" xlink:href="#stroke-path"/>
    <defs>
     <path id="furo-menor" d="M677.234 740.725 C677.234 737.489 674.611 734.866 671.375 734.866 668.139 734.866 665.516 737.489 665.516 740.725 665.516 743.961 668.139 746.584 671.375 746.584 674.611 746.584 677.234 743.961 677.234 740.725 Z"/>
    </defs>
    <defs>
     <path id="stroke-path-1" d="M673.484 745.094 L674.938 744 675.922 742.375 676.219 740.734 675.922 739.094 674.938 737.469 673.484 736.375 671.375 735.891 669.25 736.375 667.797 737.469 666.813 739.078 666.531 740.734 666.813 742.391 667.797 744 669.25 745.094 671.375 745.578 Z"/>
    </defs>
    <use id="furo-menor-1" stroke="#000000" stroke-opacity="1" stroke-linecap="round" fill="none" stroke-width="2" xlink:href="#stroke-path-1"/>
   </g>
   <g id="furo-duplo-1">
    <path id="furo-grande-2" d="M659.656 682.131 C659.656 675.659 654.41 670.412 647.938 670.412 641.465 670.412 636.219 675.659 636.219 682.131 636.219 688.603 641.465 693.85 647.938 693.85 654.41 693.85 659.656 688.603 659.656 682.131 Z" fill="#000000" fill-opacity="1" stroke="none"/>
    <path id="furo-menor-2" d="M677.234 682.131 C677.234 678.895 674.611 676.272 671.375 676.272 668.139 676.272 665.516 678.895 665.516 682.131 665.516 685.367 668.139 687.991 671.375 687.991 674.611 687.991 677.234 685.367 677.234 682.131 Z" fill="#000000" fill-opacity="1" stroke="none"/>
   </g>
   <path id="furo" d="M659.656 623.537 C659.656 617.065 654.41 611.819 647.938 611.819 641.465 611.819 636.219 617.065 636.219 623.537 636.219 630.01 641.465 635.256 647.938 635.256 654.41 635.256 659.656 630.01 659.656 623.537 Z" fill="#000000" fill-opacity="1" stroke="none"/>
   <path id="furo-1" d="M659.656 564.944 C659.656 558.472 654.41 553.225 647.938 553.225 641.465 553.225 636.219 558.472 636.219 564.944 636.219 571.416 641.465 576.662 647.938 576.662 654.41 576.662 659.656 571.416 659.656 564.944 Z" fill="#000000" fill-opacity="1" stroke="none"/>
  </g>
  <g id="furos-cima">
   <path id="furo-3" d="M659.656 447.756 C659.656 441.284 654.41 436.037 647.938 436.037 641.465 436.037 636.219 441.284 636.219 447.756 636.219 454.228 641.465 459.475 647.938 459.475 654.41 459.475 659.656 454.228 659.656 447.756 Z" fill="#000000" fill-opacity="1" stroke="none"/>
   <path id="furo-2" d="M659.656 389.162 C659.656 382.69 654.41 377.444 647.938 377.444 641.465 377.444 636.219 382.69 636.219 389.162 636.219 395.635 641.465 400.881 647.938 400.881 654.41 400.881 659.656 395.635 659.656 389.162 Z" fill="#000000" fill-opacity="1" stroke="none"/>
   <path id="furo-1" d="M659.656 330.569 C659.656 324.097 654.41 318.85 647.938 318.85 641.465 318.85 636.219 324.097 636.219 330.569 636.219 337.041 641.465 342.287 647.938 342.287 654.41 342.287 659.656 337.041 659.656 330.569 Z" fill="#000000" fill-opacity="1" stroke="none"/>
   <g id="furo-traseiro">
    <path id="furo-tras-base" d="M601.063 330.569 C601.063 324.097 595.816 318.85 589.344 318.85 582.872 318.85 577.625 324.097 577.625 330.569 577.625 337.041 582.872 342.287 589.344 342.287 595.816 342.287 601.063 337.041 601.063 330.569 Z" fill="#000000" fill-opacity="1" stroke="none"/>
    <path id="Retângulo" d="M589.344 342.287 C582.872 342.287 577.625 337.041 577.625 330.569 L601.063 330.569 C601.063 337.041 595.816 342.287 589.344 342.287 Z" fill="#000000" fill-opacity="1" stroke="none"/>
    <path id="furo-tras-copiar" d="M577.625 330.569 C577.625 324.097 582.872 318.85 589.344 318.85 595.816 318.85 601.063 324.097 601.063 330.569 L577.625 330.569 Z" fill="#000000" fill-opacity="1" stroke="none"/>
   </g>
  </g>
 </g>
</svg>
