<?xml version="1.0" encoding="UTF-8"?>
<svg width="111px" height="637px" viewBox="1041 192 111 637" xmlns="http://www.w3.org/2000/svg" xmlns:xlink="http://www.w3.org/1999/xlink" version="1.1">
 <!-- Generated by Pixelmator Pro 2.3.3 -->
 <g id="flauta-nota-e">
  <path id="corpo-da-flauta" d="M1111.938 242.678 C1090.364 242.678 1072.875 260.167 1072.875 281.741 L1072.875 789.553 C1072.875 811.127 1090.364 828.616 1111.938 828.616 L1111.938 828.616 C1133.511 828.616 1151 811.127 1151 789.553 L1151 281.741 C1151 260.167 1133.511 242.678 1111.938 242.678 Z" fill="#fce5cd" fill-opacity="1" stroke="none"/>
  <defs>
   <path id="e" d="M1119.844 208.952 C1120.06 209.312 1119.592 210.38 1118.44 212.156 1117.192 214.052 1115.968 215.336 1114.768 216.008 1114.624 216.08 1114.408 216.116 1114.12 216.116 1113.184 216.116 1111.96 215.828 1110.448 215.252 1108.84 214.676 1107.784 214.052 1107.28 213.38 1105.888 211.58 1105.192 209.084 1105.192 205.892 1105.192 202.868 1105.804 200.204 1107.028 197.9 1108.348 195.38 1110.028 194.096 1112.068 194.048 1112.812 194.024 1113.712 194.216 1114.768 194.624 1116.064 195.128 1117.132 195.812 1117.972 196.676 1118.188 196.892 1118.392 197.54 1118.584 198.62 1118.824 199.772 1118.944 200.9 1118.944 202.004 1118.944 203.636 1118.68 204.764 1118.152 205.388 1115.68 206.18 1113.16 206.624 1110.592 206.72 1110.544 207.896 1110.688 209.132 1111.024 210.428 1111.36 211.724 1111.708 212.384 1112.068 212.408 1112.548 212.432 1113.124 212.036 1113.796 211.22 1114.396 210.524 1114.768 209.936 1114.912 209.456 1115.08 208.736 1115.308 207.992 1115.596 207.224 1115.98 207.176 1116.736 207.368 1117.864 207.8 1118.992 208.232 1119.652 208.616 1119.844 208.952 Z M1113.436 197.936 C1113.028 197.888 1112.458 198.536 1111.726 199.88 1110.994 201.224 1110.568 202.508 1110.448 203.732 1111.528 203.684 1112.392 203.42 1113.04 202.94 1113.424 202.652 1113.616 201.452 1113.616 199.34 1113.616 198.452 1113.556 197.984 1113.436 197.936 Z"/>
  </defs>
  <use id="e-1" xlink:href="#e" fill="#c53923" fill-opacity="1" stroke="none"/>
  <use id="e-2" xlink:href="#e" fill="#be121e" fill-opacity="1" stroke="none"/>
  <g id="furos-baixo">
   <g id="furo-duplo">
    <defs>
     <path id="furo-grande" d="M1123.656 740.725 C1123.656 734.253 1118.41 729.006 1111.938 729.006 1105.465 729.006 1100.219 734.253 1100.219 740.725 1100.219 747.197 1105.465 752.444 1111.938 752.444 1118.41 752.444 1123.656 747.197 1123.656 740.725 Z"/>
    </defs>
    <defs>
     <path id="stroke-path" d="M1115.609 750.797 L1119.141 748.641 1121.609 745.344 1122.313 743.391 1122.656 740.781 1121.984 737.063 1119.844 733.516 1116.547 731.063 1114.656 730.359 1111.938 730.031 1108.25 730.672 1104.719 732.828 1102.25 736.125 1101.563 738 1101.234 740.734 1101.875 744.406 1104.016 747.938 1107.313 750.406 1109.203 751.109 1111.938 751.438 Z"/>
    </defs>
    <use id="furo-grande-1" stroke="#000000" stroke-opacity="1" stroke-linecap="round" fill="none" stroke-width="2" xlink:href="#stroke-path"/>
    <defs>
     <path id="furo-menor" d="M1141.234 740.725 C1141.234 737.489 1138.611 734.866 1135.375 734.866 1132.139 734.866 1129.516 737.489 1129.516 740.725 1129.516 743.961 1132.139 746.584 1135.375 746.584 1138.611 746.584 1141.234 743.961 1141.234 740.725 Z"/>
    </defs>
    <defs>
     <path id="stroke-path-1" d="M1137.031 745.281 L1138.641 744.313 1139.734 742.859 1140.219 740.734 1139.922 739.094 1138.938 737.469 1137.484 736.375 1135.359 735.891 1133.703 736.188 1132.094 737.156 1131 738.609 1130.531 740.75 1130.813 742.391 1131.797 744 1133.25 745.094 1135.391 745.578 Z"/>
    </defs>
    <use id="furo-menor-1" stroke="#000000" stroke-opacity="1" stroke-linecap="round" fill="none" stroke-width="2" xlink:href="#stroke-path-1"/>
   </g>
   <g id="furo-duplo-1">
    <defs>
     <path id="furo-grande-2" d="M1123.656 682.131 C1123.656 675.659 1118.41 670.412 1111.938 670.412 1105.465 670.412 1100.219 675.659 1100.219 682.131 1100.219 688.603 1105.465 693.85 1111.938 693.85 1118.41 693.85 1123.656 688.603 1123.656 682.131 Z"/>
    </defs>
    <defs>
     <path id="stroke-path-2" d="M1115.609 692.203 L1119.141 690.047 1121.609 686.75 1122.313 684.797 1122.656 682.188 1121.984 678.469 1119.844 674.922 1116.547 672.469 1114.656 671.766 1111.938 671.438 1108.25 672.078 1104.719 674.234 1102.25 677.531 1101.563 679.406 1101.234 682.141 1101.875 685.813 1104.016 689.344 1107.313 691.813 1109.203 692.516 1111.938 692.844 Z"/>
    </defs>
    <use id="furo-grande-3" stroke="#000000" stroke-opacity="1" stroke-linecap="round" fill="none" stroke-width="2" xlink:href="#stroke-path-2"/>
    <defs>
     <path id="furo-menor-2" d="M1141.234 682.131 C1141.234 678.895 1138.611 676.272 1135.375 676.272 1132.139 676.272 1129.516 678.895 1129.516 682.131 1129.516 685.367 1132.139 687.991 1135.375 687.991 1138.611 687.991 1141.234 685.367 1141.234 682.131 Z"/>
    </defs>
    <defs>
     <path id="stroke-path-3" d="M1137.031 686.688 L1138.641 685.719 1139.734 684.266 1140.219 682.141 1139.922 680.5 1138.938 678.875 1137.484 677.781 1135.359 677.297 1133.703 677.594 1132.094 678.563 1131 680.016 1130.531 682.156 1130.813 683.797 1131.797 685.406 1133.25 686.5 1135.391 686.984 Z"/>
    </defs>
    <use id="furo-menor-3" stroke="#000000" stroke-opacity="1" stroke-linecap="round" fill="none" stroke-width="2" xlink:href="#stroke-path-3"/>
   </g>
   <path id="furo" d="M1123.656 623.537 C1123.656 617.065 1118.41 611.819 1111.938 611.819 1105.465 611.819 1100.219 617.065 1100.219 623.537 1100.219 630.01 1105.465 635.256 1111.938 635.256 1118.41 635.256 1123.656 630.01 1123.656 623.537 Z" fill="#000000" fill-opacity="1" stroke="none"/>
   <path id="furo-1" d="M1123.656 564.944 C1123.656 558.472 1118.41 553.225 1111.938 553.225 1105.465 553.225 1100.219 558.472 1100.219 564.944 1100.219 571.416 1105.465 576.662 1111.938 576.662 1118.41 576.662 1123.656 571.416 1123.656 564.944 Z" fill="#000000" fill-opacity="1" stroke="none"/>
  </g>
  <g id="furos-cima">
   <path id="furo-3" d="M1123.656 447.756 C1123.656 441.284 1118.41 436.037 1111.938 436.037 1105.465 436.037 1100.219 441.284 1100.219 447.756 1100.219 454.228 1105.465 459.475 1111.938 459.475 1118.41 459.475 1123.656 454.228 1123.656 447.756 Z" fill="#000000" fill-opacity="1" stroke="none"/>
   <path id="furo-2" d="M1123.656 389.162 C1123.656 382.69 1118.41 377.444 1111.938 377.444 1105.465 377.444 1100.219 382.69 1100.219 389.162 1100.219 395.635 1105.465 400.881 1111.938 400.881 1118.41 400.881 1123.656 395.635 1123.656 389.162 Z" fill="#000000" fill-opacity="1" stroke="none"/>
   <path id="furo-1" d="M1123.656 330.569 C1123.656 324.097 1118.41 318.85 1111.938 318.85 1105.465 318.85 1100.219 324.097 1100.219 330.569 1100.219 337.041 1105.465 342.287 1111.938 342.287 1118.41 342.287 1123.656 337.041 1123.656 330.569 Z" fill="#000000" fill-opacity="1" stroke="none"/>
   <g id="furo-traseiro">
    <path id="furo-tras-base" d="M1065.063 330.569 C1065.063 324.097 1059.816 318.85 1053.344 318.85 1046.872 318.85 1041.625 324.097 1041.625 330.569 1041.625 337.041 1046.872 342.287 1053.344 342.287 1059.816 342.287 1065.063 337.041 1065.063 330.569 Z" fill="#000000" fill-opacity="1" stroke="none"/>
    <path id="Retângulo" d="M1053.344 342.287 C1046.872 342.287 1041.625 337.041 1041.625 330.569 L1065.063 330.569 C1065.063 337.041 1059.816 342.287 1053.344 342.287 Z" fill="#000000" fill-opacity="1" stroke="none"/>
    <path id="furo-tras-copiar" d="M1041.625 330.569 C1041.625 324.097 1046.872 318.85 1053.344 318.85 1059.816 318.85 1065.063 324.097 1065.063 330.569 L1041.625 330.569 Z" fill="#000000" fill-opacity="1" stroke="none"/>
   </g>
  </g>
 </g>
</svg>
