<?xml version="1.0" encoding="UTF-8"?>
<svg width="111px" height="645px" viewBox="809 184 111 645" xmlns="http://www.w3.org/2000/svg" xmlns:xlink="http://www.w3.org/1999/xlink" version="1.1">
 <!-- Generated by Pixelmator Pro 2.3.3 -->
 <g id="flauta-nota-d#">
  <path id="corpo-da-flauta" d="M879.938 242.678 C858.364 242.678 840.875 260.167 840.875 281.741 L840.875 789.553 C840.875 811.127 858.364 828.616 879.938 828.616 L879.938 828.616 C901.511 828.616 919 811.127 919 789.553 L919 281.741 C919 260.167 901.511 242.678 879.938 242.678 Z" fill="#fce5cd" fill-opacity="1" stroke="none"/>
  <defs>
   <path id="d#" d="M900.912 206 C900.576 206 900.096 205.94 899.472 205.82 898.848 205.7 898.464 205.64 898.32 205.64 L896.52 205.64 C896.472 207.536 896.4 209.588 896.304 211.796 896.16 212.54 895.836 212.948 895.332 213.02 894.876 213.092 894.114 212.846 893.046 212.282 891.978 211.718 891.336 211.292 891.12 211.004 890.976 210.788 890.904 210.548 890.904 210.284 890.904 210.02 890.982 209.678 891.138 209.258 891.294 208.838 891.372 208.568 891.372 208.448 891.396 208.112 891.432 207.176 891.48 205.64 L889.428 205.64 C889.404 207.296 889.38 209 889.356 210.752 889.284 211.088 889.08 211.388 888.744 211.652 888.408 211.916 888.036 212.036 887.628 212.012 887.316 211.988 886.596 211.562 885.468 210.734 884.34 209.906 883.764 209.336 883.74 209.024 883.716 208.76 883.812 208.46 884.028 208.124 884.244 207.788 884.364 207.512 884.388 207.296 L884.388 205.64 C883.788 205.64 883.254 205.76 882.786 206 882.318 206.24 882 206.348 881.832 206.324 881.52 206.3 880.95 205.73 880.122 204.614 879.294 203.498 878.868 202.76 878.844 202.4 878.82 201.992 878.94 201.626 879.204 201.302 879.468 200.978 879.768 200.78 880.104 200.708 881.352 200.708 882.78 200.696 884.388 200.672 L884.388 198.584 C883.332 198.584 882.684 198.602 882.444 198.638 882.204 198.674 881.916 198.776 881.58 198.944 881.244 199.112 880.956 199.184 880.716 199.16 880.188 199.112 879.57 198.62 878.862 197.684 878.154 196.748 877.8 195.896 877.8 195.128 877.8 194.36 878.22 193.892 879.06 193.724 879.324 193.676 881.1 193.628 884.388 193.58 L884.388 192.536 C884.388 192.392 884.334 192.014 884.226 191.402 884.118 190.79 884.064 190.304 884.064 189.944 884.064 189.008 884.46 188.54 885.252 188.54 885.9 188.54 886.668 188.684 887.556 188.972 888.54 189.284 889.188 189.632 889.5 190.016 889.62 190.208 889.68 191.372 889.68 193.508 L891.408 193.508 C891.456 190.676 891.57 189.134 891.75 188.882 891.93 188.63 892.308 188.504 892.884 188.504 893.964 188.504 895.248 188.876 896.736 189.62 896.976 189.74 897.096 189.968 897.096 190.304 897.096 190.52 897.018 190.862 896.862 191.33 896.706 191.798 896.628 192.092 896.628 192.212 L896.628 193.472 C897.444 193.448 898.104 193.436 898.608 193.436 898.728 193.436 899.028 193.352 899.508 193.184 899.988 193.016 900.348 192.932 900.588 192.932 900.9 192.932 901.116 193.052 901.236 193.292 901.98 194.756 902.352 196.04 902.352 197.144 902.352 197.744 902.208 198.152 901.92 198.368 901.728 198.512 899.952 198.584 896.592 198.584 896.568 198.992 896.556 199.58 896.556 200.348 899.22 200.348 900.648 200.42 900.84 200.564 901.224 200.876 901.572 201.524 901.884 202.508 902.172 203.396 902.316 204.164 902.316 204.812 902.316 205.604 901.848 206 900.912 206 Z M891.444 200.42 L891.444 198.584 889.644 198.584 C889.644 198.992 889.62 199.628 889.572 200.492 890.436 200.444 891.06 200.42 891.444 200.42 Z M875.28 187.568 C875.328 187.808 875.238 188.276 875.01 188.972 874.782 189.668 874.668 190.064 874.668 190.16 L874.668 213.632 C874.668 214.424 874.728 214.916 874.848 215.108 875.208 215.732 875.316 216.152 875.172 216.368 875.052 216.56 874.74 216.656 874.236 216.656 873.684 216.656 872.844 216.548 871.716 216.332 870.444 216.068 869.772 215.936 869.7 215.936 869.268 215.888 868.956 215.6 868.764 215.072 868.74 215.024 868.728 214.868 868.728 214.604 868.728 213.62 868.86 212.156 869.124 210.212 868.548 211.364 867.984 212.516 867.432 213.668 866.64 215.084 865.932 215.732 865.308 215.612 860.58 214.652 858.216 211.748 858.216 206.9 858.216 204.14 858.972 201.332 860.484 198.476 861.948 195.716 863.556 193.916 865.308 193.076 865.548 192.956 865.776 192.896 865.992 192.896 866.592 192.896 867.636 193.64 869.124 195.128 L869.124 188.144 C869.1 187.952 868.992 187.61 868.8 187.118 868.608 186.626 868.512 186.26 868.512 186.02 868.512 185.516 868.848 185.264 869.52 185.264 870.12 185.264 870.984 185.432 872.112 185.768 872.832 186.008 873.54 186.236 874.236 186.452 874.836 186.62 875.184 186.992 875.28 187.568 Z M869.016 196.856 C867.672 197.456 866.454 198.776 865.362 200.816 864.27 202.856 863.724 204.752 863.724 206.504 863.724 208.544 864.516 209.66 866.1 209.852 866.94 209.948 867.912 205.616 869.016 196.856 Z"/>
  </defs>
  <use id="d#-1" xlink:href="#d#" fill="#c53923" fill-opacity="1" stroke="none"/>
  <use id="d#-2" xlink:href="#d#" fill="#be121e" fill-opacity="1" stroke="none"/>
  <g id="furos-baixo">
   <g id="furo-duplo">
    <defs>
     <path id="furo-grande" d="M891.656 740.725 C891.656 734.253 886.41 729.006 879.938 729.006 873.465 729.006 868.219 734.253 868.219 740.725 868.219 747.197 873.465 752.444 879.938 752.444 886.41 752.444 891.656 747.197 891.656 740.725 Z"/>
    </defs>
    <defs>
     <path id="stroke-path" d="M883.609 750.797 L887.141 748.641 889.609 745.344 890.313 743.391 890.656 740.781 889.984 737.063 887.844 733.516 884.547 731.063 882.656 730.359 879.938 730.031 876.25 730.672 872.719 732.828 870.25 736.125 869.563 738 869.234 740.734 869.875 744.406 872.016 747.938 875.313 750.406 877.203 751.109 879.938 751.438 Z"/>
    </defs>
    <use id="furo-grande-1" stroke="#000000" stroke-opacity="1" stroke-linecap="round" fill="none" stroke-width="2" xlink:href="#stroke-path"/>
    <defs>
     <path id="furo-menor" d="M909.234 740.725 C909.234 737.489 906.611 734.866 903.375 734.866 900.139 734.866 897.516 737.489 897.516 740.725 897.516 743.961 900.139 746.584 903.375 746.584 906.611 746.584 909.234 743.961 909.234 740.725 Z"/>
    </defs>
    <defs>
     <path id="stroke-path-1" d="M905.484 745.094 L906.938 744 907.922 742.375 908.219 740.734 907.922 739.094 906.938 737.469 905.484 736.375 903.375 735.891 901.25 736.375 899.797 737.469 898.813 739.078 898.531 740.734 898.813 742.391 899.797 744 901.25 745.094 903.375 745.578 Z"/>
    </defs>
    <use id="furo-menor-1" stroke="#000000" stroke-opacity="1" stroke-linecap="round" fill="none" stroke-width="2" xlink:href="#stroke-path-1"/>
   </g>
   <g id="furo-duplo-1">
    <path id="furo-grande-2" d="M891.656 682.131 C891.656 675.659 886.41 670.412 879.938 670.412 873.465 670.412 868.219 675.659 868.219 682.131 868.219 688.603 873.465 693.85 879.938 693.85 886.41 693.85 891.656 688.603 891.656 682.131 Z" fill="#000000" fill-opacity="1" stroke="none"/>
    <defs>
     <path id="furo-menor-2" d="M909.234 682.131 C909.234 678.895 906.611 676.272 903.375 676.272 900.139 676.272 897.516 678.895 897.516 682.131 897.516 685.367 900.139 687.991 903.375 687.991 906.611 687.991 909.234 685.367 909.234 682.131 Z"/>
    </defs>
    <defs>
     <path id="stroke-path-2" d="M905.484 686.5 L906.938 685.406 907.922 683.781 908.219 682.141 907.922 680.5 906.938 678.875 905.484 677.781 903.375 677.297 901.25 677.781 899.797 678.875 898.813 680.484 898.531 682.141 898.813 683.797 899.797 685.406 901.25 686.5 903.375 686.984 Z"/>
    </defs>
    <use id="furo-menor-3" stroke="#000000" stroke-opacity="1" stroke-linecap="round" fill="none" stroke-width="2" xlink:href="#stroke-path-2"/>
   </g>
   <path id="furo" d="M891.656 623.537 C891.656 617.065 886.41 611.819 879.938 611.819 873.465 611.819 868.219 617.065 868.219 623.537 868.219 630.01 873.465 635.256 879.938 635.256 886.41 635.256 891.656 630.01 891.656 623.537 Z" fill="#000000" fill-opacity="1" stroke="none"/>
   <path id="furo-1" d="M891.656 564.944 C891.656 558.472 886.41 553.225 879.938 553.225 873.465 553.225 868.219 558.472 868.219 564.944 868.219 571.416 873.465 576.662 879.938 576.662 886.41 576.662 891.656 571.416 891.656 564.944 Z" fill="#000000" fill-opacity="1" stroke="none"/>
  </g>
  <g id="furos-cima">
   <path id="furo-3" d="M891.656 447.756 C891.656 441.284 886.41 436.037 879.938 436.037 873.465 436.037 868.219 441.284 868.219 447.756 868.219 454.228 873.465 459.475 879.938 459.475 886.41 459.475 891.656 454.228 891.656 447.756 Z" fill="#000000" fill-opacity="1" stroke="none"/>
   <path id="furo-2" d="M891.656 389.162 C891.656 382.69 886.41 377.444 879.938 377.444 873.465 377.444 868.219 382.69 868.219 389.162 868.219 395.635 873.465 400.881 879.938 400.881 886.41 400.881 891.656 395.635 891.656 389.162 Z" fill="#000000" fill-opacity="1" stroke="none"/>
   <path id="furo-1" d="M891.656 330.569 C891.656 324.097 886.41 318.85 879.938 318.85 873.465 318.85 868.219 324.097 868.219 330.569 868.219 337.041 873.465 342.287 879.938 342.287 886.41 342.287 891.656 337.041 891.656 330.569 Z" fill="#000000" fill-opacity="1" stroke="none"/>
   <g id="furo-traseiro">
    <path id="furo-tras-base" d="M833.063 330.569 C833.063 324.097 827.816 318.85 821.344 318.85 814.872 318.85 809.625 324.097 809.625 330.569 809.625 337.041 814.872 342.287 821.344 342.287 827.816 342.287 833.063 337.041 833.063 330.569 Z" fill="#000000" fill-opacity="1" stroke="none"/>
    <path id="Retângulo" d="M821.344 342.287 C814.872 342.287 809.625 337.041 809.625 330.569 L833.063 330.569 C833.063 337.041 827.816 342.287 821.344 342.287 Z" fill="#000000" fill-opacity="1" stroke="none"/>
    <path id="furo-tras-copiar" d="M809.625 330.569 C809.625 324.097 814.872 318.85 821.344 318.85 827.816 318.85 833.063 324.097 833.063 330.569 L809.625 330.569 Z" fill="#000000" fill-opacity="1" stroke="none"/>
   </g>
  </g>
 </g>
</svg>
