<?xml version="1.0" encoding="UTF-8"?>
<svg width="111px" height="642px" viewBox="1969 187 111 642" xmlns="http://www.w3.org/2000/svg" xmlns:xlink="http://www.w3.org/1999/xlink" version="1.1">
 <!-- Generated by Pixelmator Pro 2.3.3 -->
 <g id="flauta-nota-g#">
  <path id="corpo-da-flauta" d="M2039.938 242.678 C2018.364 242.678 2000.875 260.167 2000.875 281.741 L2000.875 789.553 C2000.875 811.127 2018.364 828.616 2039.938 828.616 L2039.938 828.616 C2061.511 828.616 2079 811.127 2079 789.553 L2079 281.741 C2079 260.167 2061.511 242.678 2039.938 242.678 Z" fill="#fce5cd" fill-opacity="1" stroke="none"/>
  <defs>
   <path id="g#" d="M2060.102 206 C2059.766 206 2059.286 205.94 2058.662 205.82 2058.038 205.7 2057.654 205.64 2057.51 205.64 L2055.71 205.64 C2055.662 207.536 2055.59 209.588 2055.494 211.796 2055.35 212.54 2055.026 212.948 2054.522 213.02 2054.066 213.092 2053.304 212.846 2052.236 212.282 2051.168 211.718 2050.526 211.292 2050.31 211.004 2050.166 210.788 2050.094 210.548 2050.094 210.284 2050.094 210.02 2050.172 209.678 2050.328 209.258 2050.484 208.838 2050.562 208.568 2050.562 208.448 2050.586 208.112 2050.622 207.176 2050.67 205.64 L2048.618 205.64 C2048.594 207.296 2048.57 209 2048.546 210.752 2048.474 211.088 2048.27 211.388 2047.934 211.652 2047.598 211.916 2047.226 212.036 2046.818 212.012 2046.506 211.988 2045.786 211.562 2044.658 210.734 2043.53 209.906 2042.954 209.336 2042.93 209.024 2042.906 208.76 2043.002 208.46 2043.218 208.124 2043.434 207.788 2043.554 207.512 2043.578 207.296 L2043.578 205.64 C2042.978 205.64 2042.444 205.76 2041.976 206 2041.508 206.24 2041.19 206.348 2041.022 206.324 2040.71 206.3 2040.14 205.73 2039.312 204.614 2038.484 203.498 2038.058 202.76 2038.034 202.4 2038.01 201.992 2038.13 201.626 2038.394 201.302 2038.658 200.978 2038.958 200.78 2039.294 200.708 2040.542 200.708 2041.97 200.696 2043.578 200.672 L2043.578 198.584 C2042.522 198.584 2041.874 198.602 2041.634 198.638 2041.394 198.674 2041.106 198.776 2040.77 198.944 2040.434 199.112 2040.146 199.184 2039.906 199.16 2039.378 199.112 2038.76 198.62 2038.052 197.684 2037.344 196.748 2036.99 195.896 2036.99 195.128 2036.99 194.36 2037.41 193.892 2038.25 193.724 2038.514 193.676 2040.29 193.628 2043.578 193.58 L2043.578 192.536 C2043.578 192.392 2043.524 192.014 2043.416 191.402 2043.308 190.79 2043.254 190.304 2043.254 189.944 2043.254 189.008 2043.65 188.54 2044.442 188.54 2045.09 188.54 2045.858 188.684 2046.746 188.972 2047.73 189.284 2048.378 189.632 2048.69 190.016 2048.81 190.208 2048.87 191.372 2048.87 193.508 L2050.598 193.508 C2050.646 190.676 2050.76 189.134 2050.94 188.882 2051.12 188.63 2051.498 188.504 2052.074 188.504 2053.154 188.504 2054.438 188.876 2055.926 189.62 2056.166 189.74 2056.286 189.968 2056.286 190.304 2056.286 190.52 2056.208 190.862 2056.052 191.33 2055.896 191.798 2055.818 192.092 2055.818 192.212 L2055.818 193.472 C2056.634 193.448 2057.294 193.436 2057.798 193.436 2057.918 193.436 2058.218 193.352 2058.698 193.184 2059.178 193.016 2059.538 192.932 2059.778 192.932 2060.09 192.932 2060.306 193.052 2060.426 193.292 2061.17 194.756 2061.542 196.04 2061.542 197.144 2061.542 197.744 2061.398 198.152 2061.11 198.368 2060.918 198.512 2059.142 198.584 2055.782 198.584 2055.758 198.992 2055.746 199.58 2055.746 200.348 2058.41 200.348 2059.838 200.42 2060.03 200.564 2060.414 200.876 2060.762 201.524 2061.074 202.508 2061.362 203.396 2061.506 204.164 2061.506 204.812 2061.506 205.604 2061.038 206 2060.102 206 Z M2050.634 200.42 L2050.634 198.584 2048.834 198.584 C2048.834 198.992 2048.81 199.628 2048.762 200.492 2049.626 200.444 2050.25 200.42 2050.634 200.42 Z M2034.29 196.208 C2034.29 196.232 2034.158 196.472 2033.894 196.928 2033.726 197.264 2033.642 197.528 2033.642 197.72 L2033.642 213.488 C2033.642 217.472 2032.166 220.028 2029.214 221.156 2027.846 221.684 2026.598 221.948 2025.47 221.948 2023.838 221.948 2022.422 221.396 2021.222 220.292 2020.886 220.004 2020.31 219.38 2019.494 218.42 2019.446 218.372 2019.218 218.144 2018.81 217.736 2018.57 217.472 2018.438 217.196 2018.414 216.908 2018.39 216.548 2018.75 216.26 2019.494 216.044 2019.59 216.02 2019.734 216.008 2019.926 216.008 2020.454 216.008 2021.084 216.116 2021.816 216.332 2022.548 216.548 2023.07 216.812 2023.382 217.124 2023.766 217.604 2024.162 218.096 2024.57 218.6 2024.978 219.104 2025.458 219.38 2026.01 219.428 2026.994 219.524 2027.63 218.852 2027.918 217.412 2028.062 216.716 2028.134 215.48 2028.134 213.704 2028.062 213.8 2027.834 214.112 2027.45 214.64 2027.162 215.024 2026.91 215.3 2026.694 215.468 2026.43 215.708 2026.154 215.828 2025.866 215.828 2024.594 215.828 2023.526 215.48 2022.662 214.784 2020.094 212.624 2018.81 209.444 2018.81 205.244 2018.81 202.58 2019.374 200.192 2020.502 198.08 2021.678 195.824 2023.214 194.408 2025.11 193.832 2025.254 193.784 2025.386 193.76 2025.506 193.76 2025.89 193.76 2026.322 193.94 2026.802 194.3 2027.21 194.612 2027.618 194.936 2028.026 195.272 2028.17 194.864 2028.32 194.462 2028.476 194.066 2028.632 193.67 2028.878 193.448 2029.214 193.4 2029.718 193.328 2030.612 193.49 2031.896 193.886 2033.18 194.282 2033.906 194.624 2034.074 194.912 2034.362 195.392 2034.434 195.824 2034.29 196.208 Z M2027.918 205.064 C2028.11 203.408 2028.206 202.052 2028.206 200.996 2028.206 199.052 2027.894 197.96 2027.27 197.72 2026.766 197.528 2026.154 198.38 2025.434 200.276 2024.714 202.172 2024.354 203.9 2024.354 205.46 2024.354 208.292 2024.678 210.536 2025.326 212.192 2026.766 209.96 2027.63 207.584 2027.918 205.064 Z"/>
  </defs>
  <use id="g#-1" xlink:href="#g#" fill="#c53923" fill-opacity="1" stroke="none"/>
  <use id="g#-2" xlink:href="#g#" fill="#be121e" fill-opacity="1" stroke="none"/>
  <g id="furos-baixo">
   <g id="furo-duplo">
    <defs>
     <path id="furo-grande" d="M2051.656 740.725 C2051.656 734.253 2046.41 729.006 2039.938 729.006 2033.465 729.006 2028.219 734.253 2028.219 740.725 2028.219 747.197 2033.465 752.444 2039.938 752.444 2046.41 752.444 2051.656 747.197 2051.656 740.725 Z"/>
    </defs>
    <defs>
     <path id="stroke-path" d="M2043.609 750.797 L2047.141 748.641 2049.609 745.344 2050.313 743.391 2050.656 740.781 2049.984 737.063 2047.844 733.516 2044.547 731.063 2042.656 730.359 2039.938 730.031 2036.25 730.672 2032.719 732.828 2030.25 736.125 2029.563 738 2029.234 740.734 2029.875 744.406 2032.016 747.938 2035.313 750.406 2037.203 751.109 2039.938 751.438 Z"/>
    </defs>
    <use id="furo-grande-1" stroke="#000000" stroke-opacity="1" stroke-linecap="round" fill="none" stroke-width="2" xlink:href="#stroke-path"/>
    <defs>
     <path id="furo-menor" d="M2069.234 740.725 C2069.234 737.489 2066.611 734.866 2063.375 734.866 2060.139 734.866 2057.516 737.489 2057.516 740.725 2057.516 743.961 2060.139 746.584 2063.375 746.584 2066.611 746.584 2069.234 743.961 2069.234 740.725 Z"/>
    </defs>
    <defs>
     <path id="stroke-path-1" d="M2065.484 745.094 L2066.938 744 2067.922 742.375 2068.219 740.734 2067.922 739.094 2066.938 737.469 2065.484 736.375 2063.375 735.891 2061.25 736.375 2059.797 737.469 2058.813 739.078 2058.531 740.734 2058.813 742.391 2059.797 744 2061.25 745.094 2063.375 745.578 Z"/>
    </defs>
    <use id="furo-menor-1" stroke="#000000" stroke-opacity="1" stroke-linecap="round" fill="none" stroke-width="2" xlink:href="#stroke-path-1"/>
   </g>
   <g id="furo-duplo-1">
    <defs>
     <path id="furo-grande-2" d="M2051.656 682.131 C2051.656 675.659 2046.41 670.412 2039.938 670.412 2033.465 670.412 2028.219 675.659 2028.219 682.131 2028.219 688.603 2033.465 693.85 2039.938 693.85 2046.41 693.85 2051.656 688.603 2051.656 682.131 Z"/>
    </defs>
    <use id="furo-grande-3" xlink:href="#furo-grande-2" fill="#000000" fill-opacity="1" stroke="none"/>
    <defs>
     <path id="stroke-path-2" d="M2043.609 692.203 L2047.141 690.047 2049.609 686.75 2050.313 684.797 2050.656 682.188 2049.984 678.469 2047.844 674.922 2044.547 672.469 2042.656 671.766 2039.938 671.438 2036.25 672.078 2032.719 674.234 2030.25 677.531 2029.563 679.406 2029.234 682.141 2029.875 685.813 2032.016 689.344 2035.313 691.813 2037.203 692.516 2039.938 692.844 Z"/>
    </defs>
    <use id="furo-grande-4" stroke="#000000" stroke-opacity="1" stroke-linecap="round" fill="none" stroke-width="2" xlink:href="#stroke-path-2"/>
    <defs>
     <path id="furo-menor-2" d="M2069.234 682.131 C2069.234 678.895 2066.611 676.272 2063.375 676.272 2060.139 676.272 2057.516 678.895 2057.516 682.131 2057.516 685.367 2060.139 687.991 2063.375 687.991 2066.611 687.991 2069.234 685.367 2069.234 682.131 Z"/>
    </defs>
    <use id="furo-menor-3" xlink:href="#furo-menor-2" fill="#000000" fill-opacity="1" stroke="none"/>
    <defs>
     <path id="stroke-path-3" d="M2065.484 686.5 L2066.938 685.406 2067.922 683.781 2068.219 682.141 2067.922 680.5 2066.938 678.875 2065.484 677.781 2063.375 677.297 2061.25 677.781 2059.797 678.875 2058.813 680.484 2058.531 682.141 2058.813 683.797 2059.797 685.406 2061.25 686.5 2063.375 686.984 Z"/>
    </defs>
    <use id="furo-menor-4" stroke="#000000" stroke-opacity="1" stroke-linecap="round" fill="none" stroke-width="2" xlink:href="#stroke-path-3"/>
   </g>
   <defs>
    <path id="furo" d="M2051.656 623.537 C2051.656 617.065 2046.41 611.819 2039.938 611.819 2033.465 611.819 2028.219 617.065 2028.219 623.537 2028.219 630.01 2033.465 635.256 2039.938 635.256 2046.41 635.256 2051.656 630.01 2051.656 623.537 Z"/>
   </defs>
   <use id="furo-1" xlink:href="#furo" fill="#000000" fill-opacity="1" stroke="none"/>
   <defs>
    <path id="stroke-path-4" d="M2043.609 633.609 L2047.141 631.453 2049.609 628.156 2050.313 626.203 2050.656 623.594 2049.984 619.875 2047.844 616.328 2044.547 613.875 2042.656 613.172 2039.938 612.844 2036.25 613.484 2032.719 615.641 2030.25 618.938 2029.563 620.813 2029.234 623.547 2029.875 627.219 2032.016 630.75 2035.313 633.219 2037.203 633.922 2039.938 634.25 Z"/>
   </defs>
   <use id="furo-2" stroke="#000000" stroke-opacity="1" stroke-linecap="round" fill="none" stroke-width="2" xlink:href="#stroke-path-4"/>
   <defs>
    <path id="furo-3" d="M2051.656 564.944 C2051.656 558.472 2046.41 553.225 2039.938 553.225 2033.465 553.225 2028.219 558.472 2028.219 564.944 2028.219 571.416 2033.465 576.662 2039.938 576.662 2046.41 576.662 2051.656 571.416 2051.656 564.944 Z"/>
   </defs>
   <use id="furo-4" xlink:href="#furo-3" fill="#000000" fill-opacity="1" stroke="none"/>
   <defs>
    <path id="stroke-path-5" d="M2043.609 575.016 L2047.141 572.859 2049.609 569.563 2050.313 567.609 2050.656 565 2049.984 561.281 2047.844 557.734 2044.547 555.281 2042.656 554.578 2039.938 554.25 2036.25 554.891 2032.719 557.047 2030.25 560.344 2029.563 562.219 2029.234 564.953 2029.875 568.625 2032.016 572.156 2035.313 574.625 2037.203 575.328 2039.938 575.656 Z"/>
   </defs>
   <use id="furo-5" stroke="#000000" stroke-opacity="1" stroke-linecap="round" fill="none" stroke-width="2" xlink:href="#stroke-path-5"/>
  </g>
  <g id="furos-cima">
   <defs>
    <path id="furo-3" d="M2051.656 447.756 C2051.656 441.284 2046.41 436.037 2039.938 436.037 2033.465 436.037 2028.219 441.284 2028.219 447.756 2028.219 454.228 2033.465 459.475 2039.938 459.475 2046.41 459.475 2051.656 454.228 2051.656 447.756 Z"/>
   </defs>
   <defs>
    <path id="stroke-path-6" d="M2043.609 457.828 L2047.141 455.672 2049.609 452.375 2050.313 450.422 2050.656 447.813 2049.984 444.094 2047.844 440.547 2044.547 438.094 2042.656 437.391 2039.938 437.063 2036.25 437.703 2032.719 439.859 2030.25 443.156 2029.563 445.031 2029.234 447.766 2029.875 451.438 2032.016 454.969 2035.313 457.438 2037.203 458.141 2039.938 458.469 Z"/>
   </defs>
   <use id="furo-3-1" stroke="#000000" stroke-opacity="1" stroke-linecap="round" fill="none" stroke-width="2" xlink:href="#stroke-path-6"/>
   <path id="furo-2" d="M2051.656 389.162 C2051.656 382.69 2046.41 377.444 2039.938 377.444 2033.465 377.444 2028.219 382.69 2028.219 389.162 2028.219 395.635 2033.465 400.881 2039.938 400.881 2046.41 400.881 2051.656 395.635 2051.656 389.162 Z" fill="#000000" fill-opacity="1" stroke="none"/>
   <path id="furo-1" d="M2051.656 330.569 C2051.656 324.097 2046.41 318.85 2039.938 318.85 2033.465 318.85 2028.219 324.097 2028.219 330.569 2028.219 337.041 2033.465 342.287 2039.938 342.287 2046.41 342.287 2051.656 337.041 2051.656 330.569 Z" fill="#000000" fill-opacity="1" stroke="none"/>
   <g id="furo-traseiro">
    <path id="furo-tras-base" d="M1993.063 330.569 C1993.063 324.097 1987.816 318.85 1981.344 318.85 1974.872 318.85 1969.625 324.097 1969.625 330.569 1969.625 337.041 1974.872 342.287 1981.344 342.287 1987.816 342.287 1993.063 337.041 1993.063 330.569 Z" fill="#000000" fill-opacity="1" stroke="none"/>
    <path id="Retângulo" d="M1981.344 342.287 C1974.872 342.287 1969.625 337.041 1969.625 330.569 L1993.063 330.569 C1993.063 337.041 1987.816 342.287 1981.344 342.287 Z" fill="#000000" fill-opacity="1" stroke="none"/>
    <path id="furo-tras-copiar" d="M1969.625 330.569 C1969.625 324.097 1974.872 318.85 1981.344 318.85 1987.816 318.85 1993.063 324.097 1993.063 330.569 L1969.625 330.569 Z" fill="#000000" fill-opacity="1" stroke="none"/>
   </g>
  </g>
 </g>
</svg>
