<?xml version="1.0" encoding="UTF-8"?>
<svg width="111px" height="642px" viewBox="345 187 111 642" xmlns="http://www.w3.org/2000/svg" xmlns:xlink="http://www.w3.org/1999/xlink" version="1.1">
 <!-- Generated by Pixelmator Pro 2.3.3 -->
 <g id="flauta-nota-c#">
  <path id="corpo-da-flauta" d="M415.625 242.678 C394.052 242.678 376.563 260.167 376.563 281.741 L376.563 789.553 C376.563 811.127 394.052 828.616 415.625 828.616 L415.625 828.616 C437.198 828.616 454.688 811.127 454.688 789.553 L454.688 281.741 C454.688 260.167 437.198 242.678 415.625 242.678 Z" fill="#fce5cd" fill-opacity="1" stroke="none"/>
  <defs>
   <path id="c#" d="M436.806 206 C436.47 206 435.99 205.94 435.366 205.82 434.742 205.7 434.358 205.64 434.214 205.64 L432.414 205.64 C432.366 207.536 432.294 209.588 432.198 211.796 432.054 212.54 431.73 212.948 431.226 213.02 430.77 213.092 430.008 212.846 428.94 212.282 427.872 211.718 427.23 211.292 427.014 211.004 426.87 210.788 426.798 210.548 426.798 210.284 426.798 210.02 426.876 209.678 427.032 209.258 427.188 208.838 427.266 208.568 427.266 208.448 427.29 208.112 427.326 207.176 427.374 205.64 L425.322 205.64 C425.298 207.296 425.274 209 425.25 210.752 425.178 211.088 424.974 211.388 424.638 211.652 424.302 211.916 423.93 212.036 423.522 212.012 423.21 211.988 422.49 211.562 421.362 210.734 420.234 209.906 419.658 209.336 419.634 209.024 419.61 208.76 419.706 208.46 419.922 208.124 420.138 207.788 420.258 207.512 420.282 207.296 L420.282 205.64 C419.682 205.64 419.148 205.76 418.68 206 418.212 206.24 417.894 206.348 417.726 206.324 417.414 206.3 416.844 205.73 416.016 204.614 415.188 203.498 414.762 202.76 414.738 202.4 414.714 201.992 414.834 201.626 415.098 201.302 415.362 200.978 415.662 200.78 415.998 200.708 417.246 200.708 418.674 200.696 420.282 200.672 L420.282 198.584 C419.226 198.584 418.578 198.602 418.338 198.638 418.098 198.674 417.81 198.776 417.474 198.944 417.138 199.112 416.85 199.184 416.61 199.16 416.082 199.112 415.464 198.62 414.756 197.684 414.048 196.748 413.694 195.896 413.694 195.128 413.694 194.36 414.114 193.892 414.954 193.724 415.218 193.676 416.994 193.628 420.282 193.58 L420.282 192.536 C420.282 192.392 420.228 192.014 420.12 191.402 420.012 190.79 419.958 190.304 419.958 189.944 419.958 189.008 420.354 188.54 421.146 188.54 421.794 188.54 422.562 188.684 423.45 188.972 424.434 189.284 425.082 189.632 425.394 190.016 425.514 190.208 425.574 191.372 425.574 193.508 L427.302 193.508 C427.35 190.676 427.464 189.134 427.644 188.882 427.824 188.63 428.202 188.504 428.778 188.504 429.858 188.504 431.142 188.876 432.63 189.62 432.87 189.74 432.99 189.968 432.99 190.304 432.99 190.52 432.912 190.862 432.756 191.33 432.6 191.798 432.522 192.092 432.522 192.212 L432.522 193.472 C433.338 193.448 433.998 193.436 434.502 193.436 434.622 193.436 434.922 193.352 435.402 193.184 435.882 193.016 436.242 192.932 436.482 192.932 436.794 192.932 437.01 193.052 437.13 193.292 437.874 194.756 438.246 196.04 438.246 197.144 438.246 197.744 438.102 198.152 437.814 198.368 437.622 198.512 435.846 198.584 432.486 198.584 432.462 198.992 432.45 199.58 432.45 200.348 435.114 200.348 436.542 200.42 436.734 200.564 437.118 200.876 437.466 201.524 437.778 202.508 438.066 203.396 438.21 204.164 438.21 204.812 438.21 205.604 437.742 206 436.806 206 Z M427.338 200.42 L427.338 198.584 425.538 198.584 C425.538 198.992 425.514 199.628 425.466 200.492 426.33 200.444 426.954 200.42 427.338 200.42 Z M413.478 208.232 C413.478 208.688 413.082 209.3 412.29 210.068 411.642 211.484 411.066 212.504 410.562 213.128 409.458 214.568 408.102 215.42 406.494 215.684 406.158 215.732 405.834 215.756 405.522 215.756 404.178 215.756 402.522 215.108 400.554 213.812 398.85 212.66 397.998 210.008 397.998 205.856 397.998 202.784 398.466 200 399.402 197.504 400.434 194.792 401.694 193.388 403.182 193.292 404.358 193.22 405.798 193.532 407.502 194.228 409.206 194.924 410.358 195.692 410.958 196.532 411.462 197.228 411.714 198.152 411.714 199.304 411.714 199.616 411.69 200.066 411.642 200.654 411.594 201.242 411.582 201.656 411.606 201.896 411.654 202.544 411.678 202.844 411.678 202.796 411.678 203.564 411.306 203.936 410.562 203.912 409.698 203.888 408.882 203.756 408.114 203.516 407.082 203.156 406.458 202.664 406.242 202.04 406.17 201.824 406.272 201.536 406.548 201.176 406.824 200.816 406.938 200.516 406.89 200.276 406.938 200.108 406.962 199.688 406.962 199.016 406.962 197.576 406.71 196.832 406.206 196.784 405.438 196.736 404.79 197.9 404.262 200.276 403.782 202.388 403.542 204.692 403.542 207.188 403.542 210.14 403.89 211.7 404.586 211.868 405.138 211.988 405.858 211.388 406.746 210.068 407.49 208.94 407.892 208.178 407.952 207.782 408.012 207.386 408.066 206.984 408.114 206.576 408.282 205.904 408.714 205.592 409.41 205.64 409.842 205.688 410.598 205.964 411.678 206.468 412.758 206.972 413.328 207.35 413.388 207.602 413.448 207.854 413.478 208.064 413.478 208.232 Z"/>
  </defs>
  <use id="c#-1" xlink:href="#c#" fill="#c53923" fill-opacity="1" stroke="none"/>
  <use id="c#-2" xlink:href="#c#" fill="#be121e" fill-opacity="1" stroke="none"/>
  <g id="furos-baixo">
   <g id="furo-duplo">
    <path id="furo-grande" d="M427.344 740.725 C427.344 734.253 422.097 729.006 415.625 729.006 409.153 729.006 403.906 734.253 403.906 740.725 403.906 747.197 409.153 752.444 415.625 752.444 422.097 752.444 427.344 747.197 427.344 740.725 Z" fill="#000000" fill-opacity="1" stroke="none"/>
    <defs>
     <path id="furo-menor" d="M444.922 740.725 C444.922 737.489 442.299 734.866 439.063 734.866 435.826 734.866 433.203 737.489 433.203 740.725 433.203 743.961 435.826 746.584 439.063 746.584 442.299 746.584 444.922 743.961 444.922 740.725 Z"/>
    </defs>
    <defs>
     <path id="stroke-path" d="M441.172 745.094 L442.625 744 443.609 742.375 443.906 740.734 443.609 739.094 442.625 737.469 441.172 736.375 439.063 735.891 436.938 736.375 435.484 737.469 434.5 739.078 434.219 740.734 434.5 742.391 435.484 744 436.938 745.094 439.063 745.578 Z"/>
    </defs>
    <use id="furo-menor-1" stroke="#000000" stroke-opacity="1" stroke-linecap="round" fill="none" stroke-width="2" xlink:href="#stroke-path"/>
   </g>
   <g id="furo-duplo-1">
    <path id="furo-grande-1" d="M427.344 682.131 C427.344 675.659 422.097 670.412 415.625 670.412 409.153 670.412 403.906 675.659 403.906 682.131 403.906 688.603 409.153 693.85 415.625 693.85 422.097 693.85 427.344 688.603 427.344 682.131 Z" fill="#000000" fill-opacity="1" stroke="none"/>
    <path id="furo-menor-2" d="M444.922 682.131 C444.922 678.895 442.299 676.272 439.063 676.272 435.826 676.272 433.203 678.895 433.203 682.131 433.203 685.367 435.826 687.991 439.063 687.991 442.299 687.991 444.922 685.367 444.922 682.131 Z" fill="#000000" fill-opacity="1" stroke="none"/>
   </g>
   <path id="furo" d="M427.344 623.537 C427.344 617.065 422.097 611.819 415.625 611.819 409.153 611.819 403.906 617.065 403.906 623.537 403.906 630.01 409.153 635.256 415.625 635.256 422.097 635.256 427.344 630.01 427.344 623.537 Z" fill="#000000" fill-opacity="1" stroke="none"/>
   <path id="furo-1" d="M427.344 564.944 C427.344 558.472 422.097 553.225 415.625 553.225 409.153 553.225 403.906 558.472 403.906 564.944 403.906 571.416 409.153 576.662 415.625 576.662 422.097 576.662 427.344 571.416 427.344 564.944 Z" fill="#000000" fill-opacity="1" stroke="none"/>
  </g>
  <g id="furos-cima">
   <path id="furo-3" d="M427.344 447.756 C427.344 441.284 422.097 436.037 415.625 436.037 409.153 436.037 403.906 441.284 403.906 447.756 403.906 454.228 409.153 459.475 415.625 459.475 422.097 459.475 427.344 454.228 427.344 447.756 Z" fill="#000000" fill-opacity="1" stroke="none"/>
   <path id="furo-2" d="M427.344 389.162 C427.344 382.69 422.097 377.444 415.625 377.444 409.153 377.444 403.906 382.69 403.906 389.162 403.906 395.635 409.153 400.881 415.625 400.881 422.097 400.881 427.344 395.635 427.344 389.162 Z" fill="#000000" fill-opacity="1" stroke="none"/>
   <path id="furo-1" d="M427.344 330.569 C427.344 324.097 422.097 318.85 415.625 318.85 409.153 318.85 403.906 324.097 403.906 330.569 403.906 337.041 409.153 342.287 415.625 342.287 422.097 342.287 427.344 337.041 427.344 330.569 Z" fill="#000000" fill-opacity="1" stroke="none"/>
   <g id="furo-traseiro">
    <path id="furo-tras-base" d="M368.75 330.569 C368.75 324.097 363.503 318.85 357.031 318.85 350.559 318.85 345.313 324.097 345.313 330.569 345.313 337.041 350.559 342.287 357.031 342.287 363.503 342.287 368.75 337.041 368.75 330.569 Z" fill="#000000" fill-opacity="1" stroke="none"/>
    <path id="Retângulo" d="M357.031 342.287 C350.559 342.287 345.313 337.041 345.313 330.569 L368.75 330.569 C368.75 337.041 363.503 342.287 357.031 342.287 Z" fill="#000000" fill-opacity="1" stroke="none"/>
    <path id="furo-tras-copiar" d="M345.313 330.569 C345.313 324.097 350.559 318.85 357.031 318.85 363.503 318.85 368.75 324.097 368.75 330.569 L345.313 330.569 Z" fill="#000000" fill-opacity="1" stroke="none"/>
   </g>
  </g>
 </g>
</svg>
